<svg xmlns="http://www.w3.org/2000/svg" xmlns:xlink="http://www.w3.org/1999/xlink" viewBox="0 0 1000 500"><defs><linearGradient id="d" x1="504.59" x2="492.7" y1="3.11" y2="642.82" gradientUnits="userSpaceOnUse"><stop offset=".27" stop-color="#f7d589"/><stop offset=".99" stop-color="#37b5a5"/></linearGradient><linearGradient id="a" x1="719.58" x2="631.76" y1="75.75" y2="148" gradientUnits="userSpaceOnUse"><stop offset="0" stop-color="#a61e69"/><stop offset="1" stop-color="#93a2e6"/></linearGradient><linearGradient xlink:href="#a" id="e" x1="284.08" x2="378.94" y1="82.15" y2="154.45"/><linearGradient xlink:href="#a" id="f" x1="689.02" x2="651.24" y1="187.91" y2="188.37"/><linearGradient xlink:href="#a" id="g" x1="306.23" x2="357.47" y1="337.85" y2="339.24"/><linearGradient xlink:href="#a" id="h" x1="376.03" x2="378.27" y1="436.65" y2="385.95"/><linearGradient xlink:href="#a" id="i" x1="717.27" x2="610.31" y1="386.96" y2="388.5"/><linearGradient xlink:href="#a" id="j" x1="321.4" x2="589.8" y1="458.76" y2="382.99"/><linearGradient id="k" x1="725.57" x2="639.05" y1="304.28" y2="240.35" gradientUnits="userSpaceOnUse"><stop offset="0" stop-color="#a61e69"/><stop offset="1" stop-color="#93a2e6"/></linearGradient><linearGradient xlink:href="#a" id="l" x1="417.56" x2="420.43" y1="43.9" y2="124.2"/><linearGradient xlink:href="#a" id="m" x1="289.35" x2="372.5" y1="231.29" y2="229.66"/><linearGradient xlink:href="#a" id="n" x1="484.9" x2="486.66" y1="63.75" y2="112.79"/><linearGradient xlink:href="#a" id="o" x1="514.69" x2="516.44" y1="62.51" y2="111.56"/><linearGradient xlink:href="#a" id="p" x1="544.47" x2="546.23" y1="61.21" y2="110.25"/><linearGradient xlink:href="#a" id="q" x1="574.34" x2="576.09" y1="62.26" y2="111.3"/><linearGradient xlink:href="#a" id="r" x1="604.11" x2="605.86" y1="59.6" y2="108.65"/><linearGradient id="u" x1="484.38" x2="522.55" y1="391.39" y2="391.39" gradientUnits="userSpaceOnUse"><stop offset="0" stop-color="#406a80"/><stop offset="1" stop-color="#333"/></linearGradient><linearGradient id="b" x1="786.82" x2="519.49" y1="429.5" y2="262.2" gradientUnits="userSpaceOnUse"><stop offset="0" stop-color="#234249"/><stop offset="1"/></linearGradient><linearGradient xlink:href="#b" id="v" x1="342.32" x2="384.98" y1="142.46" y2="142.46"/><linearGradient xlink:href="#b" id="w" x1="342.32" x2="527.8" y1="250" y2="250"/><radialGradient id="s" cx="448.58" cy="449.32" r="131.22" fx="448.58" fy="449.32" gradientUnits="userSpaceOnUse"><stop offset="0" stop-color="#f7d589"/><stop offset="1" stop-color="#ff9500"/></radialGradient></defs><path fill="url(#d)" d="M0 0h1000v500H0z"/><path fill="url(#a)" d="M601.67 149.02h71.66l44.33-44.33V86.25c5.84-2.06 10.04-7.62 10.04-14.17 0-8.3-6.73-15.04-15.04-15.04s-15.04 6.73-15.04 15.04c0 6.55 4.2 12.11 10.04 14.17v14.3l-38.48 38.48h-67.52c-2.76 0-5 2.24-5 5s2.24 5 5 5Z"/><path fill="url(#e)" d="M283.35 85.56V104l44.33 44.33h71.66c2.76 0 5-2.24 5-5s-2.24-5-5-5h-67.52l-38.48-38.48v-14.3c5.84-2.06 10.04-7.62 10.04-14.17 0-8.3-6.73-15.04-15.04-15.04s-15.04 6.73-15.04 15.04c0 6.55 4.2 12.11 10.04 14.17Z"/><path fill="url(#f)" d="M683.46 182.8h-58.47c-2.76 0-5 2.24-5 5s2.24 5 5 5h58.47c2.06 5.84 7.62 10.04 14.17 10.04 8.31 0 15.04-6.73 15.04-15.04s-6.73-15.04-15.04-15.04c-6.55 0-12.11 4.2-14.17 10.04"/><path fill="url(#g)" d="M388.77 337.98c0-2.76-2.24-5-5-5H325.3c-2.06-5.84-7.62-10.04-14.17-10.04-8.31 0-15.04 6.73-15.04 15.04s6.73 15.04 15.04 15.04c6.55 0 12.11-4.2 14.17-10.04h58.47c2.76 0 5-2.24 5-5"/><path fill="url(#h)" d="M376.03 451.74c8.3 0 15.04-6.73 15.04-15.04 0-6.55-4.2-12.11-10.04-14.17v-58.47c0-2.76-2.24-5-5-5s-5 2.24-5 5v58.47c-5.84 2.06-10.04 7.62-10.04 14.17 0 8.31 6.73 15.04 15.04 15.04"/><path fill="url(#i)" d="M712.45 399.82v-53.73h-68.32c-2.76 0-5 2.24-5 5s2.24 5 5 5h58.32v43.73c-5.84 2.06-10.04 7.62-10.04 14.17 0 8.3 6.73 15.04 15.04 15.04s15.04-6.73 15.04-15.04c0-6.55-4.2-12.11-10.04-14.17"/><path fill="url(#j)" d="M620.67 370.19c-2.76 0-5 2.24-5 5v48.58H438.8l-46.49 46.49h-89.52v-35.94c5.84-2.06 10.04-7.62 10.04-14.17 0-8.3-6.73-15.04-15.04-15.04s-15.04 6.73-15.04 15.04c0 6.55 4.2 12.11 10.04 14.17v45.94h103.67l46.49-46.49h182.73v-58.58c0-2.76-2.24-5-5-5Z"/><path fill="url(#k)" d="M713.98 294.54c-6.55 0-12.11 4.2-14.17 10.04h-9.63v-70.26h-50.93c-2.76 0-5 2.24-5 5s2.24 5 5 5h40.93v70.26h19.63c2.06 5.84 7.62 10.04 14.17 10.04 8.31 0 15.04-6.73 15.04-15.04s-6.73-15.04-15.04-15.04"/><path fill="url(#l)" d="M386.19 107.28c2.76 0 5-2.24 5-5V61.35h36.06c2.06 5.84 7.62 10.04 14.17 10.04 8.31 0 15.04-6.73 15.04-15.04s-6.73-15.04-15.04-15.04c-6.55 0-12.11 4.2-14.17 10.04h-46.06v50.93c0 2.76 2.24 5 5 5"/><path fill="url(#m)" d="M300.19 205.51h9.63v70.26h50.93c2.76 0 5-2.24 5-5s-2.24-5-5-5h-40.93v-70.26h-19.63c-2.06-5.84-7.62-10.04-14.17-10.04-8.31 0-15.04 6.73-15.04 15.04s6.73 15.04 15.04 15.04c6.55 0 12.11-4.2 14.17-10.04"/><path fill="url(#n)" d="M485.56 101.75c2.76 0 5-2.24 5-5V67.66c0-2.76-2.24-5-5-5s-5 2.24-5 5v29.09c0 2.76 2.24 5 5 5"/><path fill="url(#o)" d="M515.39 101.75c2.76 0 5-2.24 5-5V67.66c0-2.76-2.24-5-5-5s-5 2.24-5 5v29.09c0 2.76 2.24 5 5 5"/><path fill="url(#p)" d="M545.22 101.75c2.76 0 5-2.24 5-5V67.66c0-2.76-2.24-5-5-5s-5 2.24-5 5v29.09c0 2.76 2.24 5 5 5"/><path fill="url(#q)" d="M575.06 101.75c2.76 0 5-2.24 5-5V67.66c0-2.76-2.24-5-5-5s-5 2.24-5 5v29.09c0 2.76 2.24 5 5 5"/><path fill="url(#r)" d="M604.89 100.85c2.76 0 5-2.24 5-5V66.76c0-2.76-2.24-5-5-5s-5 2.24-5 5v29.09c0 2.76 2.24 5 5 5"/><path fill="url(#s)" d="M602.06 500H404.89s5.42-82.99 98.59-82.99S602.06 500 602.06 500"/><path fill="url(#u)" d="M522.55 423.89c-10.67 8.25-23.4 8.25-38.17 0V352.7h38.17z"/><path fill="url(#b)" d="M643.87 407.68H356.13l-13.81-13.81V106.13l13.81-13.81h287.74l13.81 13.81v287.74z"/><path fill="url(#v)" d="M384.98 92.31c-14.77 33.44-29.07 66.82-42.66 100.3v-86.49l13.81-13.81z"/><path fill="url(#w)" d="M527.8 92.31c-42.74 104.75-78.6 209.26-106.54 315.37h-65.13l-13.81-13.81V272.14c15.31-59.99 34.19-120.07 56.04-179.83z"/><path fill="none" d="M657.68 106.12v287.75l-13.81 13.81H356.13l-13.81-13.81V106.12l13.81-13.81h287.74z"/><path fill="#fff" d="M458.19 209.83c0 2.84-.52 5.55-1.46 8.07-6.72-1.36-14.01-2.11-21.61-2.11s-14.89.74-21.61 2.11a23 23 0 0 1-1.46-8.07c0-12.73 10.33-23.07 23.07-23.07s23.07 10.33 23.07 23.07M587.94 209.83c0 2.84-.52 5.55-1.45 8.07-6.72-1.36-14.01-2.11-21.61-2.11s-14.89.74-21.61 2.11c-.94-2.51-1.45-5.23-1.45-8.07 0-12.73 10.33-23.07 23.07-23.07s23.07 10.33 23.07 23.07"/><path fill="none" stroke="#fff" stroke-linecap="round" stroke-miterlimit="10" stroke-width="10.77" d="M498.94 331.31c-32.82 5.77-62.68-15.74-71.01-37.58"/></svg>