<svg xmlns="http://www.w3.org/2000/svg" xmlns:xlink="http://www.w3.org/1999/xlink" viewBox="0 0 1000 500"><defs><linearGradient id="b" x1="58.84" x2="784.18" y1="-191.16" y2="534.18" gradientUnits="userSpaceOnUse"><stop offset="0" stop-color="#f7d589"/><stop offset="1" stop-color="#009288"/></linearGradient><linearGradient id="a" x1="326.43" x2="267.7" y1="349.25" y2="297.73" gradientUnits="userSpaceOnUse"><stop offset="0" stop-color="#cacaca"/><stop offset=".34" stop-color="#c7c7c7"/><stop offset=".51" stop-color="#bfbfbf"/><stop offset=".65" stop-color="#b2b2b2"/><stop offset=".76" stop-color="#9f9f9f"/><stop offset=".87" stop-color="#878787"/><stop offset=".89" stop-color="gray"/></linearGradient><linearGradient xlink:href="#a" id="e" x1="160.51" x2="368.57" y1="107.15" y2="107.15"/><linearGradient xlink:href="#a" id="f" x1="172.99" x2="267.79" y1="96.34" y2="191.13"/><linearGradient id="g" x1="216.76" x2="305.37" y1="193.68" y2="283.32" gradientUnits="userSpaceOnUse"><stop offset="0" stop-color="#a4286a"/><stop offset=".99" stop-color="#760b65"/></linearGradient><radialGradient id="c" cx="338.9" cy="364.93" r="58.05" fx="338.9" fy="364.93" gradientUnits="userSpaceOnUse"><stop offset="0" stop-color="#cacaca"/><stop offset=".34" stop-color="#c7c7c7"/><stop offset=".51" stop-color="#bfbfbf"/><stop offset=".65" stop-color="#b2b2b2"/><stop offset=".76" stop-color="#9f9f9f"/><stop offset=".87" stop-color="#878787"/><stop offset=".89" stop-color="gray"/></radialGradient></defs><path fill="url(#b)" d="M0 0h1000v500H0z"/><circle cx="311.38" cy="398.79" r="46.38" fill="url(#c)" opacity=".57"/><path fill="#f2f2f2" d="M327.34 350.57c-23.74-8.15-49.3 2.21-61.14 23.35-.32.56-1 .83-1.61.62l-111.57-38.32-5.24 15.26 111.56 38.32c.62.21.99.84.89 1.47-3.65 23.96 10.16 47.84 33.89 55.99 26.7 9.18 55.78-5.04 64.96-31.74 9.17-26.71-5.04-55.79-31.75-64.96Zm21.57 61.46c-7.24 21.08-30.2 32.29-51.28 25.05s-32.3-30.19-25.06-51.28c7.24-21.08 30.2-32.29 51.28-25.06 21.08 7.24 32.3 30.2 25.06 51.29"/><path fill="#f2f2f2" d="M344.97 281.77c-.12.49-.51.87-1 .98l-158.31 36.76 9.32 39.27 158.32-36.77c.49-.11.99.05 1.32.43 9.77 11.26 25.26 16.78 43.47 12.46 15.17-3.6 27.25-12.86 33.89-24.41.27-.47.23-1.04-.09-1.47s-.87-.63-1.39-.5l-24.48 5.81c-.23.05-.47.05-.7-.02l-22.72-6.8c-.46-.14-.81-.51-.92-.98l-5.38-22.67c-.11-.47.04-.96.39-1.29l17.25-16.28c.17-.16.38-.28.61-.33l24.48-5.81c.52-.12.92-.55 1.01-1.07.09-.53-.13-1.06-.58-1.36-11.12-7.34-26.07-10.19-41.24-6.59-18.21 4.32-29.57 16.2-33.24 30.64"/><path fill="url(#a)" d="m334.83 314.44-89.09 20.79c-4.32 1.01-8.69-1.7-9.7-6.03l-.61-2.62c-1.01-4.32 1.7-8.69 6.03-9.7l89.09-20.79c4.32-1.01 8.69 1.7 9.7 6.03l.61 2.62c1.01 4.32-1.7 8.69-6.03 9.7"/><path fill="url(#e)" d="M367.67 130.19c.34.12.61.36.77.69.16.32.18.69.06 1.03l-7.47 21.41c-.12.34-.37.61-.69.77s-.69.18-1.03.06c-44.09-15.39-123.43-43.13-129.62-45.21-6.25-2.1-10.45-2.6-15.69-4.15-4.74-1.4-44.92-15.62-52.59-18.34-.7-.25-1.07-1.01-.82-1.71l8.27-23.7a1.44 1.44 0 0 1 1.83-.89c7.96 2.76 48.34 16.79 52.5 18.31 4.61 1.69 8.79 4.29 14.87 6.51 5.72 2.09 116.48 40.64 129.62 45.21"/><path fill="#f2f2f2" d="m366.04 134.94-5.05 14.48s-135.65-47.46-144.54-50.41c-8.89-2.96-35.29-5.67-35.29-5.67l-19.74-6.89c-.7-.24-1.07-1.01-.83-1.71l8.29-23.78c.24-.7 1.01-1.07 1.71-.83l19.74 6.89s22.18 14.38 31.16 17.51c8.99 3.13 144.54 50.41 144.54 50.41"/><path fill="url(#f)" d="M55.23 179.77c34.3 32.19 216.29 2.65 333.8-28l-10.22-50.8-324.07 76.98.18.75c.09.37.2.72.31 1.08"/><path fill="#f2f2f2" d="M55.23 179.77c11.52 38.55 98.78 42.26 226.57 15.43l110.8-25.72-3.56-17.71c-117.52 30.65-299.51 60.19-333.8 28"/><path fill="url(#g)" d="M407.72 96.3c-22.74-22.74-59.61-22.74-82.36 0L118.84 302.82c-22.74 22.74-22.74 59.61 0 82.36 22.74 22.74 59.61 22.74 82.36 0l206.52-206.52c22.74-22.74 22.74-59.62 0-82.36"/><path fill="#f2f2f2" d="M386.05 135.36c.14 9.75-7.65 17.76-17.4 17.89-9.74.14-17.76-7.65-17.89-17.4-.14-9.74 7.65-17.76 17.4-17.89 9.75-.14 17.76 7.65 17.89 17.4M175.79 345.62c.14 9.75-7.65 17.76-17.4 17.89-9.75.14-17.76-7.65-17.89-17.4-.14-9.74 7.65-17.76 17.4-17.89 9.75-.14 17.76 7.65 17.89 17.4M223.45 245.47c-.22-.33-.42-.68-.61-1.04-.18-.35-.35-.71-.5-1.08-.07-.18-.14-.37-.21-.55-.1-.28-.19-.58-.28-.92-.08-.3-.14-.55-.18-.78-.04-.19-.07-.38-.1-.58-.05-.39-.09-.78-.11-1.17-.04-.73 0-1.47.1-2.21.04-.26.07-.49.11-.7a12.26 12.26 0 0 1 3.33-6.28l24.67-24.67c1.43-1.43 3.2-2.48 5.14-3.05.37-.11.76-.2 1.14-.28.38-.07.77-.13 1.16-.17a12.1 12.1 0 0 1 4.64.45c1.15.34 2.24.84 3.23 1.5.68.45 1.32.97 1.9 1.55l21.35 21.35 3.13-1.47-22.17-22.17c-6.02-6.02-15.81-6.02-21.83 0l-24.67 24.67c-6.02 6.02-6.02 15.81 0 21.83l1.42 1.42 2.3-2.3-1.42-1.42c-.58-.58-1.1-1.22-1.55-1.9M303.96 239.33l-.11-.24-2.97 1.35.11.24c.24.52.44 1.05.59 1.59.11.37.2.76.28 1.14.22 1.15.28 2.33.17 3.5-.04.39-.09.78-.17 1.16-.07.38-.17.77-.28 1.14-.57 1.93-1.62 3.71-3.05 5.14l-33.28 33.28-21.78-21.78-.15.04c-1.06.29-2.11.53-3.11.72l-.5.09 25.54 25.54 35.58-35.58c4.53-4.53 5.78-11.49 3.12-17.33"/><path fill="#f2f2f2" d="m303.45 223.51-46 21.65 12.76-24.73-7.32-7.32-14.35 32.64a13.12 13.12 0 0 1-6.76 6.76c-3.16 1.39-7.45 2.52-12.63-1.05l-.23-.16-6.24 6.24.26.24c3.8 3.51 7.84 5.14 12.71 5.13 4.96-.01 10.94-1.76 18.83-5.49l56.45-25.78.44-.2-7.93-7.93Z"/></svg>