<svg xmlns="http://www.w3.org/2000/svg" xmlns:xlink="http://www.w3.org/1999/xlink" viewBox="0 0 1000 500"><defs><linearGradient id="d" x1="500" x2="500" y1="-25.82" y2="474.18" gradientUnits="userSpaceOnUse"><stop offset=".27" stop-color="#f590e4"/><stop offset=".98" stop-color="#70dbdb"/></linearGradient><linearGradient id="a" x1="176.89" x2="41.4" y1="95.47" y2="95.63" gradientUnits="userSpaceOnUse"><stop offset="0" stop-color="#5160a6"/><stop offset=".22" stop-color="#4a599f"/><stop offset=".51" stop-color="#39488e"/><stop offset=".86" stop-color="#1c2c72"/><stop offset="1" stop-color="#0e1e65"/></linearGradient><linearGradient xlink:href="#a" id="e" x1="287.5" x2="162.55" y1="93.44" y2="99.28"/><linearGradient xlink:href="#a" id="f" x1="282.24" x2="166.63" y1="189.94" y2="194.61"/><linearGradient xlink:href="#a" id="h" x1="396.4" x2="260.94" y1="191.52" y2="191.52"/><linearGradient id="b" x1="25.46" x2="165.59" y1="305.28" y2="302.94" gradientUnits="userSpaceOnUse"><stop offset="0" stop-color="#760b65"/><stop offset="1" stop-color="#b24aa1"/></linearGradient><linearGradient xlink:href="#b" id="i" x1="21.53" x2="165.16" y1="400.41" y2="399.24"/><linearGradient xlink:href="#b" id="j" x1="114.95" x2="285.44" y1="400.4" y2="399.23"/><linearGradient xlink:href="#b" id="k" x1="230.61" x2="395.26" y1="398.64" y2="399.81"/></defs><path fill="url(#d)" d="M0 0h1000v500H0z"/><path fill="#0e1e65" d="M306 150.52H82v-14l49-41 49-41h14l49 41 49-41h14z"/><path fill="url(#a)" d="M82 54.52h98v82H82z"/><path fill="url(#e)" d="M194 54.52h98v82h-98z"/><path fill="#0e1e65" d="M418 246.52H194v-14l49-41 49-41h14l49 41 49-41h14z"/><path fill="url(#f)" d="M194 150.52h98v82h-98z"/><path fill="url(#h)" d="M306 150.52h98v82h-98z"/><path fill="#760b65" d="M194 358.52H82v-14l49-41 49-41h14z"/><path fill="url(#b)" d="M82 262.52h98v82H82z"/><path fill="#760b65" d="M418 454.52H82v-14l49-41 49-41h14l49 41 49-41h14l49 41 49-41h14z"/><path fill="url(#i)" d="M82 358.52h98v82H82z"/><path fill="url(#j)" d="M194 358.52h98v82h-98z"/><path fill="url(#k)" d="M306 358.52h98v82h-98z"/></svg>