<svg xmlns="http://www.w3.org/2000/svg" viewBox="0 0 1000 500"><defs><linearGradient id="a" x1="171.64" x2="823.42" y1="18.66" y2="477.87" gradientUnits="userSpaceOnUse"><stop offset=".12" stop-color="#760b65"/><stop offset=".48" stop-color="#6c36a8"/><stop offset=".86" stop-color="#6366f1"/></linearGradient><linearGradient id="c" x1="896.88" x2="635.89" y1="98.74" y2="457.42" gradientUnits="userSpaceOnUse"><stop offset="0" stop-color="#fdf5e2"/><stop offset="1" stop-color="#fde3f8"/></linearGradient></defs><path fill="url(#a)" d="M0 0h1000v500H0z"/><path fill="url(#c)" d="M594.15 452.91c63.69-99.96 110.77-59.51 228.27-127.29-40.7-2.3-80.63-14.9-80.63-14.9s57.3 9.03 99.45 2.13c39.34-30.99 59.86-77.14 64.62-124.65-17.28 11.15-46.23 11.92-46.23 11.92s34.23-8.94 46.06-21.54c.26-5.36-.6-10.64-.77-15.92-11.92 14.9-25.29 17.54-25.29 17.54s10.81-5.62 24.86-24.44c-4.09-51.94-32.69-83.7-60.03-102.85 16.01 73.56-18.82 117.58-65.56 152.15 0 0 7.41 29.71 1.96 56.62-3.24-30.74-14.05-48.45-14.05-48.45-41.04 27.59-83.87 42.23-111.37 71.18 0 0 5.19 30.14 2.98 44.79-2.55-16.86-9.71-37.04-9.71-37.04-16.6 20.86-27.84 49.89-30.99 95.79 21.71-45.89 59.09-69.99 112.64-94 54.24-24.35 106.85-55.43 123.12-131.03-12.77 91.27-60.45 116.48-117.5 142.1-58.24 26.14-108.64 54.15-141.85 147.89"/></svg>