<svg xmlns="http://www.w3.org/2000/svg" xmlns:xlink="http://www.w3.org/1999/xlink" viewBox="0 0 1000 500"><defs><linearGradient id="b" x1="863.46" x2="126.03" y1="-113.46" y2="623.97" gradientUnits="userSpaceOnUse"><stop offset="0" stop-color="#93a2e6"/><stop offset=".99" stop-color="#a4286a"/></linearGradient><linearGradient id="c" x1="85.18" x2="424.7" y1="128.45" y2="317.3" gradientUnits="userSpaceOnUse"><stop offset="0" stop-color="#dbf6f6"/><stop offset=".4" stop-color="#dcf6f6"/><stop offset=".54" stop-color="#e3f6f7"/><stop offset=".64" stop-color="#eff8f8"/><stop offset=".69" stop-color="#f8f9fa"/><stop offset=".76" stop-color="#ebf7f8"/><stop offset=".87" stop-color="#dff6f6"/><stop offset=".98" stop-color="#dbf6f6"/></linearGradient><linearGradient id="a" x1="267.45" x2="226.17" y1="93" y2="424.26" gradientUnits="userSpaceOnUse"><stop offset="0" stop-color="#5160a6"/><stop offset="1" stop-color="#0e1e65"/></linearGradient><linearGradient xlink:href="#a" id="e" x1="250.97" x2="255.1" y1="230.13" y2="26.84"/></defs><path fill="url(#b)" d="M0 0h1000v500H0z"/><rect width="379.39" height="252.36" x="61.82" y="94.79" fill="url(#c)" rx="24.6" ry="24.6"/><path fill="url(#a)" d="M419.99 91.16H83.03c-14.62 0-26.51 11.9-26.51 26.51v206.39c0 14.62 11.9 26.51 26.51 26.51h133.81c-1.67 25.54-15.28 39.71-27.65 47.39h-32.27v8.47H346.1v-8.47h-31.38c-12.37-7.68-25.98-21.86-27.65-47.39H420c14.62 0 26.51-11.9 26.51-26.51V117.68c0-14.62-11.9-26.51-26.51-26.51Zm15.91 232.9c0 8.77-7.14 15.91-15.91 15.91H83.03c-8.78 0-15.91-7.14-15.91-15.91V117.68c0-8.78 7.13-15.91 15.91-15.91H420c8.77 0 15.91 7.13 15.91 15.91v206.39Z"/><path fill="url(#e)" d="M180.85 139.18h140.37c48.46 0 87.74 39.28 87.74 87.74s-39.28 87.74-87.74 87.74H180.85c-48.46 0-87.74-39.28-87.74-87.74s39.28-87.74 87.74-87.74"/><circle cx="323.5" cy="226.9" r="70.19" fill="#fff"/><path fill="#7281c6" d="m199.34 170.76-22.69 63.04-10.87-34.04h-16.16l18.1 46.48c1.54 3.96 1.54 8.35 0 12.31-2.02 5.19-5.39 9.62-13.59 10.73v13.78c15.98 0 24.61-9.82 32.32-31.35l30.2-80.96h-17.29Z"/><path fill="#5160a6" d="m375.6 254.11-6.19-13.33a11.33 11.33 0 0 0-10.25-6.54h-8.48c-.15-2.19-.49-4.33-.97-6.38l8.55-2.2c3.82-.98 6.8-3.82 7.97-7.59l7.63-24.51c.54-1.86-.52-3.81-2.38-4.35-1.82-.53-3.73.47-4.32 2.27l-7.63 24.51a4.28 4.28 0 0 1-3.02 2.88l-9.05 2.32a34 34 0 0 0-4.1-6.84l3.54-2.45c2.47-1.71 4.18-4.38 4.7-7.34l3.9-22.27c.33-1.91-.94-3.72-2.85-4.06-1.9-.33-3.72.94-4.06 2.85l-3.9 22.27a4.26 4.26 0 0 1-1.79 2.78l-4.55 3.15q-.99-.78-2.04-1.47c1.56-2.39 2.48-5.26 2.48-8.33 0-8.44-6.84-15.29-15.29-15.29s-15.29 6.84-15.29 15.29c0 3.08.92 5.93 2.48 8.33-.7.45-1.37.94-2.03 1.46l-4.59-3.17a4.39 4.39 0 0 1-1.79-2.78l-3.9-22.27a3.504 3.504 0 0 0-4.05-2.85c-1.9.33-3.18 2.14-2.85 4.05l3.9 22.27c.52 2.96 2.23 5.64 4.7 7.34l3.58 2.47a34.4 34.4 0 0 0-4.1 6.82l-9.09-2.34a4.24 4.24 0 0 1-3.02-2.88l-7.63-24.51a3.505 3.505 0 0 0-4.43-2.23c-1.8.59-2.8 2.5-2.27 4.32l7.63 24.51c1.15 3.75 4.17 6.62 7.97 7.59l8.57 2.21c-.49 2.05-.82 4.18-.97 6.37h-8.51c-4.38 0-8.4 2.57-10.25 6.54l-6.19 13.32a3.51 3.51 0 0 0 3.18 4.99c1.33 0 2.59-.75 3.18-2.03l6.19-13.32a4.29 4.29 0 0 1 3.89-2.48h8.63c.31 3.04.95 5.96 1.9 8.68l-3.22 2.34a11.26 11.26 0 0 0-4.37 11.64l2.05 9.01a3.509 3.509 0 1 0 6.84-1.55l-2.04-9.01c-.38-1.67.27-3.41 1.66-4.42l2.09-1.52c4.95 8.36 13.03 13.8 22.16 13.8s17.18-5.43 22.14-13.77l2.09 1.52a4.29 4.29 0 0 1 1.66 4.42l-2.05 9.01a3.508 3.508 0 1 0 6.84 1.56l2.05-9.01c1.01-4.41-.72-8.98-4.37-11.64l-3.2-2.33c.95-2.73 1.6-5.65 1.91-8.69h8.6a4.3 4.3 0 0 1 3.89 2.48l6.19 13.33c.82 1.76 2.9 2.52 4.66 1.71 1.76-.82 2.52-2.9 1.71-4.66h-.02Z"/></svg>