<svg xmlns="http://www.w3.org/2000/svg" viewBox="0 0 1000 500"><defs><linearGradient id="a" x1="143.11" x2="843.87" y1="622.83" y2="-109.23" gradientUnits="userSpaceOnUse"><stop offset=".1" stop-color="#6366f1"/><stop offset="1" stop-color="#b97e9f"/></linearGradient><linearGradient id="c" x1="60.56" x2="451.43" y1="171.88" y2="277.91" gradientUnits="userSpaceOnUse"><stop offset="0" stop-color="#dbf6f6"/><stop offset=".4" stop-color="#dcf6f6"/><stop offset=".54" stop-color="#e3f6f7"/><stop offset=".64" stop-color="#eff8f8"/><stop offset=".69" stop-color="#f8f9fa"/><stop offset=".76" stop-color="#ebf7f8"/><stop offset=".87" stop-color="#dff6f6"/><stop offset=".98" stop-color="#dbf6f6"/></linearGradient><linearGradient id="d" x1="205.7" x2="299.36" y1="373.64" y2="55.52" gradientUnits="userSpaceOnUse"><stop offset="0" stop-color="#000242"/><stop offset=".16" stop-color="#070750"/><stop offset=".46" stop-color="#191676"/><stop offset=".86" stop-color="#372eb2"/><stop offset="1" stop-color="#4338ca"/></linearGradient><linearGradient id="e" x1="122.31" x2="377.69" y1="235.72" y2="235.72" gradientUnits="userSpaceOnUse"><stop offset="0" stop-color="#015b5b"/><stop offset=".22" stop-color="#076262"/><stop offset=".56" stop-color="#187676"/><stop offset=".96" stop-color="#359696"/><stop offset="1" stop-color="#399b9b"/></linearGradient></defs><path fill="url(#a)" d="M0 0h1000v500H0z"/><path fill="url(#c)" d="M439.7 121.69v203.16c0 13.53-11.07 24.6-24.61 24.6H84.91c-13.53 0-24.6-11.07-24.6-24.6V121.69c0-13.53 11.07-24.6 24.6-24.6h330.18c13.54 0 24.61 11.07 24.61 24.6"/><path fill="url(#d)" d="M418.49 93.46H81.51C66.89 93.46 55 105.35 55 119.97v206.4c0 14.62 11.89 26.51 26.51 26.51h133.82c-1.67 25.54-15.28 39.72-27.65 47.4h-32.27v8.48h189.18v-8.48h-31.38c-12.37-7.68-25.99-21.86-27.65-47.4h132.93c14.62 0 26.51-11.89 26.51-26.51v-206.4c0-14.62-11.89-26.51-26.51-26.51m15.9 232.91c0 8.77-7.14 15.91-15.91 15.91H81.51c-8.77 0-15.91-7.14-15.91-15.91v-206.4c0-8.77 7.14-15.91 15.91-15.91h336.97c8.77 0 15.91 7.14 15.91 15.91z"/><path fill="url(#e)" d="m304.03 214.69-5.48-42.81h-126.9v-22.66h-11.36v22.66h-37.98v150.35h255.38v-53.77z"/><path fill="#54bbbb" d="M229.75 322.23h147.93v-53.77H229.75zm139.54-6.54H238.37v-41.06h130.92z"/><path fill="#1d7b7b" d="M156.09 214.69h147.94l73.66 53.77H229.75z"/><path fill="#54bbbb" d="m325.56 261.89-10.93-7.8-27.62-.36 10.79 7.75zM275.18 249.84l-10.69-7.68-27.13-.3 10.55 7.63zM291.26 261.39l-10.78-7.74-27.31-.35 10.64 7.69zM206.03 219.2l10.37 7.5 26.93.26-10.5-7.55zM259.2 238.36l-10.59-7.61-26.97-.26 10.46 7.57zM255.11 230.81l10.61 7.62 27.4.31-10.74-7.67zM239.31 219.46l10.52 7.56 27.23.26-10.65-7.6zM309.29 250.27l-10.84-7.73-27.44-.31 10.7 7.69zM257.3 260.9l-10.63-7.69-27.01-.34 10.49 7.64zM209.93 226.64l-10.35-7.49-26.51-.21 10.22 7.44zM360.2 262.39l-11.09-7.86-27.92-.36 10.95 7.81zM241.4 249.4l-10.53-7.61-26.84-.3 10.4 7.57zM225.62 237.98l-10.45-7.55-26.67-.25 10.31 7.5zM304.99 242.61l10.86 7.75 27.88.36-10.99-7.8zM288.91 231.13l10.76 7.68 27.7.31-10.9-7.72zM272.92 219.73l10.67 7.61 27.53.26-10.81-7.66zM298.55 171.88H150.62l5.48 42.81h147.93zM166.82 205.9l-3.2-25.24h128.93l3.2 25.24z"/><path fill="#1d7b7b" d="M200.44 154.12H131.5c-3.02 0-5.49-2.47-5.49-5.49v-24.19c0-3.02 2.47-5.49 5.49-5.49h68.94c3.02 0 5.49 2.47 5.49 5.49v24.19c0 3.02-2.47 5.49-5.49 5.49"/><path d="M134.69 125.27h62.49v21.17h-62.49z"/><path fill="#f7d589" d="M188.26 139.03h-44.92c-1.99 0-3.6-1.61-3.6-3.6s1.61-3.6 3.6-3.6h44.92c1.99 0 3.6 1.61 3.6 3.6s-1.61 3.6-3.6 3.6"/></svg>