<svg xmlns="http://www.w3.org/2000/svg" xmlns:xlink="http://www.w3.org/1999/xlink" viewBox="0 0 1000 500"><defs><linearGradient id="b" x1="858.15" x2="131.79" y1="-115.04" y2="625.29" gradientUnits="userSpaceOnUse"><stop offset="0" stop-color="#f590e4"/><stop offset="1" stop-color="#1eb0a6"/></linearGradient><linearGradient id="c" x1="67.75" x2="427.91" y1="121.04" y2="324.34" gradientUnits="userSpaceOnUse"><stop offset="0" stop-color="#dbf6f6"/><stop offset=".4" stop-color="#dcf6f6"/><stop offset=".54" stop-color="#e3f6f7"/><stop offset=".64" stop-color="#eff8f8"/><stop offset=".69" stop-color="#f8f9fa"/><stop offset=".76" stop-color="#ebf7f8"/><stop offset=".87" stop-color="#dff6f6"/><stop offset=".98" stop-color="#dbf6f6"/></linearGradient><linearGradient id="a" x1="279.59" x2="213.55" y1="81.86" y2="398.68" gradientUnits="userSpaceOnUse"><stop offset="0" stop-color="#b94986"/><stop offset="1" stop-color="#770045"/></linearGradient><linearGradient xlink:href="#a" id="e" x1="249.86" x2="251.93" y1="235.25" y2="12.34"/></defs><path fill="url(#b)" d="M0 0h1000v500H0z"/><rect width="379.39" height="252.36" x="60.3" y="97.73" fill="url(#c)" rx="24.6" ry="24.6"/><path fill="url(#a)" d="M418.48 94.11H81.51c-14.62 0-26.51 11.9-26.51 26.51v206.39c0 14.62 11.9 26.51 26.51 26.51h133.81c-1.67 25.54-15.28 39.71-27.65 47.39H155.4v8.47h189.18v-8.47H313.2c-12.37-7.68-25.98-21.86-27.65-47.39h132.93c14.62 0 26.51-11.9 26.51-26.51V120.62c0-14.62-11.9-26.51-26.51-26.51m15.91 232.9c0 8.77-7.14 15.91-15.91 15.91H81.51c-8.78 0-15.91-7.14-15.91-15.91V120.62c0-8.78 7.13-15.91 15.91-15.91h336.97c8.77 0 15.91 7.13 15.91 15.91z"/><path fill="url(#e)" d="M179.81 133.37h140.37c48.46 0 87.74 39.28 87.74 87.74s-39.28 87.74-87.74 87.74H179.81c-48.46 0-87.74-39.28-87.74-87.74s39.28-87.74 87.74-87.74"/><circle cx="320.18" cy="221.09" r="70.19" fill="#fff"/><path fill="#cd82ab" d="M352.47 222.34H287.9c-2.32 0-4.22-1.89-4.22-4.22v-16.84c0-2.32 1.89-4.22 4.22-4.22h64.57c2.32 0 4.22 1.89 4.22 4.22v16.84c0 2.32-1.89 4.22-4.22 4.22m-64.57-22.46c-.78 0-1.41.63-1.41 1.41v16.84c0 .78.63 1.41 1.41 1.41h64.57c.78 0 1.41-.63 1.41-1.41v-16.84c0-.78-.63-1.41-1.41-1.41z"/><circle cx="294.34" cy="209.71" r="4.22" fill="#cd82ab"/><rect width="35.09" height="4.22" x="315.38" y="207.41" fill="#cd82ab" rx="2.1" ry="2.1"/><path fill="#cd82ab" d="M352.47 194.97H287.9c-2.32 0-4.22-1.89-4.22-4.22v-16.84c0-2.32 1.89-4.22 4.22-4.22h64.57c2.32 0 4.22 1.89 4.22 4.22v16.84c0 2.32-1.89 4.22-4.22 4.22m-64.57-22.46c-.78 0-1.41.63-1.41 1.41v16.84c0 .78.63 1.41 1.41 1.41h64.57c.78 0 1.41-.63 1.41-1.41v-16.84c0-.78-.63-1.41-1.41-1.41z"/><circle cx="294.34" cy="182.33" r="4.22" fill="#cd82ab"/><rect width="35.09" height="4.22" x="315.38" y="180.04" fill="#cd82ab" rx="2.1" ry="2.1"/><path fill="#cd82ab" d="M352.47 249.72H287.9c-2.32 0-4.22-1.89-4.22-4.22v-16.84c0-2.32 1.89-4.22 4.22-4.22h64.57c2.32 0 4.22 1.89 4.22 4.22v16.84c0 2.32-1.89 4.22-4.22 4.22m-64.57-22.47c-.78 0-1.41.63-1.41 1.41v16.84c0 .78.63 1.41 1.41 1.41h64.57c.78 0 1.41-.63 1.41-1.41v-16.84c0-.78-.63-1.41-1.41-1.41z"/><circle cx="294.34" cy="237.08" r="4.22" fill="#cd82ab"/><rect width="35.09" height="4.22" x="315.38" y="234.78" fill="#cd82ab" rx="2.1" ry="2.1"/><rect width="52.6" height="7.17" x="293.88" y="262.87" fill="#cd82ab" rx="3.58" ry="3.58"/><path fill="#cd82ab" d="M320.18 251.85c2.02 0 3.65 1.63 3.65 3.65v9.92c0 2.02-1.63 3.65-3.65 3.65s-3.65-1.63-3.65-3.65v-9.92c0-2.02 1.63-3.65 3.65-3.65"/><path fill="#cd82ab" d="M317.69 260.4h4.99a6.041 6.041 0 0 1 0 12.08h-4.99a6.041 6.041 0 0 1 0-12.08M196.03 164.95l-22.69 63.04-10.87-34.04h-16.16l18.1 46.48c1.54 3.96 1.54 8.35 0 12.31-2.02 5.19-5.39 9.62-13.59 10.73v13.78c15.98 0 24.61-9.82 32.32-31.35l30.2-80.96h-17.29Z"/></svg>