<svg xmlns="http://www.w3.org/2000/svg" xmlns:xlink="http://www.w3.org/1999/xlink" viewBox="0 0 1000 500"><defs><linearGradient id="d" x1="311.08" x2="670.92" y1="-58.94" y2="529.49" gradientUnits="userSpaceOnUse"><stop offset="0" stop-color="#f590e4"/><stop offset=".99" stop-color="#f5c779"/></linearGradient><linearGradient id="a" x1="747.54" x2="748.31" y1="310.96" y2="93.25" gradientUnits="userSpaceOnUse"><stop offset="0" stop-color="#084a67"/><stop offset="1" stop-color="#93a2e6"/></linearGradient><linearGradient xlink:href="#a" id="e" x1="816.39" x2="817.17" y1="300.13" y2="82.42"/><linearGradient xlink:href="#a" id="f" x1="884.62" x2="885.39" y1="246.08" y2="28.36"/><linearGradient xlink:href="#a" id="h" x1="802.05" x2="822.2" y1="346.24" y2="423.72"/><linearGradient id="b" x1="816.41" x2="834.23" y1="326.96" y2="399.01" gradientUnits="userSpaceOnUse"><stop offset="0" stop-color="#97bed1"/><stop offset=".99" stop-color="#93a2e6"/></linearGradient><linearGradient xlink:href="#b" id="j" x1="642.27" x2="656.99" y1="315.61" y2="419.43"/><linearGradient xlink:href="#b" id="k" x1="599.82" x2="609.11" y1="288.9" y2="337.72"/><linearGradient xlink:href="#b" id="l" x1="812.67" x2="842.89" y1="136.98" y2="176.49"/><linearGradient xlink:href="#b" id="m" x1="736.34" x2="777.41" y1="194.72" y2="228.81"/><linearGradient xlink:href="#b" id="n" x1="881.42" x2="916.29" y1="67.94" y2="106.68"/><radialGradient id="i" cx="683.87" cy="343.88" r="139.71" fx="683.87" fy="343.88" gradientUnits="userSpaceOnUse"><stop offset=".32" stop-color="#084a67"/><stop offset=".42" stop-color="#0d4d6b"/><stop offset=".54" stop-color="#1c577a"/><stop offset=".67" stop-color="#366791"/><stop offset=".82" stop-color="#597db1"/><stop offset=".96" stop-color="#879adb"/><stop offset="1" stop-color="#93a2e6"/></radialGradient></defs><path fill="url(#d)" d="M0 0h1000v500H0z"/><path fill="url(#a)" d="M722.11 207.9h51.05v149.33h-51.05z"/><path fill="url(#e)" d="M791.03 152.61h51.04V359.8h-51.04z"/><path fill="url(#f)" d="M859.15 79.31v279.47h51.13V79.31"/><path fill="url(#h)" d="M707.52 352.19h232.34l3.86-3.63c1.5-1.41 1.68-3.63.53-5.31l-22.56-31.85a6.2 6.2 0 0 0-5.04-2.56H664.61v59.71h256.38c.88 0 1.77-.27 2.39-.88l7.54-7.08H707.53v-8.4Z"/><path fill="url(#b)" d="M707.52 352.19v8.4h223.39l8.95-8.4z"/><path fill="url(#i)" d="M633.56 256.73c-43.35 0-78.56 35.21-78.56 78.56s35.21 78.56 78.56 78.56 78.56-35.21 78.56-78.56-35.21-78.56-78.56-78.56m-18.4 102c-12.92 0-23.44-10.53-23.44-23.44s10.53-23.44 23.44-23.44 23.44 10.53 23.44 23.44-10.44 23.44-23.44 23.44"/><path fill="url(#j)" d="M597.38 395.36s.71.35 2.12 1.06c.71.35 1.59.71 2.57 1.15.97.44 2.21.88 3.54 1.33 2.65.88 5.93 1.86 9.73 2.48.97.18 1.95.27 2.92.44.97.09 2.03.18 3.1.27s2.21.09 3.27.18h3.45c2.39-.09 4.78-.27 7.25-.71 2.48-.35 5.04-.88 7.61-1.5 2.57-.71 5.22-1.5 7.79-2.48.62-.27 1.33-.53 1.95-.8s1.33-.53 1.95-.8c1.33-.62 2.57-1.15 3.89-1.86 5.13-2.57 10-6.1 14.6-9.91 2.3-1.95 4.42-4.16 6.37-6.37l1.5-1.77c.44-.62.88-1.24 1.42-1.77l.71-.88.62-.97 1.24-1.77 1.33-2.03c.27-.35.44-.71.62-.97l.53-.97c.71-1.24 1.42-2.65 2.03-3.98 1.24-2.74 2.3-5.57 3.27-8.4.8-2.92 1.59-5.75 2.12-8.67s.88-5.84 1.06-8.67c.18-2.92.09-5.75 0-8.49-.09-2.83-.44-5.48-.88-8.14-.97-5.22-2.3-10.17-3.98-14.51-1.77-4.34-3.8-8.23-5.84-11.5a70.6 70.6 0 0 0-6.1-8.05c-.97-1.06-1.77-1.95-2.57-2.74-.8-.8-1.42-1.5-2.03-1.95a71 71 0 0 0-1.77-1.59l.35-.44s.71.44 1.95 1.33c.62.44 1.42 1.06 2.3 1.77s1.86 1.5 2.92 2.48c2.12 1.95 4.6 4.42 6.99 7.7 2.48 3.18 4.87 7.08 6.99 11.5 2.12 4.51 3.89 9.55 5.13 15.13 1.15 5.57 1.86 11.5 1.68 17.69 0 3.1-.35 6.19-.8 9.38-.44 3.18-1.24 6.28-2.03 9.47-.97 3.1-2.03 6.19-3.45 9.2s-3.01 5.93-4.78 8.67c-1.86 2.74-3.8 5.4-6.02 7.87-2.21 2.39-4.51 4.78-7.08 6.81-4.95 4.16-10.44 7.7-16.01 10.26a74.5 74.5 0 0 1-16.9 5.66 67.5 67.5 0 0 1-15.92 1.33c-4.95-.18-9.47-.88-13.36-1.86-3.89-.97-7.17-2.3-9.82-3.45-1.33-.62-2.48-1.15-3.45-1.77-.97-.53-1.86-.97-2.48-1.42-1.33-.8-2.03-1.24-2.03-1.24l.44-.71Z"/><path fill="url(#k)" d="M594.37 361.39s-.35-.18-1.06-.53c-.35-.18-.8-.44-1.24-.71-.27-.18-.53-.27-.8-.44-.27-.18-.53-.44-.88-.62-.62-.44-1.33-.97-2.03-1.5-.71-.62-1.33-1.33-2.12-2.03-.71-.8-1.42-1.68-2.21-2.57-.44-.44-.71-.97-1.06-1.5s-.71-1.06-1.06-1.68c-.62-1.15-1.33-2.39-1.86-3.72s-1.06-2.74-1.42-4.25c-.88-3.01-1.24-6.37-1.15-9.73.09-.88.09-1.77.18-2.57.09-.88.27-1.77.44-2.65l.27-1.33.35-1.33c.27-.88.53-1.77.8-2.56 1.24-3.45 3.18-6.72 5.4-9.64l1.77-2.03.44-.44c.09-.18.27-.26.44-.44l1.06-1.06c.71-.62 1.42-1.41 2.21-1.95.71-.53 1.5-1.06 2.21-1.59.8-.53 1.59-.97 2.3-1.41l1.15-.62 1.24-.53c.8-.35 1.59-.71 2.48-1.06.8-.27 1.68-.53 2.48-.8 3.36-.88 6.63-1.33 9.73-1.24 1.59 0 3.1.18 4.51.35 1.42.27 2.74.62 4.07.97.62.18 1.24.44 1.86.62s1.15.35 1.68.71c1.06.53 2.12.97 3.01 1.5.88.53 1.77 1.06 2.48 1.59s1.33 1.15 1.95 1.59c.27.26.53.44.8.71s.44.44.62.71c.35.44.71.8.97 1.06.53.62.8.88.8.88l-.35.44s-.35-.26-.97-.62c-.27-.18-.71-.44-1.15-.8-.27-.18-.44-.35-.71-.53s-.53-.35-.88-.44c-.62-.35-1.24-.71-2.03-1.15-.8-.35-1.59-.71-2.48-1.06-.88-.35-1.95-.62-2.92-.97-1.06-.35-2.21-.53-3.36-.8-1.15-.18-2.39-.35-3.72-.44-1.33 0-2.65-.09-3.98 0-2.74.09-5.57.8-8.4 1.68-2.83.97-5.57 2.39-8.14 4.16s-4.78 3.98-6.81 6.46c-1.95 2.56-3.54 5.22-4.69 8.14-1.06 2.92-1.86 5.93-2.12 8.85-.18 2.92-.18 5.84.35 8.58.18 1.33.62 2.65.88 3.89.35 1.24.8 2.39 1.24 3.45.53 1.06.97 2.12 1.5 3.1.53.88 1.06 1.86 1.59 2.65.62.8 1.15 1.5 1.59 2.21.53.62 1.06 1.15 1.5 1.68.27.27.44.53.71.71s.44.44.62.62c.44.35.8.71 1.06.88.53.53.88.8.88.8v.35Z"/><path fill="url(#l)" d="m820.84 164.2 21.23-5.31v5.31z"/><path fill="url(#m)" d="m751.84 219.05 21.23-5.31v5.31z"/><path fill="url(#n)" d="m888.96 90.77 21.23-5.31v5.31z"/></svg>