<svg xmlns="http://www.w3.org/2000/svg" viewBox="0 0 1000 500"><defs><linearGradient id="a" x1="500" x2="500" y1="42.86" y2="463.25" gradientUnits="userSpaceOnUse"><stop offset=".27" stop-color="#70dbdb"/><stop offset=".39" stop-color="#5dc5c5"/><stop offset=".57" stop-color="#49aeae"/><stop offset=".74" stop-color="#3d9f9f"/><stop offset=".88" stop-color="#399b9b"/></linearGradient><linearGradient id="c" x1="815.74" x2="734.52" y1="467.6" y2="70.52" gradientUnits="userSpaceOnUse"><stop offset="0" stop-color="#b33c77"/><stop offset="1" stop-color="#760b65"/></linearGradient><linearGradient id="d" x1="749.92" x2="685.11" y1="469.03" y2="62.91" gradientUnits="userSpaceOnUse"><stop offset="0" stop-color="#db649f"/><stop offset="1" stop-color="#f590e4"/></linearGradient></defs><path fill="url(#a)" d="M0 0h1000v500H0z"/><path fill="#760b65" d="m882.91 48.73 56.21 400h-35.6l-7.49-52.46H709.61l7.49 52.46h-35.59l-56.21-400z"/><path fill="url(#c)" d="m871.67 48.73 56.21 400h-35.6l-7.49-52.46H698.37l7.49 52.46h-35.59l-56.21-400z"/><path fill="#760b65" d="m625.3 48.73-56.2 400h35.59l7.5-52.46H798.6l-7.49 52.46h35.6l56.2-400z"/><path fill="url(#d)" d="m614.06 48.73-56.21 400h35.6l7.5-52.46h186.41l-7.49 52.46h35.6l56.2-400z"/><path fill="#5b5be7" d="M630.92 68.41h217.8l-40.75 289.46h-217.8z"/><path fill="#f1ab58" d="M735.93 89.3c-43.5 1.14-83.61 37.48-89.59 81.17-.17 1.23-.28 2.52-.34 3.86-1.57 33.16 27.77 100.54 44.74 136.46 6.82 14.45 11.65 23.82 11.65 23.82s7.43-9.69 18.27-24.6c24.28-33.41 65.68-93.05 79.15-128.9 2.09-5.55 3.51-10.54 4.08-14.76 5.97-43.69-24.45-78.19-67.95-77.05"/><path fill="#fff" d="m776.48 148.25-44.72-14.34h-.86l-49.26 15.32c-.46.22-.96.65-1.06 1.3s.27 1.07.66 1.28l13.29 4.15c-3.13 3.68-4.6 9.06-5.53 13.79-1.63.88-3.83 2.62-4.16 4.76-.3 1.93.98 3.42 2.31 4.48l-5.79 18.3c-.07.43-.13.86.27 1.07s.58.42 1.01.42l8.15-.09c.43 0 .89-.22 1.14-.44s.53-.65.59-1.08l-.43-18.24c1.63-.88 3.61-2.61 3.91-4.55.3-1.93-1.16-3.64-2.53-4.48.85-5.59 3.94-10.34 6.56-12.09l1.28.42-3.76 19.99c-1.35 6.02 10.37 10.62 25.18 10.47 14.8-.15 27.97-5.01 28.46-11.03l2.31-19.68 22.54-6.98c.68-.22.96-.65 1.06-1.3.1-.64-.23-1.28-.63-1.5"/></svg>