<svg xmlns="http://www.w3.org/2000/svg" xmlns:xlink="http://www.w3.org/1999/xlink" viewBox="0 0 1000 500"><defs><radialGradient id="c" cx="204.83" cy="256.69" r="252.11" fx="204.83" fy="256.69" gradientTransform="rotate(15.53 609.764 311.97)scale(1 1.43)" gradientUnits="userSpaceOnUse"><stop offset="0" stop-color="#0396e3"/><stop offset="1" stop-color="#4b44d4"/></radialGradient><radialGradient id="a" cx="189.41" cy="225.66" r="90.64" fx="189.41" fy="225.66" gradientTransform="rotate(21.772 837.435 350.286)scale(1 2.1045)" gradientUnits="userSpaceOnUse"><stop offset="0" stop-color="#25c3ff"/><stop offset="1" stop-color="#70dbdb"/></radialGradient><radialGradient xlink:href="#a" id="e" cx="323.82" cy="219.45" r="70.37" fx="323.82" fy="219.45"/><linearGradient id="b" x1="498.54" x2="501.08" y1="-19.88" y2="448.58" gradientUnits="userSpaceOnUse"><stop offset=".27" stop-color="#70dbdb"/><stop offset=".99" stop-color="#d9e021"/></linearGradient></defs><path fill="url(#b)" d="M0 0h1000v500H0z"/><path fill="url(#c)" d="m319.88 53.01 3.28 1.08c5.18 1.71 8.93 5.11 10.82 10.2 1.96 5.27 3.32 10.64 3.91 16.05-2-.18-3.73-.99-5.7-1.85-8.96-3.88-19.45-6.71-29.14-8.64-12.11-2.41-23.86-.91-31.56 8.24-8.94 10.61-10.59 31.3-8.37 45.32 2.82 17.77 9.55 35.45 21.77 48.68 5.92 6.41 14.82 11.51 23.38 11.14 2.23-.09 6.52 2.24 13.3 1.69l.64 1.93 1.94 6.49c3.42 11.43 6.82 22.43 9.38 34.07 5.8 26.36 7.41 59.7.8 85.98-.1.39-.19.63.38.9-.71 1.13-1.37 2.61-1.83 4.18-5.87 20.3-15.7 38.92-29.55 54.94l-14.14 14.33-5.29 4.96-9.2 7.01-8.15 5.86c-10.3-9.11-26.17-16.51-38.27-9.74-6.18 3.46-11.84 7.86-16.36 14.12l52.71.25c-1.19 1.88-3.08 2.96-5.06 4.43-11.5 8.51-23.65 15.06-36.78 20.68-22.06 8.62-44.97 14.78-69.01 16.29l-41.7.23 19.6-57.65c4.11-4.86 8.84-8.98 13.9-13.12l12.94-10.6 22.08-18.37c12.62-10.5 24.22-21.5 35.77-33.17 18.81-19.02 40.35-42.99 49.53-67.79 2.26-6.12 3.81-12.26 3.55-18.65-.32-8.04-2.05-15.48-5.86-22.7-6.84-12.96-17.63-23.23-30.59-29.69-3.51-1.39-6.87-2.11-10.41-2.06l34.33-75.37c1.17-2.55 2.58-4.37 3.19-7.31-2.26.44-4.01-.48-6.01-1.41-5.53-2.57-9.49-7.07-12.78-12.22l-6.2-11.76-.23-.92c-.75-3.08 6.79 5.1 15.3 6.32 5.5.79 10.93-.87 15.5-3.9l15.94-10.59c9.68-6.43 27.65-11.34 38.25-7.85Z"/><path fill="url(#a)" d="m131.69 394.19 20.2-65.35c9.39-30.37 18.42-60.39 28.99-90.34 5.74-16.26 14.42-36.73 25.93-49.02 4.69-5.01 9.53-9.47 15.78-11.46 3.55-.05 6.9.67 10.41 2.06 12.96 6.46 23.75 16.74 30.59 29.69 3.81 7.22 5.54 14.67 5.86 22.7.26 6.4-1.29 12.53-3.55 18.65-9.18 24.8-30.71 48.78-49.53 67.79-11.55 11.67-23.14 22.66-35.77 33.17l-22.08 18.37-12.94 10.6c-5.06 4.14-9.79 8.27-13.9 13.12Z"/><path fill="#393a3c" d="M321.56 184.92c-6.78.55-11.07-1.78-13.3-1.69-3.86-1.4-7.65-3.16-10.12-6.9-3.82-5.8-5.37-12.66-4.09-19.52.97-5.22 5.47-9.37 10.71-10.77 9.84-2.63 19.59-8.34 24.96-17.37 8.89-14.96 10.07-31.1 8.17-48.34-.59-5.41-1.96-10.78-3.91-16.05-1.89-5.09-5.65-8.5-10.82-10.2L319.88 53c.09-.58.46-.57.98-.45 22.21 2.74 39.68 17.87 48.56 38.26 11.03 25.33 7.69 59.28-10.14 81.25 2.02-7.55.07-15.16-5.88-19.68-2.78-2.12-5.74-3-9.06-2.12-4.71 1.11-8.97.79-13.6-1.05 1.59 1.63 3.02 2.39 4.04 4.25 2.45 4.46 4.79 8.98 6.52 13.83.62 1.74-.51 3.3-1.38 4.85l5.14 1.89c-6.19 6.16-14.87 10.19-23.48 10.88Z"/><path fill="url(#e)" d="M334.71 314.31c-.57-.27-.48-.51-.38-.9 6.62-26.28 5-59.62-.8-85.98-2.56-11.65-5.97-22.65-9.38-34.07l-1.94-6.49c4.97 3.02 9.44 6.73 13.36 11.53 22.09 27.11 21.57 61.41 9.45 93.26-3.03 7.95-5.91 15.7-10.3 22.66Z"/><path fill="#393a3c" d="M283.91 392.72c14.24.14 26.94 6.6 35.78 17.42l-49.97.1-5.08-.02-52.71-.25c4.51-6.26 10.17-10.65 16.36-14.12 12.1-6.77 27.97.62 38.27 9.74l8.15-5.86z"/><path fill="#fff" d="M337.89 80.34c1.89 17.24.72 33.38-8.17 48.34-5.36 9.02-15.12 14.74-24.96 17.37-5.25 1.4-9.74 5.55-10.71 10.77-1.27 6.86.27 13.72 4.09 19.52 2.47 3.75 6.26 5.5 10.12 6.9-8.56.36-17.46-4.73-23.38-11.14-12.22-13.23-18.95-30.91-21.77-48.68-2.22-14.02-.57-34.71 8.37-45.32 7.71-9.15 19.45-10.65 31.56-8.24 9.69 1.93 20.18 4.76 29.14 8.64 1.97.85 3.7 1.67 5.7 1.85Zm-46.28 3.56c-2.74-4.57-8.97-4.71-12.69-1.21-4.94 4.65-5.65 12.45-1.43 17.8 1.93 2.44 4.76 3.61 7.85 3.27 6.98-.76 10.84-12.24 6.28-19.86Z"/><path fill="#393a3c" d="M291.74 83.75c4.65 7.76.72 19.44-6.39 20.22-3.14.34-6.03-.85-7.99-3.33-4.29-5.44-3.56-13.38 1.46-18.12 3.78-3.57 10.13-3.42 12.92 1.23"/></svg>