<svg xmlns="http://www.w3.org/2000/svg" viewBox="0 0 1000 500"><defs><radialGradient id="c" cx="312.39" cy="105.36" r="152.12" fx="312.39" fy="105.36" gradientUnits="userSpaceOnUse"><stop offset="0" stop-color="#9fda4f"/><stop offset=".2" stop-color="#9bd750"/><stop offset=".37" stop-color="#90cf53"/><stop offset=".53" stop-color="#7ec259"/><stop offset=".69" stop-color="#65af62"/><stop offset=".85" stop-color="#44986d"/><stop offset="1" stop-color="#1d7b7b"/></radialGradient><radialGradient id="d" cx="243.08" cy="278.12" r="103.29" fx="243.08" fy="278.12" gradientUnits="userSpaceOnUse"><stop offset="0" stop-color="#9fda4f"/><stop offset=".17" stop-color="#9ad750"/><stop offset=".35" stop-color="#8ece54"/><stop offset=".53" stop-color="#7abf5b"/><stop offset=".7" stop-color="#5eaa64"/><stop offset=".88" stop-color="#3a9071"/><stop offset="1" stop-color="#1d7b7b"/></radialGradient><radialGradient id="e" cx="187.09" cy="408.09" r="63.25" fx="187.09" fy="408.09" gradientUnits="userSpaceOnUse"><stop offset="0" stop-color="#9fda4f"/><stop offset=".15" stop-color="#99d550"/><stop offset=".33" stop-color="#89ca56"/><stop offset=".54" stop-color="#6eb65f"/><stop offset=".77" stop-color="#499b6b"/><stop offset="1" stop-color="#1d7b7b"/></radialGradient><linearGradient id="a" x1="312.5" x2="842.83" y1="62.5" y2="592.83" gradientUnits="userSpaceOnUse"><stop offset=".16" stop-color="#7281c6"/><stop offset=".31" stop-color="#5873af"/><stop offset=".64" stop-color="#185276"/><stop offset=".72" stop-color="#084a67"/></linearGradient></defs><path fill="url(#a)" d="M0 0h1000v500H0z"/><path fill="url(#c)" d="M270.02 136.28c0-46.73 37.88-84.61 84.61-84.61s84.61 37.88 84.61 84.61-37.88 84.61-84.61 84.61-84.61-37.88-84.61-84.61"/><path fill="#fff" d="m417.93 111.32-58.67 67.49-11.02 12.68c-1.46 1.68-3.58 2.7-5.75 2.85-2.18.15-4.42-.57-6.1-2.03l-12.68-11.02-33.75-29.33c-1.68-1.46-2.7-3.58-2.85-5.75-.15-2.18.57-4.42 2.03-6.1l11.02-12.68c1.46-1.68 3.58-2.7 5.75-2.85 2.18-.15 4.42.57 6.1 2.03l27.41 23.91 53.15-61.24c1.46-1.68 3.58-2.7 5.75-2.85 2.18-.15 4.42.57 6.1 2.03l12.68 11.02c1.68 1.46 2.7 3.58 2.85 5.75.15 2.18-.57 4.42-2.03 6.1"/><path fill="url(#d)" d="M208.14 297.37c0-30.51 24.73-55.23 55.23-55.23s55.23 24.73 55.23 55.23-24.73 55.23-55.23 55.23-55.23-24.73-55.23-55.23"/><path fill="#fff" d="m304.69 283.42-38.3 44.06-7.19 8.28c-.95 1.1-2.33 1.76-3.76 1.86-1.42.1-2.88-.37-3.98-1.32l-8.28-7.19-22.03-19.15c-1.1-.95-1.76-2.33-1.86-3.76-.1-1.42.37-2.88 1.32-3.98l7.19-8.28c.95-1.1 2.33-1.76 3.76-1.86 1.42-.1 2.88.37 3.98 1.32l17.89 15.61 34.7-39.98a5.54 5.54 0 0 1 3.76-1.86c1.42-.1 2.88.37 3.98 1.32l8.28 7.19c1.1.95 1.76 2.33 1.86 3.76.1 1.42-.37 2.88-1.32 3.98"/><path fill="url(#e)" d="M159.93 418.33c0-18.41 14.92-33.33 33.33-33.33s33.33 14.92 33.33 33.33-14.92 33.33-33.33 33.33-33.33-14.92-33.33-33.33"/><path fill="#fff" d="m218.2 409.56-23.11 26.59-4.34 4.99a3.33 3.33 0 0 1-4.67.32l-4.99-4.34-13.29-11.56a3.33 3.33 0 0 1-.32-4.67l4.34-4.99a3.33 3.33 0 0 1 4.67-.32l10.8 9.42 20.94-24.12a3.33 3.33 0 0 1 4.67-.32l4.99 4.34a3.33 3.33 0 0 1 .32 4.67M99.21 322.76v30.33c18.77-.78 33.46-6.95 45.89-19.56 12.43-12.6 23.81-33.03 34.68-63.36l80.48-215.55h-38.94l-64.84 180.09-32.16-101H88.68l47.28 121.51a49.95 49.95 0 0 1 0 36.33c-4.78 12.34-13.38 26.86-36.77 31.2"/></svg>