<svg xmlns="http://www.w3.org/2000/svg" viewBox="0 0 1000 500"><defs><linearGradient id="a" x1="0" x2="1000" y1="250" y2="250" gradientUnits="userSpaceOnUse"><stop offset="0" stop-color="#f5c779"/><stop offset="1" stop-color="#70dbdb"/></linearGradient><linearGradient id="c" x1="198.06" x2="398.35" y1="351.7" y2="351.7" gradientUnits="userSpaceOnUse"><stop offset="0" stop-color="#b64ea5"/><stop offset="1" stop-color="#962c85"/></linearGradient><linearGradient id="d" x1="305.32" x2="94.2" y1="148.21" y2="155.35" gradientUnits="userSpaceOnUse"><stop offset="0" stop-color="#54bbbb"/><stop offset="1" stop-color="#1d7b7b"/></linearGradient></defs><path fill="url(#a)" d="M0 0h1000v500H0z"/><path fill="#760b65" d="M198.86 251.55H158.8v190.22l40.06 10.08z"/><path fill="url(#c)" d="M198.06 251.55h200.29v200.29H198.06z"/><path fill="#f590e4" d="M386.72 440.21H209.7V263.19h177.02zm-170.25-6.77h163.48V269.96H216.47z"/><path fill="#fde3f8" d="M267.66 397.78v12.32c7.63-.3 13.58-2.84 18.63-7.92 5.21-5.23 9.68-13.4 14.08-25.69L333 289.01h-15.78l-26.3 73.04-13.08-40.96h-14.45l19.19 49.3c1.85 4.76 1.85 10 0 14.75-1.95 5.01-5.42 10.89-14.93 12.64"/><path fill="url(#d)" d="M93.19 51.85h200.29v200.29H93.19z"/><path fill="#70dbdb" d="M104.82 240.54V64.51l177.05-1.06v176.02l-177.05 1.06Zm6.79-169.27V233.7l163.45-.98V70.29z"/><path fill="#1d7b7b" d="m333.05 63.94-40.06-12.09v200.29h40.06z"/><path fill="#dbf6f6" d="M210.64 180.19c-.46 0-.93 0-1.39-.02-26.12-.76-46.75-22.63-46-48.75.76-26.12 22.64-46.77 48.75-45.99 26.12.76 46.75 22.63 46 48.75-.75 25.65-21.85 46.02-47.35 46.02m-.04-83.77c-19.57 0-35.77 15.63-36.34 35.32-.58 20.05 15.25 36.83 35.3 37.42.36.01.72.02 1.07.02 19.57 0 35.77-15.63 36.34-35.32.58-20.05-15.25-36.83-35.3-37.42-.36 0-.72-.02-1.07-.02"/><path fill="#dbf6f6" d="M133.83 215.53c-2.02 0-4.03-.8-5.51-2.39-2.85-3.04-2.69-7.82.35-10.66l38.12-35.67c3.04-2.85 7.82-2.69 10.66.35 2.85 3.04 2.69 7.82-.35 10.66l-38.12 35.67a7.54 7.54 0 0 1-5.15 2.04"/></svg>