<svg xmlns="http://www.w3.org/2000/svg" viewBox="0 0 1000 500"><defs><linearGradient id="a" x1="0" x2="1000" y1="250" y2="250" gradientUnits="userSpaceOnUse"><stop offset="0" stop-color="#4a9177"/><stop offset="1" stop-color="#f7d589"/></linearGradient><linearGradient id="c" x1="0" x2="500" y1="250" y2="250" gradientUnits="userSpaceOnUse"><stop offset="0" stop-color="#fff"/><stop offset="1" stop-color="#fff" stop-opacity="0"/></linearGradient><linearGradient id="d" x1="159.49" x2="252.33" y1="347.35" y2="293.05" gradientUnits="userSpaceOnUse"><stop offset="0" stop-color="#111827"/><stop offset=".31" stop-color="#141b2a"/><stop offset=".61" stop-color="#1e2736"/><stop offset=".91" stop-color="#303949"/><stop offset=".99" stop-color="#374151"/></linearGradient><linearGradient id="e" x1="136.53" x2="240.75" y1="339.74" y2="274.06" gradientUnits="userSpaceOnUse"><stop offset="0" stop-color="#ef9d48"/><stop offset=".99" stop-color="#f5c779"/></linearGradient><linearGradient id="f" x1="150.69" x2="234.76" y1="226.31" y2="390.08" gradientUnits="userSpaceOnUse"><stop offset="0" stop-color="#dbf6f6"/><stop offset="1" stop-color="#fde3f8"/></linearGradient></defs><path fill="url(#a)" d="M0 0h1000v500H0z"/><path fill="url(#c)" d="M240.84 500H500h-25.93v-18.32l25.93-15v-11l-30.26 17.52-75.64-43.67v-87.35l75.64-43.67L500 316v-11l-25.93-15v-87.32l25.93-15v-11l-30.26 17.47-75.64-43.63V63.17l77.2-44.56a80 80 0 0 0-8.37-6.13l-73.16 42.21L314.13 11V0h-8.66v11l-75.64 43.69L154.18 11V0h-8.65v11L69.88 54.69 0 7.99V19.5l65.55 43.67v87.35L0 188.37v11L69.88 159l75.65 43.68V290l-75.65 43.7L0 293.35v11l65.55 37.85v87.35L0 467.54v10.08L69.88 438l75.65 43.67V500m88.62-436.83L309.8 19.5l75.64 43.67v87.35l-75.64 43.67-75.65-43.67zM229.83 159l75.64 43.68V290l-75.64 43.7-75.65-43.7v-87.32zm-155.62-8.48V63.17l75.64-43.67 75.65 43.67v87.35l-75.65 43.67zm0 279v-87.34l75.64-43.67 75.65 43.67v87.35l-75.65 43.67zM305.47 500H154.18v-18.32L229.83 438l75.64 43.67zm-71.32-70.43v-87.39l75.65-43.67 75.64 43.67v87.35L309.8 473.2zm231.26 52.15V500H314.13v-18.32L389.77 438zM465.29 290l-75.65 43.7L314 290v-87.32L389.64 159l75.65 43.68z"/><path fill="url(#d)" d="m281.26 351.58-88.69 53.45.9 1c18.33 20.49 49.75 44.4 76.83 27.83l-.19-.32.34.23c27.3-16.2 20.84-55.16 11.28-80.93zm-24.7-65.21-110.5 66.6c6.16 7.24 12.4 14.15 22.48 25.33l100.19-60.38c-5.28-14.08-8.58-22.75-12.17-31.55M135.58 210c0 .17.06.33.1.49l-.25-.4s-16.63 17.4-24.39 42.68l73.44-44.27c-25.75-4.66-48.9 1.5-48.9 1.5m87.73 16.32L109.15 295.1a82 82 0 0 0 14.52 30.12l119.2-71.83a76.6 76.6 0 0 0-19.56-27.07"/><path fill="url(#e)" d="M268.73 317.92 168.54 378.3c6.24 6.91 14 15.46 24 26.73l88.69-53.45c-5.23-14.17-9.24-24.95-12.5-33.66m-24.86-62.33c-.31-.75-.64-1.48-1-2.2l-119.2 71.83c.48.64.95 1.28 1.45 1.91 9.13 11.63 15 18.89 20.9 25.84l110.5-66.6c-3.37-8.48-6.97-17.09-12.65-30.78m-59.39-47.09-73.44 44.27c-3.89 12.55-5.51 27.07-1.89 42.33l114.12-68.78c-11.75-10.27-25.61-15.48-38.79-17.82"/><path fill="url(#f)" d="M262.75 261.31c-5.73-26.37-26.23-44.3-45.78-40.05s-30.76 29.07-25 55.43l57.38 93.47s19.13-82.49 13.4-108.85M121.4 346.5c-20.64-17.38-26.92-43.88-14-59.18s40.07-13.62 60.71 3.76l55.84 94.39s-81.92-21.63-102.55-38.97"/><circle cx="268.04" cy="403.66" r="5.52" fill="#fff"/><circle cx="244.79" cy="417.67" r="5.52" fill="#fff"/></svg>