<svg xmlns="http://www.w3.org/2000/svg" xmlns:xlink="http://www.w3.org/1999/xlink" viewBox="0 0 1000 500"><defs><linearGradient id="b" x1="0" x2="1000" y1="250" y2="250" gradientUnits="userSpaceOnUse"><stop offset="0" stop-color="#5b5be7"/><stop offset=".99" stop-color="#54bbbb"/></linearGradient><linearGradient id="c" x1="570.95" x2="929.05" y1="250" y2="250" gradientUnits="userSpaceOnUse"><stop offset="0" stop-color="#dbf6f6"/><stop offset="1" stop-color="#fdf5e2"/></linearGradient><linearGradient id="d" x1="556.23" x2="955.32" y1="107.79" y2="400.68" gradientUnits="userSpaceOnUse"><stop offset="0" stop-color="#111827"/><stop offset="1" stop-color="#6b7280"/></linearGradient><linearGradient id="e" x1="596.53" x2="903.47" y1="293.58" y2="293.58" gradientUnits="userSpaceOnUse"><stop offset="0" stop-color="#015b5b"/><stop offset="1" stop-color="#399b9b"/></linearGradient><linearGradient id="a" x1="596.53" x2="903.47" y1="260.42" y2="260.42" gradientUnits="userSpaceOnUse"><stop offset="0" stop-color="#0e1e65"/><stop offset="1" stop-color="#5160a6"/></linearGradient><linearGradient xlink:href="#a" id="g" y1="157.16" y2="157.16"/></defs><path fill="url(#b)" d="M0 0h1000v500H0z"/><path fill="url(#c)" d="M570.95 56.74h358.11v386.53H570.95z"/><path fill="url(#d)" d="M928.11 442.32H571.9V57.68h356.21v384.63ZM930 55.79H570v388.42h360z"/><path fill="#969696" d="m891.07 337.36-19.05 52.92-9.36-29.33h-11.45l14.31 36.76c1.33 3.41 1.33 7.17 0 10.58-1.39 3.56-3.86 7.8-10.7 9.06l-.31.06v9.76l.39-.02c5.72-.22 10.15-2.11 13.95-5.93 3.87-3.89 7.19-9.94 10.44-19.03l24-64.32.19-.5h-12.41ZM596.53 360.84h242.53v13.26H596.53zM596.53 387.37h242.53v13.26H596.53zM596.53 413.89h242.53v13.26H596.53z"/><path fill="#ef9d48" d="m613.46 315.37 5.23 10.6 11.7 1.7-8.46 8.25 2 11.66-10.47-5.5-10.47 5.5 2-11.66-8.46-8.25 11.7-1.7z"/><path fill="#f1ab58" d="m656.59 315.37 5.23 10.6 11.71 1.7-8.47 8.25 2 11.66-10.47-5.5-10.46 5.5 1.99-11.66-8.46-8.25 11.7-1.7z"/><path fill="#f3b969" d="m697.19 315.37 5.23 10.6 11.7 1.7-8.47 8.25 2 11.66-10.46-5.5-10.47 5.5 2-11.66-8.47-8.25 11.7-1.7z"/><path fill="#f5c779" d="m737.27 315.37 5.24 10.6 11.7 1.7-8.47 8.25 2 11.66-10.47-5.5-10.46 5.5 2-11.66-8.47-8.25 11.7-1.7z"/><path fill="#f7d589" d="m777.36 315.37 5.23 10.6 11.71 1.7-8.47 8.25 2 11.66-10.47-5.5-10.46 5.5 1.99-11.66-8.46-8.25 11.7-1.7z"/><path fill="url(#e)" d="M596.53 285.05h306.95v17.05H596.53z"/><path fill="url(#a)" d="M596.53 249.05h306.95v22.74H596.53z"/><path fill="url(#g)" d="M596.53 78.53h306.95v157.26H596.53z"/><path fill="#fff" d="m649.11 214.49 52.35-61.64 40.43 31.51 61.84-74.08 61.38 104.21zM676.58 120.67c0 11.51-9.33 20.84-20.84 20.84s-20.84-9.33-20.84-20.84 9.33-20.84 20.84-20.84 20.84 9.33 20.84 20.84"/></svg>