<svg xmlns="http://www.w3.org/2000/svg" xmlns:xlink="http://www.w3.org/1999/xlink" viewBox="0 0 1000 500"><defs><linearGradient id="b" x1="0" x2="1000" y1="250" y2="250" gradientUnits="userSpaceOnUse"><stop offset="0" stop-color="#5b5be7"/><stop offset=".99" stop-color="#54bbbb"/></linearGradient><linearGradient id="c" x1="568.49" x2="928.49" y1="250" y2="250" gradientUnits="userSpaceOnUse"><stop offset="0" stop-color="#111827"/><stop offset="1" stop-color="#6b7280"/></linearGradient><linearGradient id="d" x1="595.01" x2="901.96" y1="293.58" y2="293.58" gradientUnits="userSpaceOnUse"><stop offset="0" stop-color="#015b5b"/><stop offset="1" stop-color="#399b9b"/></linearGradient><linearGradient id="a" x1="595.01" x2="901.96" y1="260.42" y2="260.42" gradientUnits="userSpaceOnUse"><stop offset="0" stop-color="#0e1e65"/><stop offset="1" stop-color="#5160a6"/></linearGradient><linearGradient xlink:href="#a" id="f" y1="157.16" y2="157.16"/></defs><path fill="url(#b)" d="M0 0h1000v500H0z"/><path fill="#fff" d="M569.43 56.74h358.11v386.53H569.43z"/><path fill="url(#c)" d="M926.59 442.32H570.38V57.68h356.21v384.63Zm1.9-386.53h-360v388.42h360z"/><path fill="#969696" d="m889.55 337.36-19.05 52.92-9.36-29.33h-11.45L864 397.71c1.33 3.41 1.33 7.17 0 10.58-1.39 3.56-3.86 7.8-10.7 9.06l-.31.06v9.76l.39-.02c5.72-.22 10.15-2.11 13.95-5.93 3.87-3.89 7.19-9.94 10.44-19.03l24-64.32.19-.5h-12.41ZM595.01 360.84h242.53v13.26H595.01zM595.01 387.37h242.53v13.26H595.01zM595.01 413.89h242.53v13.26H595.01z"/><path fill="#ef9d48" d="m611.95 315.37 5.23 10.6 11.7 1.7-8.47 8.25 2 11.66-10.46-5.5-10.47 5.5 2-11.66-8.47-8.25 11.7-1.7z"/><path fill="#f1ab58" d="m655.08 315.37 5.23 10.6 11.7 1.7-8.46 8.25 1.99 11.66-10.46-5.5-10.47 5.5 2-11.66-8.47-8.25 11.71-1.7z"/><path fill="#f3b969" d="m695.67 315.37 5.24 10.6 11.7 1.7-8.47 8.25 2 11.66-10.47-5.5-10.46 5.5 2-11.66-8.47-8.25 11.7-1.7z"/><path fill="#f5c779" d="m735.76 315.37 5.23 10.6 11.7 1.7-8.46 8.25 2 11.66-10.47-5.5-10.46 5.5 1.99-11.66-8.46-8.25 11.7-1.7z"/><path fill="#f7d589" d="m775.85 315.37 5.23 10.6 11.7 1.7-8.46 8.25 1.99 11.66-10.46-5.5-10.47 5.5 2-11.66-8.47-8.25 11.71-1.7z"/><path fill="url(#d)" d="M595.01 285.05h306.95v17.05H595.01z"/><path fill="url(#a)" d="M595.01 249.05h306.95v22.74H595.01z"/><path fill="url(#f)" d="M595.01 78.53h306.95v157.26H595.01z"/><path fill="#fff" d="M780.64 102.27c-8.22-8.22-19.59-13.32-32.15-13.32s-23.93 5.1-32.15 13.32c-8.23 8.23-13.32 19.59-13.32 32.15 0 7.44 1.79 14.46 4.95 20.64 3.16 6.2 7.7 11.58 13.22 15.72.02.02.03 6.98.03 14.82v1.12c0 1.26 2.05 2.27 4.55 2.27h45.47c2.5 0 4.55-2.04 4.55-4.55v-9.75c0-2.13 1.49-5.27 3.3-7 0 0 6.77-6.39 9.93-12.59a45.3 45.3 0 0 0 4.96-20.68c0-12.56-5.09-23.93-13.32-32.15m.24 48.69c-2.5 4.9-7.29 9.45-7.29 9.45-1.82 1.72-4.12 3.75-5.12 4.49-1 .75-1.82 2.38-1.82 3.64v6.8c0 2.5-2.05 4.55-4.55 4.55h-27.3c-2.5 0-4.63-2.04-4.73-4.55 0 0-.74-9.72-1.77-10.52s-3.35-2.88-5.16-4.62c0 0-4.64-4.44-7.11-9.29-2.62-5.13-3.95-10.68-3.95-16.5 0-9.72 3.78-18.85 10.66-25.72 6.86-6.88 16-10.66 25.72-10.66s18.85 3.78 25.73 10.66c6.87 6.87 10.65 16 10.65 25.72 0 5.83-1.33 11.39-3.96 16.54M771.22 198.08h-45.47c-2.5 0-4.55 2.04-4.55 4.55s2.05 4.55 4.55 4.55h45.47c2.5 0 4.55-2.04 4.55-4.55s-2.05-4.55-4.55-4.55M762.13 216.27h-27.28c-2.5 0-4.55 2.04-4.55 4.55s2.05 4.55 4.55 4.55h27.28c2.5 0 4.55-2.04 4.55-4.55s-2.05-4.55-4.55-4.55"/></svg>