<svg xmlns="http://www.w3.org/2000/svg" xmlns:xlink="http://www.w3.org/1999/xlink" viewBox="0 0 1000 500"><defs><linearGradient id="k" x1="117.15" x2="866.48" y1="-119.34" y2="603.56" gradientUnits="userSpaceOnUse"><stop offset=".06" stop-color="#70dbdb"/><stop offset=".19" stop-color="#80b8cd"/><stop offset=".36" stop-color="#9392bf"/><stop offset=".53" stop-color="#a274b3"/><stop offset=".69" stop-color="#ad5fab"/><stop offset=".85" stop-color="#b352a6"/><stop offset="1" stop-color="#b64ea5"/></linearGradient><linearGradient id="a" x1="203.89" x2="239.34" y1="99.56" y2="110.3" gradientUnits="userSpaceOnUse"><stop offset="0" stop-color="#f7dfb7"/><stop offset="1" stop-color="#b19f83"/></linearGradient><linearGradient id="b" x1="212.79" x2="259.78" y1="174.86" y2="183.18" gradientUnits="userSpaceOnUse"><stop offset="0" stop-color="#b64ea5"/><stop offset="1" stop-color="#760b65"/></linearGradient><linearGradient xlink:href="#a" id="l" x1="288.9" x2="325.42" y1="94.74" y2="109.24"/><linearGradient id="e" x1="336.9" x2="276.21" y1="188.7" y2="179.57" gradientUnits="userSpaceOnUse"><stop offset="0" stop-color="#015b5b"/><stop offset="1" stop-color="#399b9b"/></linearGradient><linearGradient xlink:href="#a" id="n" x1="148.38" x2="177.38" y1="139.06" y2="160.01"/><linearGradient id="g" x1="146.72" x2="94.36" y1="304.07" y2="286.08" gradientUnits="userSpaceOnUse"><stop offset="0" stop-color="#0e1e65"/><stop offset="1" stop-color="#5160a6"/></linearGradient><linearGradient xlink:href="#a" id="o" x1="378.39" x2="427.8" y1="125.43" y2="156.58"/><linearGradient xlink:href="#b" id="q" x1="208.9" x2="224.48" y1="64.11" y2="67.87"/><linearGradient xlink:href="#e" id="r" x1="321.39" x2="307.43" y1="67.99" y2="62.08"/><linearGradient xlink:href="#g" id="s" x1="188.77" x2="175.61" y1="122.03" y2="111.56"/><linearGradient id="i" x1="415.42" x2="403.6" y1="106.32" y2="96.92" gradientUnits="userSpaceOnUse"><stop offset="0" stop-color="#ef9d48"/><stop offset="1" stop-color="#f5c779"/></linearGradient><linearGradient xlink:href="#i" id="t" x1="400.92" x2="359.03" y1="225.91" y2="208.73"/><linearGradient id="u" x1="206.64" x2="192.19" y1="424.22" y2="424.63" gradientUnits="userSpaceOnUse"><stop offset="0" stop-color="#1f759b"/><stop offset="1" stop-color="#4295bb"/></linearGradient><linearGradient id="j" x1="224.43" x2="382.32" y1="309.64" y2="308.02" gradientUnits="userSpaceOnUse"><stop offset="0" stop-color="#4295bb"/><stop offset="1" stop-color="#20769c"/></linearGradient><linearGradient xlink:href="#j" id="v" x1="313.87" x2="313.87" y1="182.18" y2="206.35"/></defs><path fill="url(#k)" d="M0 0h1000v500H0z"/><path fill="url(#a)" d="m200.85 115.51 9.56-62.44c.07-.49.42-.89.9-1.04.47-.15.99 0 1.33.36l42.84 46.49 10.58 37.84-54.02 15.32-11.19-36.52Z"/><path fill="url(#b)" d="M300.27 247.9 255.49 98.94l-.02-.05c3.15 10.47-51.71 26.82-54.63 16.63L244.38 264l27.1-7.96 28.77-8.14Z"/><path fill="#f7dfb7" d="M251.69 288.84c2.65 8.61 12.16 13.15 20.75 10.54l23.54-6.95c6.89-2.1 13.38-10.2 10.68-19.05l-7.48-25.51-54.81 16.1 7.33 24.87Z"/><path fill="url(#l)" d="m282.44 108.01 26.65-58.02c.16-.34.49-.56.86-.56s.71.2.88.53l28.71 57.09-.24 39.29-56.15-.13-.71-38.19Z"/><path fill="url(#e)" d="M340.68 262.33c-.41-61.98-1.05-155.29-1.05-155.29-.02.22-.06.42-.09.63v-.62c-.09 10.32-57.01 13.82-57.1.96l1.02 154.73 57.12-.4z"/><path fill="#f7dfb7" d="M283.64 288.63c.18 9.01 8.08 15.99 17.05 15.84l24.54-.21c7.2-.13 15.67-6.13 15.51-15.38l-.18-26.58-57.12.4.21 25.93Z"/><path fill="url(#n)" d="m138.68 148.49 42.14-44.95c.54-.57 1.35-.79 2.1-.55s1.3.88 1.41 1.66l8.81 61.03-12.68 37.18-53.21-17.93 11.44-36.45Z"/><path fill="url(#g)" d="M193.04 166.25c.11-.33.16-.5.16-.5-3.38 10.38-58.37-5.21-54.45-17.19s-88.1 269.76-88.1 269.76c12.87 14.76 31.66 19.49 54.3 17.73.07-.21.14-.44.21-.65l.29.08 87.58-269.23Z"/><path fill="url(#o)" d="m370.87 137.37 37.45-50.13c.36-.49.97-.72 1.57-.6s1.07.56 1.22 1.15l15.79 60.61-8.46 38.36-54.88-11.9z"/><path fill="url(#q)" d="m210.64 49.95 19.27 21.2c-6.27 5.43-14.06 7.75-23.37 6.97l4.1-28.16Z"/><path fill="url(#r)" d="m309.88 47.67 12.7 25.68c-7.57 4.46-15.77 4.02-24.38.27l11.69-25.95Z"/><path fill="url(#s)" d="m183.84 99.97 3.9 28.38c-8.45.93-16.19-1.56-23.21-7.47z"/><path fill="url(#i)" d="m410.35 84.11 7.03 27.77c-7.97 1.61-15.93 0-23.9-4.84l16.86-22.93Z"/><path fill="url(#t)" d="M426.9 148.39c-1.72 8.29-58.41.17-56.03-11.02l-31.42 151.51 27.66 5.72 28.13 5.82.15.03c2.95-14.22 6.25-30.13 9.57-46.16.4-1.95.81-3.91 1.22-5.86.08-.37.15-.73.23-1.1.4-1.95.81-3.9 1.21-5.85l.66-3.19c.44-2.12.88-4.24 1.32-6.34.22-1.05.44-2.1.65-3.15.65-3.14 1.3-6.25 1.93-9.32 1.27-6.14 2.51-12.11 3.69-17.82.2-.95.39-1.89.59-2.83l10.45-50.44Z"/><path fill="#f7dfb7" d="M334.19 314.23c-1.71 8.85 4.55 17.33 13.35 19.06l24.04 4.94c7.07 1.39 16.61-2.71 18.39-11.79l5.39-26.03-55.94-11.58z"/><path fill="url(#u)" d="m206.65 427.06-2.78-.02c-4.01 0-6.85-2.01-7.87-5.35 1.91 2.37 5.77 4.31 10.65 5.37"/><path fill="url(#j)" d="M433.05 189.58v229.18c0 5.08-4.12 9.2-9.2 9.2h-84.3l-132.9-.9c-4.88-1.06-8.74-3-10.65-5.37-.27-.88-.4-1.86-.4-2.92l-.57-164.13-.14-40.99-.21-24.06h238.38Z"/><path fill="#4295bb" d="M195.59 418.76c0 1.07.14 2.04.4 2.92-.86-1.07-1.32-2.22-1.32-3.41l.35-163.64zM339.56 427.96h-124.2c-3.11 0-6.06-.32-8.7-.9z"/><path fill="url(#v)" d="M431.45 198.93H196.27c-5.06 0-9.2-4.14-9.2-9.2v-.31c0-5.06 4.14-9.2 9.2-9.2h235.18c5.06 0 9.2 4.14 9.2 9.2v.31c0 5.06-4.14 9.2-9.2 9.2"/><path fill="#fff" d="M230.49 314.38c-.08 46.05 37.18 83.44 83.23 83.52 46.04.08 83.44-37.18 83.52-83.23.08-46.04-37.19-83.44-83.23-83.52-46.05-.08-83.44 37.19-83.52 83.23m6.43.01a76.7 76.7 0 0 1 6.72-31.3l36.53 100.62c-25.64-12.5-43.3-38.86-43.25-69.32m76.81 77.08a77.3 77.3 0 0 1-21.74-3.16l23.21-67.04 23.54 64.83c.15.38.34.72.54 1.05a76.4 76.4 0 0 1-25.55 4.32m62.33-78.28c4.41-10.97 5.89-19.74 5.9-27.55 0-2.83-.18-5.46-.52-7.91 5.99 10.98 9.38 23.55 9.36 36.93-.05 28.39-15.47 53.14-38.36 66.43zm-16.56-23.7c2.91 5.13 6.33 11.72 6.31 21.23-.01 6.59-1.99 14.87-5.9 24.87l-7.72 25.62-27.67-82.75c4.64-.24 8.81-.72 8.81-.72 4.15-.49 3.67-6.57-.47-6.35 0 0-12.47.96-20.52.95-7.56-.01-20.26-1.02-20.26-1.02-4.15-.23-4.64 6.1-.51 6.34 0 0 3.93.49 8.08.75l11.92 32.87-16.92 50.46-27.88-83.38c4.64-.24 8.81-.72 8.81-.72 4.15-.49 3.66-6.57-.48-6.35 0 0-12.46.96-20.52.95-1.44 0-3.14-.04-4.95-.1 13.8-20.87 37.47-34.62 64.35-34.58 20.04.03 38.26 7.73 51.92 20.3-.33-.02-.66-.07-.99-.07-7.58-.01-12.94 6.56-12.95 13.63-.01 6.35 3.64 11.72 7.52 18.06"/></svg>