<svg xmlns="http://www.w3.org/2000/svg" width="128" height="128" fill="none"><path fill="#1E1E1E" d="M12 24c0-6.627 5.373-12 12-12h80c6.627 0 12 5.373 12 12v80c0 6.627-5.373 12-12 12H24c-6.627 0-12-5.373-12-12V24Z"/><path fill="#fff" fill-rule="evenodd" d="M34 47.333a6.667 6.667 0 0 1 6.667-6.666h46.666A6.667 6.667 0 0 1 94 47.333v33.334a6.667 6.667 0 0 1-6.667 6.666H40.667A6.667 6.667 0 0 1 34 80.667V47.333Zm6.667-1.666h46.666c.92 0 1.667.746 1.667 1.666v3.126l-25 18.75-25-18.75v-3.126c0-.92.746-1.666 1.667-1.666ZM39 56.708v23.959c0 .92.746 1.666 1.667 1.666h46.666c.92 0 1.667-.746 1.667-1.666V56.708l-25 18.75-25-18.75Z" clip-rule="evenodd"/><path fill="#003DA5" d="M104 48c13.254 0 24-10.746 24-24S117.254 0 104 0 80 10.746 80 24s10.744 24 24 24Z"/><path fill="#fff" d="M114.909 28.727v-3.273h-3.273l3.273 3.273ZM108.727 22.546h6.182v-3.273h-9.454l3.272 3.273ZM102.545 16.364h12.364V13.09H99.273l3.272 3.273ZM93.09 13.09l21.819 21.82h-6.182L97.454 23.635V34.91h-4.363V13.091Z"/></svg>