<svg width="24" height="24" viewBox="0 0 24 24" fill="none" xmlns="http://www.w3.org/2000/svg">
<path d="M4.13132 9.44103C3.78734 8.49178 4.26758 7.4385 5.20098 7.09502L16.2114 3.04332C17.1626 2.69328 18.2089 3.21727 18.5189 4.19894L20.7249 11.1853C20.7622 11.3035 20.786 11.4255 20.7905 11.5496C20.8729 13.8348 19.7958 17.1791 16.4626 18.8049L13.4843 20.0198L8.84373 21.5974C8.69123 21.6492 8.52591 21.5683 8.47018 21.4145L4.13132 9.44103Z" fill="white"/>
<path fill-rule="evenodd" clip-rule="evenodd" d="M19.0822 5.89798L18.5802 4.4037C18.2325 3.37534 17.125 2.83821 16.1234 3.2118L5.48928 7.17956C4.50755 7.54552 3.99815 8.65027 4.34798 9.65535L4.85112 11.0604L19.0822 5.89798Z" fill="#041C1E"/>
<path fill-rule="evenodd" clip-rule="evenodd" d="M13.805 2.02062C13.9672 1.96053 14.1455 2.03616 14.22 2.19054L14.2347 2.22472L14.6253 3.31945L15.8538 2.86144C17.0088 2.43066 18.2837 3.0299 18.7181 4.19347L18.7425 4.26281L20.5521 9.61144C21.9441 13.4928 19.9874 17.7902 16.182 19.2101C16.0082 19.2749 15.8149 19.1842 15.7513 19.007C15.6877 18.8297 15.7777 18.6333 15.9515 18.5685C18.1612 17.7441 19.6829 15.8515 20.1644 13.671C19.4714 14.2168 18.3856 14.52 17.0687 14.4835L16.9866 14.4806L16.9769 14.5001L16.9466 14.5665C16.909 14.6518 16.8651 14.7644 16.8079 14.92L16.4798 15.8321L16.4486 15.9181C16.3098 16.2921 16.1767 16.6259 16.0335 16.9503C15.3602 18.4758 14.5563 19.5854 13.4847 20.2081C13.4568 20.2243 13.4265 20.234 13.3968 20.2413C13.3784 20.2528 13.3592 20.2638 13.3382 20.2716L8.80403 21.963C8.48907 22.077 8.14479 21.9209 8.01301 21.6134L7.99543 21.5704L3.87825 9.74035C3.47518 8.5823 4.04236 7.31194 5.15168 6.85656L5.22004 6.82922L6.38215 6.39465L6.00032 5.32336C5.93704 5.14605 6.02668 4.95043 6.20051 4.88586C6.36281 4.82561 6.54104 4.90124 6.61555 5.05578L6.6302 5.08996L7.01204 6.16027L13.9954 3.55382L13.6048 2.4591C13.5415 2.28176 13.6311 2.08517 13.805 2.02062ZM18.1097 4.48547C17.83 3.65872 16.954 3.21766 16.1448 3.48254L16.0843 3.50304L14.8538 3.96105L15.2396 5.04113C15.3029 5.21843 15.2132 5.41502 15.0394 5.47961C14.8771 5.53983 14.6989 5.46414 14.6243 5.30968L14.6097 5.2755L14.2239 4.1964L7.24055 6.80187L7.63508 7.90636C7.69826 8.08361 7.60862 8.27927 7.43489 8.34386C7.27259 8.40411 7.09436 8.32848 7.01985 8.17394L7.0052 8.13976L6.61164 7.03722L5.45051 7.47082C4.6623 7.76464 4.24316 8.63672 4.4886 9.44738L4.51008 9.51183L8.61457 21.3058L13.1077 19.629C13.1199 19.6245 13.1326 19.6223 13.1448 19.6193C13.1474 19.6177 13.1501 19.6159 13.1527 19.6144C14.0753 19.0783 14.8017 18.0757 15.4222 16.67C15.5592 16.3596 15.6873 16.0379 15.8216 15.6759L15.9495 15.3253L16.1292 14.8224L16.2376 14.5216C16.4782 13.8735 16.566 13.7746 16.8792 13.7921C19.0149 13.9117 20.3567 13.1065 20.3216 11.9982C20.321 11.9797 20.3223 11.9612 20.3245 11.9435C20.3016 11.2788 20.1823 10.6067 19.9573 9.9464L19.9202 9.83996L18.1097 4.48547Z" fill="#041C1E"/>
<path fill-rule="evenodd" clip-rule="evenodd" d="M10.1949 15.1869C10.6214 15.028 11.0935 15.2513 11.2495 15.686C11.4058 16.1211 11.1858 16.603 10.7593 16.7621C10.3331 16.9211 9.86064 16.6978 9.70462 16.2631C9.54863 15.8282 9.76836 15.346 10.1949 15.1869ZM13.9527 13.7846C14.3794 13.6254 14.8514 13.8496 15.0074 14.2846C15.1633 14.7197 14.9444 15.2007 14.5181 15.3598C14.0916 15.5189 13.6195 15.2956 13.4634 14.8608C13.3072 14.4259 13.5263 13.9439 13.9527 13.7846ZM8.96048 11.9067C9.38705 11.7476 9.85888 11.9713 10.0152 12.4057C10.1712 12.8408 9.95217 13.3225 9.52591 13.4819C9.09955 13.6409 8.62736 13.4175 8.47122 12.9828C8.31523 12.5479 8.53398 12.0658 8.96048 11.9067ZM12.645 10.5326C13.0717 10.3736 13.5438 10.5968 13.6997 11.0317C13.8558 11.4669 13.636 11.9488 13.2095 12.1078C12.7831 12.2668 12.3108 12.0427 12.1548 11.6078C11.9989 11.1729 12.2186 10.6917 12.645 10.5326ZM16.3286 9.15765C16.7553 8.99853 17.2273 9.22271 17.3833 9.65765C17.5392 10.0927 17.3195 10.5738 16.8931 10.7328C16.4667 10.8917 15.9944 10.6687 15.8384 10.2338C15.6824 9.79886 15.9022 9.31696 16.3286 9.15765Z" fill="#041C1E"/>
<path d="M9.01498 17.4377C9.01498 19.2138 7.53345 20.6536 5.70562 20.6536C3.87802 20.6536 2.39648 19.2138 2.39648 17.4377C2.39648 15.6617 3.87802 14.2217 5.70562 14.2217C7.53345 14.2217 9.01498 15.6617 9.01498 17.4377Z" fill="#56F58E"/>
<path d="M5.55122 17.4624L4.39404 17.4303L7.01913 15.084L5.87026 17.1809L7.02744 17.213L4.56454 19.7544L5.55122 17.4624Z" fill="#041C1E"/>
</svg>
