<svg width="46" height="47" viewBox="0 0 46 47" fill="none" xmlns="http://www.w3.org/2000/svg">
<path d="M0 10.3376C0 4.89366 4.41319 0.480469 9.85714 0.480469H36.1428C41.5868 0.480469 46 4.89366 46 10.3376V36.6233C46 42.0673 41.5868 46.4805 36.1428 46.4805H9.85714C4.41319 46.4805 0 42.0673 0 36.6233V10.3376Z" fill="#041C1E"/>
<mask id="path-2-outside-1_174_15577" maskUnits="userSpaceOnUse" x="8.03564" y="5.23047" width="30" height="37" fill="black">
<rect fill="white" x="8.03564" y="5.23047" width="30" height="37"/>
<path fill-rule="evenodd" clip-rule="evenodd" d="M24.3747 28.9376C23.2408 29.3976 22.1914 29.6457 21.4285 29.6046C20.4402 29.5496 20.0183 29.1137 20.0167 28.9498C20.016 28.8331 20.3844 28.4674 21.5218 28.3847C21.7002 28.372 21.8884 28.3639 22.0823 28.3639C22.8594 28.3639 23.7244 28.4918 24.3747 28.9376ZM26.4958 38.9597C22.338 40.1065 17.9444 39.0488 15.3008 36.2626C13.4301 34.2912 12.803 31.8241 13.5796 29.4939C15.142 24.8056 22.6298 21.9916 27.4152 21.9916C27.4667 21.9916 27.518 21.9919 27.5687 21.9926C29.3519 22.0155 30.5868 22.4465 30.7915 23.1181C30.9062 23.4939 30.635 24.1518 30.0659 24.8774C29.0616 26.158 27.5358 27.3185 25.9837 28.1697C24.9998 27.0901 23.4214 26.5989 21.4028 26.7443C19.1556 26.9074 18.3635 27.9979 18.3716 28.9641C18.3805 30.0176 19.402 31.1403 21.3371 31.2479C22.5083 31.3118 23.9081 30.951 25.3137 30.336C25.5199 31.1453 25.456 32.2072 25.1186 33.4732C25.0016 33.9119 25.2624 34.363 25.7014 34.48C26.1398 34.597 26.5909 34.3361 26.7081 33.897C27.1668 32.1767 27.2008 30.7338 26.8116 29.5875C28.6468 28.5576 30.3432 27.1896 31.3603 25.8928C32.3148 24.6757 32.6528 23.5807 32.3653 22.6378C32.1565 21.9533 31.6648 21.4103 30.924 21.0252C30.9805 14.8435 32.0763 10.5737 33.0628 10.5678H33.0689C33.2138 10.5678 33.4099 10.6003 33.6502 10.839C34.4517 11.6357 35.4067 14.2511 35.4067 22.1872C35.4067 30.0178 34.7364 36.6848 26.4958 38.9597ZM18.6469 20.6959C18.6458 20.6753 18.6484 20.655 18.6458 20.6342C18.6423 20.6045 18.6387 20.5731 18.6349 20.5426C18.5167 18.8546 18.7192 17.5244 19.234 16.8109C19.4897 16.4567 19.8104 16.2669 20.2435 16.2137C20.8474 16.1408 21.3386 16.2966 21.7511 16.6929C22.5501 17.4609 23.0164 19.1215 22.972 20.9382C21.6022 21.2761 20.1996 21.7575 18.8671 22.377C18.762 21.7874 18.6895 21.2257 18.6469 20.6959ZM25.7333 17.8296C26.0362 17.5001 26.4226 17.3397 26.9156 17.3397C27.6991 17.3397 28.0396 17.596 28.2279 17.7888C28.678 18.2498 28.9205 19.1439 28.9538 20.446C28.5323 20.3877 28.0779 20.3537 27.5898 20.3476C27.5342 20.3468 27.4789 20.3466 27.4228 20.3466C26.6802 20.3466 25.8708 20.411 25.0259 20.5338C24.9894 19.3406 25.2388 18.3683 25.7333 17.8296ZM34.8103 9.67199C34.3168 9.1813 33.7145 8.92225 33.0675 8.92225H33.053C30.8855 8.93519 30.1378 12.1691 29.7635 14.6005C29.6539 15.314 29.5692 16.0422 29.5032 16.747C29.471 16.711 29.4393 16.6737 29.4055 16.6392C28.7936 16.0122 27.9558 15.6943 26.9158 15.6943C25.9636 15.6943 25.1357 16.0475 24.5217 16.7163C24.3466 16.9071 24.1961 17.1281 24.0602 17.3651C23.7889 16.6513 23.4096 16.0051 22.8913 15.5066C22.121 14.7665 21.1368 14.446 20.0427 14.5805C19.1611 14.6888 18.4199 15.1267 17.8996 15.8478C17.8975 15.8511 17.8958 15.8547 17.8935 15.8575C16.992 11.3615 15.2781 5.93265 12.2878 6.24321C11.552 6.32059 10.9017 6.71665 10.4077 7.388C8.10086 10.524 9.18323 19.8492 10.1862 24.8648C10.2646 25.2558 10.6079 25.5265 10.992 25.5265C11.0455 25.5265 11.0998 25.5212 11.1544 25.5103C11.5997 25.4212 11.8887 24.9879 11.7996 24.5423C10.12 16.1442 10.4947 10.0462 11.7331 8.36305C12.0241 7.96749 12.2873 7.89747 12.46 7.87945C14.1107 7.70768 16.1443 13.4753 17.0027 20.7548C17.0714 21.6562 17.2079 22.5004 17.3396 23.1565C17.3401 23.1595 17.3416 23.1623 17.3421 23.1654C14.8701 24.5903 12.8302 26.5386 12.0188 28.9736C11.0435 31.8987 11.8049 34.9685 14.1074 37.3951C16.3554 39.7638 19.6721 41.059 23.1536 41.059C24.4062 41.0588 25.6807 40.8911 26.9335 40.5453C36.2783 37.9659 37.0522 30.3896 37.0522 22.187C37.0522 15.1691 36.3397 11.1925 34.8103 9.67199Z"/>
</mask>
<path fill-rule="evenodd" clip-rule="evenodd" d="M24.3747 28.9376C23.2408 29.3976 22.1914 29.6457 21.4285 29.6046C20.4402 29.5496 20.0183 29.1137 20.0167 28.9498C20.016 28.8331 20.3844 28.4674 21.5218 28.3847C21.7002 28.372 21.8884 28.3639 22.0823 28.3639C22.8594 28.3639 23.7244 28.4918 24.3747 28.9376ZM26.4958 38.9597C22.338 40.1065 17.9444 39.0488 15.3008 36.2626C13.4301 34.2912 12.803 31.8241 13.5796 29.4939C15.142 24.8056 22.6298 21.9916 27.4152 21.9916C27.4667 21.9916 27.518 21.9919 27.5687 21.9926C29.3519 22.0155 30.5868 22.4465 30.7915 23.1181C30.9062 23.4939 30.635 24.1518 30.0659 24.8774C29.0616 26.158 27.5358 27.3185 25.9837 28.1697C24.9998 27.0901 23.4214 26.5989 21.4028 26.7443C19.1556 26.9074 18.3635 27.9979 18.3716 28.9641C18.3805 30.0176 19.402 31.1403 21.3371 31.2479C22.5083 31.3118 23.9081 30.951 25.3137 30.336C25.5199 31.1453 25.456 32.2072 25.1186 33.4732C25.0016 33.9119 25.2624 34.363 25.7014 34.48C26.1398 34.597 26.5909 34.3361 26.7081 33.897C27.1668 32.1767 27.2008 30.7338 26.8116 29.5875C28.6468 28.5576 30.3432 27.1896 31.3603 25.8928C32.3148 24.6757 32.6528 23.5807 32.3653 22.6378C32.1565 21.9533 31.6648 21.4103 30.924 21.0252C30.9805 14.8435 32.0763 10.5737 33.0628 10.5678H33.0689C33.2138 10.5678 33.4099 10.6003 33.6502 10.839C34.4517 11.6357 35.4067 14.2511 35.4067 22.1872C35.4067 30.0178 34.7364 36.6848 26.4958 38.9597ZM18.6469 20.6959C18.6458 20.6753 18.6484 20.655 18.6458 20.6342C18.6423 20.6045 18.6387 20.5731 18.6349 20.5426C18.5167 18.8546 18.7192 17.5244 19.234 16.8109C19.4897 16.4567 19.8104 16.2669 20.2435 16.2137C20.8474 16.1408 21.3386 16.2966 21.7511 16.6929C22.5501 17.4609 23.0164 19.1215 22.972 20.9382C21.6022 21.2761 20.1996 21.7575 18.8671 22.377C18.762 21.7874 18.6895 21.2257 18.6469 20.6959ZM25.7333 17.8296C26.0362 17.5001 26.4226 17.3397 26.9156 17.3397C27.6991 17.3397 28.0396 17.596 28.2279 17.7888C28.678 18.2498 28.9205 19.1439 28.9538 20.446C28.5323 20.3877 28.0779 20.3537 27.5898 20.3476C27.5342 20.3468 27.4789 20.3466 27.4228 20.3466C26.6802 20.3466 25.8708 20.411 25.0259 20.5338C24.9894 19.3406 25.2388 18.3683 25.7333 17.8296ZM34.8103 9.67199C34.3168 9.1813 33.7145 8.92225 33.0675 8.92225H33.053C30.8855 8.93519 30.1378 12.1691 29.7635 14.6005C29.6539 15.314 29.5692 16.0422 29.5032 16.747C29.471 16.711 29.4393 16.6737 29.4055 16.6392C28.7936 16.0122 27.9558 15.6943 26.9158 15.6943C25.9636 15.6943 25.1357 16.0475 24.5217 16.7163C24.3466 16.9071 24.1961 17.1281 24.0602 17.3651C23.7889 16.6513 23.4096 16.0051 22.8913 15.5066C22.121 14.7665 21.1368 14.446 20.0427 14.5805C19.1611 14.6888 18.4199 15.1267 17.8996 15.8478C17.8975 15.8511 17.8958 15.8547 17.8935 15.8575C16.992 11.3615 15.2781 5.93265 12.2878 6.24321C11.552 6.32059 10.9017 6.71665 10.4077 7.388C8.10086 10.524 9.18323 19.8492 10.1862 24.8648C10.2646 25.2558 10.6079 25.5265 10.992 25.5265C11.0455 25.5265 11.0998 25.5212 11.1544 25.5103C11.5997 25.4212 11.8887 24.9879 11.7996 24.5423C10.12 16.1442 10.4947 10.0462 11.7331 8.36305C12.0241 7.96749 12.2873 7.89747 12.46 7.87945C14.1107 7.70768 16.1443 13.4753 17.0027 20.7548C17.0714 21.6562 17.2079 22.5004 17.3396 23.1565C17.3401 23.1595 17.3416 23.1623 17.3421 23.1654C14.8701 24.5903 12.8302 26.5386 12.0188 28.9736C11.0435 31.8987 11.8049 34.9685 14.1074 37.3951C16.3554 39.7638 19.6721 41.059 23.1536 41.059C24.4062 41.0588 25.6807 40.8911 26.9335 40.5453C36.2783 37.9659 37.0522 30.3896 37.0522 22.187C37.0522 15.1691 36.3397 11.1925 34.8103 9.67199Z" fill="#FFFDF7"/>
<path d="M21.4285 29.6046L21.4145 29.8542L21.415 29.8543L21.4285 29.6046ZM20.0167 28.9498L19.7668 28.9514L19.7668 28.9521L20.0167 28.9498ZM21.5218 28.3847L21.5041 28.1354L21.5037 28.1354L21.5218 28.3847ZM15.3008 36.2626L15.4822 36.0906L15.4822 36.0906L15.3008 36.2626ZM13.5796 29.4939L13.8168 29.5729L13.8168 29.5729L13.5796 29.4939ZM27.5687 21.9926L27.565 22.2426L27.5655 22.2426L27.5687 21.9926ZM30.7915 23.1181L30.5524 23.191L30.5524 23.1911L30.7915 23.1181ZM30.0659 24.8774L29.8691 24.7231L29.8691 24.7232L30.0659 24.8774ZM25.9837 28.1697L25.799 28.3381L25.9315 28.4835L26.104 28.3889L25.9837 28.1697ZM21.4028 26.7443L21.3849 26.4949L21.3847 26.495L21.4028 26.7443ZM18.3716 28.9641L18.1216 28.9662V28.9662L18.3716 28.9641ZM21.3371 31.2479L21.3232 31.4975L21.3235 31.4975L21.3371 31.2479ZM25.3137 30.336L25.5559 30.2742L25.4832 29.9889L25.2135 30.1069L25.3137 30.336ZM25.1186 33.4732L25.3601 33.5376L25.3601 33.5376L25.1186 33.4732ZM25.7014 34.48L25.7658 34.2384L25.7657 34.2384L25.7014 34.48ZM26.7081 33.897L26.9497 33.9614L26.9497 33.9614L26.7081 33.897ZM26.8116 29.5875L26.6893 29.3695L26.5081 29.4712L26.5749 29.6679L26.8116 29.5875ZM31.3603 25.8928L31.5571 26.0471L31.5571 26.0471L31.3603 25.8928ZM32.3653 22.6378L32.6045 22.5649L32.6045 22.5649L32.3653 22.6378ZM30.924 21.0252L30.674 21.0229L30.6726 21.1763L30.8086 21.247L30.924 21.0252ZM33.0628 10.5678V10.3178L33.0613 10.3178L33.0628 10.5678ZM33.6502 10.839L33.8264 10.6617L33.8264 10.6617L33.6502 10.839ZM18.6458 20.6342L18.3976 20.6639L18.3977 20.6645L18.6458 20.6342ZM18.6349 20.5426L18.3852 20.5601L18.3869 20.5736L18.6349 20.5426ZM19.234 16.8109L19.0313 16.6646L19.0312 16.6646L19.234 16.8109ZM20.2435 16.2137L20.2136 15.9654L20.213 15.9655L20.2435 16.2137ZM21.7511 16.6929L21.9244 16.5127L21.9243 16.5126L21.7511 16.6929ZM22.972 20.9382L23.0319 21.1809L23.2173 21.1352L23.222 20.9443L22.972 20.9382ZM18.8671 22.377L18.621 22.4209L18.6779 22.7407L18.9725 22.6037L18.8671 22.377ZM28.2279 17.7888L28.049 17.9634L28.049 17.9634L28.2279 17.7888ZM28.9538 20.446L28.9195 20.6937L29.2112 20.734L29.2037 20.4396L28.9538 20.446ZM27.5898 20.3476L27.5863 20.5975L27.5866 20.5976L27.5898 20.3476ZM25.0259 20.5338L24.776 20.5415L24.7846 20.8215L25.0619 20.7812L25.0259 20.5338ZM33.053 8.92225V8.67224L33.0515 8.67225L33.053 8.92225ZM29.7635 14.6005L29.5165 14.5625L29.5164 14.5626L29.7635 14.6005ZM29.5032 16.747L29.3169 16.9137L29.6988 17.3406L29.7521 16.7703L29.5032 16.747ZM29.4055 16.6392L29.2266 16.8138L29.2268 16.814L29.4055 16.6392ZM24.5217 16.7163L24.3375 16.5472L24.3375 16.5473L24.5217 16.7163ZM24.0602 17.3651L23.8265 17.4539L24.0141 17.9476L24.277 17.4895L24.0602 17.3651ZM22.8913 15.5066L23.0646 15.3264L23.0645 15.3263L22.8913 15.5066ZM20.0427 14.5805L20.0732 14.8286L20.0732 14.8286L20.0427 14.5805ZM17.8996 15.8478L17.6968 15.7015L17.6915 15.709L17.6866 15.7168L17.8996 15.8478ZM17.8935 15.8575L17.6483 15.9066L17.7523 16.4248L18.087 16.0158L17.8935 15.8575ZM12.2878 6.24321L12.2619 5.99454L12.2616 5.99458L12.2878 6.24321ZM10.4077 7.388L10.2063 7.23983L10.2063 7.23986L10.4077 7.388ZM10.1862 24.8648L9.94104 24.9138L9.94107 24.914L10.1862 24.8648ZM11.1544 25.5103L11.1054 25.2651L11.1544 25.5103ZM11.7996 24.5423L12.0448 24.4933L12.0447 24.4933L11.7996 24.5423ZM11.7331 8.36305L11.9345 8.5112L11.9345 8.5112L11.7331 8.36305ZM12.46 7.87945L12.4342 7.6308L12.4341 7.6308L12.46 7.87945ZM17.0027 20.7548L17.2521 20.7357L17.2509 20.7255L17.0027 20.7548ZM17.3396 23.1565L17.5863 23.1154L17.5847 23.1073L17.3396 23.1565ZM17.3421 23.1654L17.467 23.382L17.6172 23.2954L17.5887 23.1243L17.3421 23.1654ZM12.0188 28.9736L12.256 29.0526L12.256 29.0526L12.0188 28.9736ZM14.1074 37.3951L13.9261 37.5671L13.9261 37.5672L14.1074 37.3951ZM23.1536 41.059V41.309H23.1537L23.1536 41.059ZM26.9335 40.5453L26.867 40.3043V40.3043L26.9335 40.5453ZM24.3747 28.9376L24.2807 28.7059C23.1596 29.1607 22.1506 29.3932 21.4419 29.355L21.4285 29.6046L21.415 29.8543C22.2322 29.8983 23.322 29.6344 24.4686 29.1692L24.3747 28.9376ZM21.4285 29.6046L21.4424 29.355C20.9824 29.3294 20.6701 29.216 20.4804 29.1031C20.3848 29.0463 20.3236 28.9916 20.2893 28.9513C20.2462 28.9008 20.2663 28.8995 20.2667 28.9474L20.0167 28.9498L19.7668 28.9521C19.768 29.082 19.8413 29.1966 19.9087 29.2757C19.9849 29.365 20.0911 29.4534 20.2248 29.5329C20.4934 29.6927 20.8863 29.8248 21.4145 29.8542L21.4285 29.6046ZM20.0167 28.9498L20.2667 28.9481C20.2669 28.9732 20.2622 28.9917 20.259 29.0017C20.2556 29.0122 20.2523 29.0182 20.2515 29.0197C20.25 29.0222 20.2536 29.0154 20.268 29.001C20.2968 28.9724 20.3544 28.9277 20.4537 28.8784C20.6514 28.7802 20.9942 28.6738 21.54 28.6341L21.5218 28.3847L21.5037 28.1354C20.912 28.1784 20.5019 28.2961 20.2312 28.4306C20.0963 28.4976 19.9909 28.5714 19.9152 28.6467C19.8775 28.6843 19.8435 28.7259 19.8176 28.7711C19.7938 28.8127 19.7663 28.8757 19.7668 28.9514L20.0167 28.9498ZM21.5218 28.3847L21.5396 28.6341C21.7131 28.6218 21.8954 28.6139 22.0823 28.6139V28.3639V28.1139C21.8815 28.1139 21.6873 28.1223 21.5041 28.1354L21.5218 28.3847ZM22.0823 28.3639V28.6139C22.8413 28.6139 23.6451 28.7405 24.2333 29.1438L24.3747 28.9376L24.516 28.7314C23.8037 28.2431 22.8776 28.1139 22.0823 28.1139V28.3639ZM26.4958 38.9597L26.4293 38.7187C22.3471 39.8447 18.0531 38.8002 15.4822 36.0906L15.3008 36.2626L15.1195 36.4347C17.8356 39.2974 22.329 40.3684 26.5622 39.2007L26.4958 38.9597ZM15.3008 36.2626L15.4822 36.0906C13.6668 34.1774 13.0729 31.8046 13.8168 29.5729L13.5796 29.4939L13.3424 29.4148C12.533 31.8435 13.1935 34.4051 15.1195 36.4347L15.3008 36.2626ZM13.5796 29.4939L13.8168 29.5729C14.5664 27.3237 16.7555 25.488 19.3977 24.2097C22.0326 22.9349 25.0639 22.2416 27.4152 22.2416V21.9916V21.7416C24.9811 21.7416 21.8758 22.4553 19.1799 23.7596C16.4912 25.0604 14.1552 26.9758 13.3424 29.4148L13.5796 29.4939ZM27.4152 21.9916V22.2416C27.466 22.2416 27.5159 22.2419 27.565 22.2426L27.5687 21.9926L27.5725 21.7426C27.5201 21.7419 27.4675 21.7416 27.4152 21.7416V21.9916ZM27.5687 21.9926L27.5655 22.2426C28.4408 22.2538 29.1663 22.3654 29.6896 22.5481C30.2278 22.736 30.4864 22.9746 30.5524 23.191L30.7915 23.1181L31.0306 23.0452C30.8919 22.5901 30.4307 22.2773 29.8544 22.0761C29.2633 21.8696 28.4798 21.7543 27.5719 21.7426L27.5687 21.9926ZM30.7915 23.1181L30.5524 23.1911C30.5843 23.2955 30.5712 23.487 30.454 23.7713C30.3405 24.0464 30.1442 24.3725 29.8691 24.7231L30.0659 24.8774L30.2626 25.0317C30.5567 24.6567 30.7805 24.2911 30.9162 23.9619C31.0482 23.6419 31.1134 23.3165 31.0306 23.0451L30.7915 23.1181ZM30.0659 24.8774L29.8691 24.7232C28.8921 25.9691 27.3964 27.1098 25.8635 27.9505L25.9837 28.1697L26.104 28.3889C27.6751 27.5272 29.2312 26.3469 30.2626 25.0317L30.0659 24.8774ZM25.9837 28.1697L26.1685 28.0013C25.1151 26.8454 23.4487 26.3463 21.3849 26.4949L21.4028 26.7443L21.4208 26.9937C23.3942 26.8515 24.8846 27.3348 25.799 28.3381L25.9837 28.1697ZM21.4028 26.7443L21.3847 26.495C20.2253 26.5791 19.4083 26.9048 18.8778 27.3641C18.344 27.8262 18.117 28.4105 18.1216 28.9662L18.3716 28.9641L18.6216 28.962C18.6182 28.5516 18.7831 28.1075 19.2051 27.7421C19.6305 27.3738 20.3331 27.0726 21.4209 26.9936L21.4028 26.7443ZM18.3716 28.9641L18.1216 28.9662C18.132 30.1955 19.3054 31.3853 21.3232 31.4975L21.3371 31.2479L21.351 30.9982C19.4986 30.8953 18.629 29.8396 18.6216 28.962L18.3716 28.9641ZM21.3371 31.2479L21.3235 31.4975C22.5499 31.5644 23.9911 31.1875 25.4139 30.565L25.3137 30.336L25.2135 30.1069C23.825 30.7145 22.4666 31.0591 21.3507 30.9982L21.3371 31.2479ZM25.3137 30.336L25.0714 30.3977C25.2629 31.149 25.209 32.1634 24.877 33.4089L25.1186 33.4732L25.3601 33.5376C25.7031 32.251 25.777 31.1417 25.5559 30.2742L25.3137 30.336ZM25.1186 33.4732L24.877 33.4088C24.7245 33.9808 25.0645 34.569 25.637 34.7216L25.7014 34.48L25.7657 34.2384C25.4604 34.1571 25.2787 33.8431 25.3601 33.5376L25.1186 33.4732ZM25.7014 34.48L25.6369 34.7216C26.2088 34.8741 26.7969 34.534 26.9497 33.9614L26.7081 33.897L26.4666 33.8325C26.385 34.1383 26.0708 34.3198 25.7658 34.2384L25.7014 34.48ZM26.7081 33.897L26.9497 33.9614C27.4155 32.2145 27.4592 30.7173 27.0484 29.5071L26.8116 29.5875L26.5749 29.6679C26.9425 30.7504 26.9182 32.1389 26.4666 33.8325L26.7081 33.897ZM26.8116 29.5875L26.934 29.8055C28.7893 28.7644 30.5142 27.3766 31.5571 26.0471L31.3603 25.8928L31.1636 25.7385C30.1722 27.0026 28.5044 28.3509 26.6893 29.3695L26.8116 29.5875ZM31.3603 25.8928L31.5571 26.0471C32.5324 24.8034 32.9269 23.6225 32.6045 22.5649L32.3653 22.6378L32.1262 22.7107C32.3787 23.5388 32.0973 24.5481 31.1636 25.7385L31.3603 25.8928ZM32.3653 22.6378L32.6045 22.5649C32.3723 21.8038 31.8272 21.213 31.0393 20.8034L30.924 21.0252L30.8086 21.247C31.5024 21.6077 31.9408 22.1028 32.1262 22.7108L32.3653 22.6378ZM30.924 21.0252L31.1739 21.0275C31.2021 17.949 31.4891 15.354 31.8889 13.5342C32.0891 12.6224 32.3152 11.9167 32.5452 11.4444C32.6605 11.2075 32.771 11.0417 32.8702 10.9386C32.9709 10.8339 33.0357 10.818 33.0643 10.8178L33.0628 10.5678L33.0613 10.3178C32.8434 10.3191 32.6581 10.4379 32.5098 10.592C32.3601 10.7476 32.2226 10.9647 32.0956 11.2255C31.8409 11.7486 31.6046 12.4978 31.4005 13.4269C30.9915 15.2889 30.7024 17.9197 30.674 21.0229L30.924 21.0252ZM33.0628 10.5678V10.8178H33.0689V10.5678V10.3178H33.0628V10.5678ZM33.0689 10.5678V10.8178C33.1205 10.8178 33.1728 10.8233 33.2328 10.8468C33.2935 10.8705 33.3744 10.9175 33.474 11.0164L33.6502 10.839L33.8264 10.6617C33.6857 10.5219 33.5484 10.4332 33.4147 10.381C33.2803 10.3285 33.1622 10.3178 33.0689 10.3178V10.5678ZM33.6502 10.839L33.4739 11.0164C33.8198 11.3601 34.2471 12.151 34.5836 13.8835C34.9182 15.6069 35.1567 18.227 35.1567 22.1872H35.4067H35.6567C35.6567 18.2113 35.4176 15.5557 35.0744 13.7882C34.733 12.0298 34.2821 11.1146 33.8264 10.6617L33.6502 10.839ZM35.4067 22.1872H35.1567C35.1567 26.1055 34.9868 29.6834 33.81 32.5623C32.6428 35.4178 30.4777 37.6011 26.4292 38.7187L26.4958 38.9597L26.5623 39.2007C30.7544 38.0434 33.0448 35.7558 34.2729 32.7515C35.4914 29.7704 35.6567 26.0995 35.6567 22.1872H35.4067ZM18.6469 20.6959L18.8965 20.6836C18.8966 20.6854 18.8966 20.6857 18.8966 20.6832C18.8967 20.6791 18.8967 20.6783 18.8969 20.6698C18.8971 20.6578 18.8975 20.6328 18.894 20.604L18.6458 20.6342L18.3977 20.6645C18.3967 20.6565 18.3971 20.652 18.397 20.6605C18.3969 20.6626 18.3969 20.6643 18.3968 20.6675C18.3968 20.6703 18.3967 20.6739 18.3966 20.6778C18.3966 20.6855 18.3966 20.6961 18.3972 20.7082L18.6469 20.6959ZM18.6458 20.6342L18.8941 20.6045C18.8908 20.5774 18.8869 20.5427 18.883 20.5116L18.6349 20.5426L18.3869 20.5736C18.3906 20.6035 18.3938 20.6317 18.3976 20.6639L18.6458 20.6342ZM18.6349 20.5426L18.8843 20.5252C18.8261 19.6944 18.8475 18.9596 18.944 18.3504C19.0409 17.7381 19.211 17.27 19.4367 16.9572L19.234 16.8109L19.0312 16.6646C18.7421 17.0653 18.5536 17.619 18.4501 18.2722C18.3462 18.9285 18.3255 19.7028 18.3855 20.5601L18.6349 20.5426ZM19.234 16.8109L19.4366 16.9573C19.6517 16.6594 19.9101 16.5066 20.274 16.4618L20.2435 16.2137L20.213 15.9655C19.7107 16.0273 19.3277 16.2541 19.0313 16.6646L19.234 16.8109ZM20.2435 16.2137L20.2734 16.4619C20.8084 16.3973 21.2234 16.5326 21.5779 16.8732L21.7511 16.6929L21.9243 16.5126C21.4537 16.0606 20.8863 15.8843 20.2136 15.9654L20.2435 16.2137ZM21.7511 16.6929L21.5779 16.8732C21.9337 17.2152 22.2332 17.776 22.4375 18.491C22.6406 19.202 22.7438 20.0458 22.7221 20.9321L22.972 20.9382L23.222 20.9443C23.2447 20.014 23.1369 19.1191 22.9182 18.3536C22.7007 17.5922 22.3675 16.9387 21.9244 16.5127L21.7511 16.6929ZM22.972 20.9382L22.9121 20.6955C21.5277 21.037 20.1098 21.5235 18.7617 22.1503L18.8671 22.377L18.9725 22.6037C20.2895 21.9914 21.6767 21.5153 23.0319 21.1809L22.972 20.9382ZM18.8671 22.377L19.1132 22.3332C19.0095 21.7509 18.938 21.1971 18.896 20.6758L18.6469 20.6959L18.3977 20.7159C18.441 21.2542 18.5146 21.8239 18.621 22.4209L18.8671 22.377ZM25.7333 17.8296L25.9173 17.9988C26.1679 17.7262 26.4848 17.5897 26.9156 17.5897V17.3397V17.0897C26.3604 17.0897 25.9045 17.2739 25.5492 17.6605L25.7333 17.8296ZM26.9156 17.3397V17.5897C27.2798 17.5897 27.5265 17.6492 27.6968 17.7219C27.8654 17.7938 27.9712 17.8838 28.049 17.9634L28.2279 17.7888L28.4067 17.6142C28.2962 17.501 28.1376 17.3664 27.8931 17.262C27.6503 17.1584 27.3349 17.0897 26.9156 17.0897V17.3397ZM28.2279 17.7888L28.049 17.9634C28.4274 18.3511 28.6708 19.1577 28.7038 20.4524L28.9538 20.446L29.2037 20.4396C29.1702 19.1301 28.9285 18.1485 28.4067 17.6141L28.2279 17.7888ZM28.9538 20.446L28.988 20.1984C28.5555 20.1385 28.0907 20.1038 27.5929 20.0976L27.5898 20.3476L27.5866 20.5976C28.0652 20.6035 28.5091 20.6368 28.9195 20.6937L28.9538 20.446ZM27.5898 20.3476L27.5932 20.0976C27.5361 20.0968 27.4796 20.0966 27.4228 20.0966V20.3466V20.5966C27.4781 20.5966 27.5323 20.5968 27.5863 20.5975L27.5898 20.3476ZM27.4228 20.3466V20.0966C26.6662 20.0966 25.8446 20.1622 24.9899 20.2864L25.0259 20.5338L25.0619 20.7812C25.897 20.6598 26.6942 20.5966 27.4228 20.5966V20.3466ZM25.0259 20.5338L25.2758 20.5262C25.24 19.3572 25.4886 18.4658 25.9174 17.9987L25.7333 17.8296L25.5491 17.6606C24.9889 18.2708 24.7387 19.3239 24.776 20.5415L25.0259 20.5338ZM34.8103 9.67199L34.9866 9.49471C34.4501 8.96131 33.7858 8.67225 33.0675 8.67225V8.92225V9.17225C33.6431 9.17225 34.1835 9.40128 34.634 9.84927L34.8103 9.67199ZM33.0675 8.92225V8.67225H33.053V8.92225V9.17225H33.0675V8.92225ZM33.053 8.92225L33.0515 8.67225C31.8157 8.67963 31.0242 9.61191 30.5081 10.7513C29.9883 11.8988 29.7039 13.3444 29.5165 14.5625L29.7635 14.6005L30.0106 14.6386C30.1974 13.4252 30.474 12.0382 30.9635 10.9576C31.4567 9.86896 32.1228 9.1778 33.0545 9.17224L33.053 8.92225ZM29.7635 14.6005L29.5164 14.5626C29.4059 15.282 29.3206 16.0152 29.2543 16.7237L29.5032 16.747L29.7521 16.7703C29.8178 16.0692 29.9019 15.346 30.0106 14.6385L29.7635 14.6005ZM29.5032 16.747L29.6896 16.5803C29.663 16.5506 29.6232 16.5042 29.5843 16.4644L29.4055 16.6392L29.2268 16.814C29.2554 16.8432 29.279 16.8713 29.3169 16.9137L29.5032 16.747ZM29.4055 16.6392L29.5844 16.4645C28.9167 15.7805 28.0095 15.4443 26.9158 15.4443V15.6943V15.9443C27.902 15.9443 28.6704 16.244 29.2266 16.8138L29.4055 16.6392ZM26.9158 15.6943V15.4443C25.8975 15.4443 25.0015 15.824 24.3375 16.5472L24.5217 16.7163L24.7058 16.8854C25.2699 16.271 26.0297 15.9443 26.9158 15.9443V15.6943ZM24.5217 16.7163L24.3375 16.5473C24.1461 16.7559 23.9852 16.9935 23.8433 17.2406L24.0602 17.3651L24.277 17.4895C24.4071 17.2627 24.5472 17.0583 24.7059 16.8853L24.5217 16.7163ZM24.0602 17.3651L24.2938 17.2763C24.0134 16.5383 23.6165 15.8573 23.0646 15.3264L22.8913 15.5066L22.718 15.6867C23.2027 16.153 23.5644 16.7643 23.8265 17.4539L24.0602 17.3651ZM22.8913 15.5066L23.0645 15.3263C22.2381 14.5323 21.1783 14.189 20.0122 14.3323L20.0427 14.5805L20.0732 14.8286C21.0953 14.703 22.0039 15.0006 22.7181 15.6868L22.8913 15.5066ZM20.0427 14.5805L20.0122 14.3323C19.0615 14.4492 18.258 14.924 17.6968 15.7015L17.8996 15.8478L18.1023 15.9941C18.5819 15.3295 19.2606 14.9285 20.0732 14.8286L20.0427 14.5805ZM17.8996 15.8478L17.6866 15.7168C17.6843 15.7206 17.6825 15.7238 17.6818 15.7249C17.6807 15.7268 17.6814 15.7257 17.6819 15.7248C17.6826 15.7236 17.6845 15.7204 17.6872 15.7163C17.69 15.7122 17.6943 15.7061 17.7 15.6991L17.8935 15.8575L18.087 16.0158C18.1 15.9999 18.1085 15.9857 18.1114 15.9808C18.1122 15.9793 18.113 15.9781 18.1134 15.9773C18.1137 15.9769 18.1139 15.9765 18.114 15.9763C18.1142 15.976 18.1142 15.9759 18.1143 15.9758C18.1147 15.9752 18.1138 15.9767 18.1125 15.9788L17.8996 15.8478ZM17.8935 15.8575L18.1386 15.8083C17.6867 13.5544 17.0279 11.0481 16.0987 9.13851C15.6344 8.18423 15.0947 7.36222 14.4656 6.79632C13.8319 6.22619 13.0967 5.90785 12.2619 5.99454L12.2878 6.24321L12.3136 6.49187C12.974 6.42329 13.5744 6.6671 14.1312 7.16803C14.6928 7.6732 15.1985 8.43118 15.6491 9.35728C16.5499 11.2085 17.1988 13.6645 17.6483 15.9066L17.8935 15.8575ZM12.2878 6.24321L12.2616 5.99458C11.4466 6.08029 10.7361 6.51981 10.2063 7.23983L10.4077 7.388L10.6091 7.53616C11.0672 6.91349 11.6573 6.56089 12.3139 6.49184L12.2878 6.24321ZM10.4077 7.388L10.2063 7.23986C9.59356 8.07285 9.22093 9.29186 9.01156 10.6997C8.80132 12.1134 8.75182 13.746 8.8059 15.4296C8.91406 18.7972 9.43766 22.3965 9.94104 24.9138L10.1862 24.8648L10.4313 24.8158C9.93176 22.3175 9.41269 18.7465 9.30564 15.4135C9.25211 13.7469 9.30186 12.1467 9.50612 10.7732C9.71127 9.39378 10.0684 8.27114 10.6091 7.53613L10.4077 7.388ZM10.1862 24.8648L9.94107 24.914C10.0433 25.4237 10.4908 25.7765 10.992 25.7765V25.5265V25.2765C10.7249 25.2765 10.4859 25.0878 10.4313 24.8157L10.1862 24.8648ZM10.992 25.5265V25.7765C11.0622 25.7765 11.1329 25.7695 11.2034 25.7554L11.1544 25.5103L11.1054 25.2651C11.0668 25.2728 11.0289 25.2765 10.992 25.2765V25.5265ZM11.1544 25.5103L11.2034 25.7554C11.7841 25.6393 12.1609 25.0742 12.0448 24.4933L11.7996 24.5423L11.5545 24.5913C11.6165 24.9015 11.4152 25.2031 11.1054 25.2651L11.1544 25.5103ZM11.7996 24.5423L12.0447 24.4933C11.2077 20.308 10.8838 16.7019 10.9221 13.938C10.9412 12.5558 11.0508 11.3889 11.2302 10.468C11.411 9.54025 11.6579 8.88717 11.9345 8.5112L11.7331 8.36305L11.5318 8.21489C11.1892 8.68052 10.9248 9.42087 10.7395 10.3724C10.5528 11.3306 10.4415 12.5287 10.4221 13.9311C10.3833 16.7366 10.7119 20.3784 11.5545 24.5914L11.7996 24.5423ZM11.7331 8.36305L11.9345 8.5112C12.0626 8.3371 12.1754 8.24683 12.2629 8.19787C12.3491 8.14968 12.4229 8.13468 12.486 8.12811L12.46 7.87945L12.4341 7.6308C12.3244 7.64224 12.1802 7.67126 12.0189 7.76147C11.8589 7.85092 11.6947 7.99344 11.5318 8.21489L11.7331 8.36305ZM12.46 7.87945L12.4859 8.12811C12.613 8.11489 12.7651 8.15563 12.9476 8.28746C13.1314 8.42027 13.3308 8.63517 13.5399 8.93734C13.9579 9.54132 14.3849 10.45 14.7927 11.6061C15.607 13.9144 16.3267 17.1571 16.7544 20.7841L17.0027 20.7548L17.2509 20.7255C16.8203 17.0729 16.094 13.7921 15.2642 11.4397C14.85 10.2654 14.4055 9.30943 13.9511 8.65281C13.724 8.32468 13.487 8.0603 13.2403 7.88214C12.9923 7.703 12.7197 7.60108 12.4342 7.6308L12.46 7.87945ZM17.0027 20.7548L16.7534 20.7738C16.8231 21.6878 16.9613 22.5423 17.0945 23.2057L17.3396 23.1565L17.5847 23.1073C17.4545 22.4585 17.3197 21.6247 17.2519 20.7358L17.0027 20.7548ZM17.3396 23.1565L17.093 23.1976C17.0954 23.212 17.0986 23.2236 17.1008 23.2308C17.1019 23.2345 17.1029 23.2375 17.1035 23.2395C17.1041 23.2413 17.1047 23.2429 17.1047 23.2431C17.1049 23.2437 17.1046 23.2428 17.1043 23.2417C17.1039 23.2405 17.1031 23.2382 17.1022 23.2352C17.1005 23.2295 17.0977 23.2194 17.0955 23.2065L17.3421 23.1654L17.5887 23.1243C17.5863 23.1099 17.5832 23.0983 17.581 23.091C17.5799 23.0874 17.5789 23.0843 17.5782 23.0824C17.5776 23.0806 17.577 23.0789 17.577 23.0788C17.5768 23.0782 17.5771 23.0791 17.5775 23.0802C17.5779 23.0814 17.5786 23.0837 17.5795 23.0867C17.5813 23.0924 17.584 23.1025 17.5862 23.1154L17.3396 23.1565ZM17.3421 23.1654L17.2173 22.9488C14.7176 24.3897 12.62 26.3788 11.7816 28.8945L12.0188 28.9736L12.256 29.0526C13.0405 26.6984 15.0227 24.7909 17.467 23.382L17.3421 23.1654ZM12.0188 28.9736L11.7817 28.8945C10.7742 31.9161 11.5667 35.0806 13.9261 37.5671L14.1074 37.3951L14.2888 37.223C12.0432 34.8563 11.3128 31.8814 12.256 29.0526L12.0188 28.9736ZM14.1074 37.3951L13.9261 37.5672C16.2272 39.9918 19.6125 41.309 23.1536 41.309V41.059V40.809C19.7316 40.809 16.4837 39.5358 14.2888 37.223L14.1074 37.3951ZM23.1536 41.059L23.1537 41.309C24.4285 41.3088 25.7253 41.1381 27.0001 40.7863L26.9335 40.5453L26.867 40.3043C25.636 40.6441 24.384 40.8088 23.1536 40.809L23.1536 41.059ZM26.9335 40.5453L27.0001 40.7863C31.7437 39.4769 34.3354 36.8866 35.7277 33.5717C37.1109 30.2783 37.3022 26.2868 37.3022 22.187H37.0522H36.8022C36.8022 26.2898 36.6066 30.1878 35.2667 33.378C33.9358 36.5467 31.4682 39.0343 26.867 40.3043L26.9335 40.5453ZM37.0522 22.187H37.3022C37.3022 18.6721 37.1239 15.9066 36.7509 13.8239C36.3795 11.7509 35.8082 10.3115 34.9866 9.4947L34.8103 9.67199L34.634 9.84928C35.3419 10.553 35.8915 11.8622 36.2587 13.9121C36.6242 15.9523 36.8022 18.6841 36.8022 22.187H37.0522Z" fill="#041C1E" mask="url(#path-2-outside-1_174_15577)"/>
</svg>
