<svg width="24" height="24" viewBox="0 0 24 24" fill="none" xmlns="http://www.w3.org/2000/svg">
<path fill-rule="evenodd" clip-rule="evenodd" d="M14.15 6.4043H20.8472L18.842 10.9403L21.489 15.561H11.744L10.9019 12.0425" fill="white"/>
<path fill-rule="evenodd" clip-rule="evenodd" d="M2.33154 2.33496H11.9541C12.3121 2.33496 12.6248 2.57595 12.7143 2.92077L14.9352 11.4916H4.92121" fill="white"/>
<path d="M11.9541 2C12.4425 2 12.8724 2.317 13.0186 2.7793L13.0352 2.83594L13.8828 6.10645H21.3018L19.1729 10.9229L22 15.8584H11.5176L10.4551 11.8252H5.39941L8.19531 21.5723C8.24619 21.7496 8.14538 21.9348 7.96973 21.9863C7.80555 22.0343 7.6338 21.9489 7.57031 21.793L7.55859 21.7588L2.00977 2.41602L2.00293 2.38086L2 2.3418V2.31836L2.00391 2.2832L2.01074 2.25L2.01855 2.22266L2.03223 2.19141L2.04785 2.16211L2.06543 2.13477L2.08398 2.11133L2.11133 2.08398L2.14648 2.05664L2.16797 2.04297L2.19238 2.03027L2.22461 2.01758L2.26172 2.00781L2.30273 2.00098L2.33203 2H11.9541ZM15.2559 11.4062L13.1582 15.2627L20.9785 15.2637L18.5117 10.958L20.3926 6.70117H14.0371L15.2559 11.4062ZM5.20703 11.1562H14.5059L12.3936 3.00488C12.3458 2.82117 12.1852 2.68786 11.9951 2.6709L11.9541 2.66895H2.77246L5.20703 11.1562Z" fill="#041C1E"/>
<path fill-rule="evenodd" clip-rule="evenodd" d="M8.8803 5.51111H7.78457L8.1267 6.65545H9.21865C9.57966 6.65545 9.78176 6.43418 9.68085 6.09083C9.57778 5.74018 9.24266 5.51111 8.8803 5.51111ZM6.09473 4.40527H8.73488C9.92046 4.40527 10.7922 5.17554 11.0599 6.09861C11.3254 7.01361 10.9021 7.76878 9.72781 7.76878H8.4594L8.97475 9.49232H7.63484L6.09473 4.40527Z" fill="#041C1E"/>
</svg>
