<svg width="24" height="24" viewBox="0 0 24 24" fill="none" xmlns="http://www.w3.org/2000/svg">
<g clip-path="url(#clip0_383_6481)">
<path d="M22.8547 10.174C22.7492 9.51465 22.2449 9.17345 21.8756 8.92455C21.7537 8.84214 21.569 8.71687 21.5427 8.66082C21.2641 7.76909 21.1108 6.69604 20.9724 5.77628C20.8603 5.03124 20.7251 4.36038 20.5751 3.83951C20.0872 2.14175 18.996 2 18.012 2H15.1192C14.7681 2 13.9209 2 13.255 2.60987C13.0259 2.81921 13.1775 3.20162 13.4874 3.20162C13.5566 3.20162 13.6209 3.17195 13.6703 3.12415C14.0791 2.7302 14.6132 2.65932 15.1192 2.65932H18.0103C18.8823 2.65932 19.5779 2.75987 19.9422 4.02248C20.0773 4.48895 20.2092 5.1252 20.318 5.8488C20.4614 6.79823 20.6163 7.9059 20.913 8.85697C20.9971 9.12729 21.2443 9.29377 21.5064 9.47014C21.8196 9.68113 22.1427 9.90035 22.202 10.2762C22.3273 11.069 22.4591 12.175 22.1542 12.6415C21.8971 13.0338 21.4421 13.2382 21.1273 13.2382H20.3163C20.3097 13.2382 20.3048 13.2365 20.2998 13.2365C20.2998 13.2365 20.2998 13.2365 20.2982 13.2365C20.2042 13.2365 20.1169 13.2744 20.051 13.3404C19.985 13.4063 19.9488 13.4953 19.9504 13.5909L20.7531 16.8793C20.7548 17.0524 20.8784 17.1958 21.0482 17.2221C21.0663 17.2254 21.0844 17.2271 21.1042 17.2271H21.1059C21.1998 17.2271 21.2872 17.1892 21.3531 17.1232C21.4191 17.0573 21.4553 16.9683 21.4537 16.8727L20.6806 13.8975H21.1289C21.7223 13.8975 22.3569 13.5382 22.708 13.0025C23.0426 12.4898 23.0871 11.6443 22.8547 10.174Z" fill="#041C1E"/>
<path d="M10.776 2.65438C10.2288 2.06923 9.50684 2 8.83433 2H5.94155C5.43552 2 3.89105 2 3.357 3.83787C3.22183 4.30104 3.06854 4.94883 2.93997 5.73507C2.77514 6.7356 2.63339 7.89765 2.34328 8.85203C2.2757 9.0729 2.01527 9.3152 1.78451 9.52948C1.52078 9.77508 1.27188 10.0058 1.20265 10.2877C0.807059 11.8998 1.06749 12.5393 1.34276 13.0107C1.59166 13.4376 2.22461 13.8975 2.8147 13.8975H3.32733L2.55262 16.8793C2.55757 17.0689 2.71415 17.2205 2.90206 17.2205C2.90536 17.2205 2.90866 17.2205 2.91195 17.2205C2.93173 17.2205 2.94986 17.2172 2.96799 17.2139C3.13777 17.1809 3.25645 17.0326 3.2515 16.8628L4.05423 13.5794C4.04929 13.3898 3.8927 13.2382 3.70479 13.2382C3.70149 13.2382 3.6982 13.2382 3.6949 13.2382H2.81305C2.48834 13.2382 2.06142 12.9382 1.91143 12.6794C1.73835 12.3827 1.47627 11.9327 1.8422 10.4459C1.86363 10.3553 2.08615 10.1492 2.23285 10.0124C2.5246 9.74211 2.85426 9.43388 2.97294 9.04323C3.27953 8.03282 3.42293 6.83944 3.5927 5.81254C3.71303 5.08234 3.86797 4.43291 3.9883 4.02248C4.33939 2.82086 5.17343 2.65932 5.94155 2.65932H8.83268C9.40794 2.65932 9.90573 2.70548 10.2832 3.09777C10.3475 3.16536 10.4381 3.19997 10.5304 3.19997C10.814 3.20162 10.9689 2.86207 10.776 2.65438Z" fill="#041C1E"/>
<path d="M4.12507 10.5518C3.94376 10.5518 3.79541 10.7001 3.79541 10.8814C3.79541 11.0627 3.94376 11.2111 4.12507 11.2111H5.3712C5.80635 11.2111 5.81624 10.5518 5.38768 10.5518H4.12507Z" fill="#041C1E"/>
<path d="M16.1991 6.18809C15.7063 4.47879 14.6563 4.35352 13.6228 4.35352H12.23H11.7025H10.3097C9.2762 4.35352 8.16524 4.62384 7.70865 6.18809C7.36745 7.36168 7.33119 9.97096 6.7345 11.9374C6.53506 12.5934 5.54607 13.1044 5.43398 13.5643C4.98235 15.3988 5.3219 16.0054 5.55431 16.4043C5.78672 16.8032 6.39495 17.2334 6.91417 17.2334H17.0051C17.5243 17.2334 18.1491 16.9103 18.4985 16.3779C18.8479 15.8455 18.843 14.8631 18.6106 13.4011C18.4556 12.4203 17.2672 12.1879 17.1205 11.7198C16.5337 9.84239 16.5716 7.48036 16.1991 6.18809Z" fill="white"/>
<path d="M15.2053 14.6478H8.78014C8.50652 14.6478 8.28564 14.4632 8.28564 14.234C8.28564 14.0049 8.50652 13.8203 8.78014 13.8203H15.2053C15.4789 13.8203 15.6997 14.0049 15.6997 14.234C15.6997 14.4632 15.4789 14.6478 15.2053 14.6478Z" fill="#041C1E"/>
<path d="M19.8484 10.5518C20.0297 10.5518 20.178 10.7001 20.178 10.8814C20.178 11.0627 20.0297 11.2111 19.8484 11.2111H18.6022C18.1671 11.2111 18.1572 10.5518 18.5857 10.5518H19.8484Z" fill="#041C1E"/>
<path d="M18.9353 13.3499C18.8183 12.6147 18.2496 12.2307 17.8342 11.9505C17.6842 11.8499 17.4568 11.6966 17.4337 11.6225C17.1139 10.5972 16.982 9.39559 16.865 8.33407C16.7727 7.48849 16.6853 6.69071 16.5139 6.09732C15.9617 4.18528 14.7321 4.02539 13.6211 4.02539H10.308C9.73607 4.02539 7.9938 4.02539 7.39052 6.09732C7.23723 6.62478 7.14657 7.39289 7.04108 8.28133C6.90427 9.43679 6.75098 10.7456 6.41802 11.8433C6.33725 12.1087 6.03396 12.3922 5.76529 12.6411C5.46859 12.9164 5.18838 13.1785 5.11256 13.4867C4.62631 15.468 5.03014 16.1586 5.26915 16.5707C5.54771 17.047 6.25484 17.563 6.91416 17.563H7.2191L6.55977 21.1151C6.53505 21.387 6.7345 21.6277 7.00647 21.6524L7.08723 21.6541C7.32459 21.6376 7.52239 21.4513 7.54546 21.2057L8.21303 17.563H15.787L16.4562 21.214C16.4793 21.4579 16.6771 21.6458 16.9145 21.6623L16.9952 21.6607C17.2672 21.6359 17.4666 21.3953 17.4419 21.1233L16.7826 17.5646H17.0084C17.6727 17.5646 18.3831 17.1608 18.7771 16.5608C19.1529 15.9806 19.2007 15.0213 18.9353 13.3499ZM18.2216 16.1965C17.9183 16.6597 17.3793 16.902 17.0035 16.902H6.91251C6.52516 16.902 6.01748 16.5443 5.83781 16.2377C5.63507 15.8899 5.33014 15.3658 5.75375 13.6433C5.78177 13.5263 6.02243 13.3021 6.21528 13.1224C6.54494 12.8158 6.91746 12.4697 7.04932 12.0329C7.39876 10.8791 7.557 9.53899 7.69711 8.3555C7.79766 7.49673 7.88666 6.75499 8.02347 6.27863C8.4339 4.87097 9.40806 4.68142 10.308 4.68142H13.6211C14.6398 4.68142 15.4541 4.79845 15.881 6.27698C16.0359 6.81433 16.12 7.58574 16.2106 8.40166C16.331 9.49284 16.4661 10.7291 16.8057 11.8153C16.898 12.1104 17.1732 12.2966 17.4666 12.4928C17.8342 12.74 18.2133 12.9971 18.2842 13.4488C18.4293 14.3685 18.5809 15.6493 18.2216 16.1965Z" fill="#041C1E"/>
</g>
<defs>
<clipPath id="clip0_383_6481">
<rect width="22" height="19.661" fill="white" transform="translate(1 2)"/>
</clipPath>
</defs>
</svg>
