<svg xmlns="http://www.w3.org/2000/svg" viewBox="0 0 490.35 317"><defs><style>.cls-1{fill:#7400df;}.cls-2{opacity:0.1;}.cls-3,.cls-5{fill:#fff;}.cls-12,.cls-4{fill:#151a1e;}.cls-5{font-size:4.44px;letter-spacing:-0.03em;}.cls-12,.cls-5{font-family:CircularStd-Medium, Circular Std;font-weight:500;}.cls-6{letter-spacing:-0.05em;}.cls-7{letter-spacing:-0.03em;}.cls-8{letter-spacing:-0.06em;}.cls-9{letter-spacing:-0.06em;}.cls-10{letter-spacing:-0.04em;}.cls-11{letter-spacing:-0.07em;}.cls-12{font-size:13.07px;letter-spacing:-0.1em;}.cls-13{letter-spacing:-0.03em;}.cls-14{letter-spacing:-0.03em;}.cls-15{letter-spacing:-0.03em;}.cls-16{letter-spacing:-0.02em;}.cls-17{letter-spacing:-0.03em;}.cls-18{letter-spacing:-0.04em;}.cls-19{letter-spacing:-0.04em;}.cls-20{fill:#ff0080;}</style></defs><g id="Layer_2" data-name="Layer 2"><g id="_ÎÓÈ_1" data-name="—ÎÓÈ_1"><rect class="cls-1" width="490.23" height="317"/><polygon class="cls-2" points="71.56 268.4 200.3 317 490.36 317 490.36 158.9 418.16 48 71.56 268.4"/><rect class="cls-3" x="71.56" y="47.8" width="346.84" height="220.6"/><path class="cls-4" d="M277.94,194.39v.69h1.54v-.69Zm-3.1.69h1.55v-.69h-1.55Zm-3.1.17h1.55v-1h-1.55Zm-3.1.17h1.55v-1.37h-1.55Zm-3.1.17h1.55v-1.71h-1.55Zm-3.1.52H264v-2.75h-1.55Zm-3.1.86h1.55v-4.46h-1.55Zm-3.09,2.23h1.54v-8.93h-1.54Zm-3.1-.86h1.55v-7.21h-1.55Zm-3.1,1.71h1.55V189.42h-1.55Zm-3.1-2.4h1.55v-5.83H247Zm-3.1-2.06h1.55v-1.71h-1.55Zm-3.1.69h1.55v-3.09h-1.55Zm-3.1,1h1.55v-5.15h-1.55Zm-3.09-.34h1.54v-4.46h-1.54Zm-3.1-.52H233V193h-1.55Zm-3.1,3.26h1.55v-10h-1.55Zm-3.1,3.78h1.55V186h-1.55Zm-3.1-.86h1.55V186.84h-1.55Zm-3.1-4.63h1.55v-6.52h-1.55ZM216,199.71h1.54v-10H216Zm-3.1-4.29h1.55v-1.37h-1.55Zm-3.1.52h1.55v-2.41h-1.55Zm-3.1.68h1.55v-3.77h-1.55Zm-3.1,1h1.55v-5.83h-1.55Zm-3.1,2.4H202V189.42h-1.55Zm-3.1,1.55h1.55V187.87h-1.55Zm-3.09-1h1.54V188.9h-1.54Zm-3.1,2.06h1.55V186.84h-1.55Zm-3.1,2.06h1.55V184.78h-1.55Zm-3.1,1.2h1.55V183.58H185Zm-3.1-1.89h1.55V185.47h-1.55Zm-3.1-1.37h1.55V186.84h-1.55Zm-3.1,1.2h1.55V185.64h-1.55Zm-3.09-1.89h1.54V187.53h-1.54Zm-3.1-3.77H171V191.3h-1.55Zm-3.1,1.2h1.55V190.1h-1.55Zm-3.1-3.26h1.55v-2.75h-1.55Zm-3.1,1.37h1.55V192h-1.55Zm-3.1,3.43h1.55V188.56h-1.55Zm-3.09-.86h1.54V189.42H154Zm-3.1,1.72h1.55V187.7H150.9Zm-3.1,1.89h1.55V185.81H147.8Zm-3.1-5.15h1.55V191H144.7Zm-3.1,2.06h1.55V188.9H141.6Zm-3.1-2.23h1.55v-7.21H138.5Zm-9.13-1h1.47v-5.24h-1.47Zm-2.94.86h1.47v-7h-1.47Zm-3-3.11H125v-.75h-1.48Zm-2.94.84H122v-2.43h-1.47Zm-2.94.62h1.47V192.9H117.6Zm17.8-.8H137v-2.06H135.4Zm-20.9,0H116v-2.06H114.5Zm17.81.34h1.54v-2.75h-1.54Z"/><path class="cls-4" d="M378.73,195.42h1.55v-1.37h-1.55Zm-3.1.52h1.55v-2.41h-1.55Zm-3.1.68h1.55v-3.77h-1.55Zm-3.1,1H371v-5.83h-1.55Zm-3.09,2.4h1.54V189.42h-1.54Zm-3.1,1.55h1.54V187.87h-1.54Zm-3.1-1h1.55V188.9h-1.55Zm-3.1,2.06h1.55V186.84H357Zm-3.1,2.06h1.55V184.78h-1.55Zm-3.1,1.2h1.55V183.58h-1.55Zm-3.1-1.89h1.55V185.47h-1.55Zm-3.09-1.37h1.54V186.84h-1.54Zm-3.1,1.2h1.55V185.64h-1.55Zm-3.1-1.89H340V187.53h-1.55Zm-3.1-3.77h1.55V191.3h-1.55Zm-3.1,1.2h1.55V190.1h-1.55Zm-3.1-3.26h1.55v-2.75h-1.55Zm-3.1,1.37h1.55V192h-1.55ZM323,200.91h1.54V188.56H323Zm-3.1-.86h1.55V189.42h-1.55Zm-3.1,1.72h1.55V187.7h-1.55Zm-3.1,1.89h1.55V185.81h-1.55Zm-3.1-5.15h1.55V191h-1.55Zm-3.1,2.06H309V188.9h-1.55Zm-3.09-2.23h1.54v-7.21h-1.54Zm-9.13-1h1.47v-5.24h-1.47Zm-2.95.86h1.47v-7h-1.47Zm-2.94-3.11h1.47v-.75h-1.47Zm-3,.84h1.47v-2.43H286.4Zm-2.94.62h1.47V192.9h-1.47Zm17.81-.8h1.54v-2.06h-1.54Zm-20.91,0h1.55v-2.06h-1.55Zm17.81.34h1.55v-2.75h-1.55Z"/><rect class="cls-1" x="245.55" y="223.17" width="39" height="9" rx="4.5"/><text class="cls-5" transform="translate(251.94 229.22)">D<tspan class="cls-6" x="3.07" y="0">O</tspan><tspan class="cls-7" x="6.42" y="0">WN</tspan><tspan class="cls-8" x="14.07" y="0">L</tspan><tspan class="cls-9" x="16.27" y="0">O</tspan><tspan x="19.58" y="0">AD</tspan></text><rect class="cls-1" x="210.23" y="223.17" width="34" height="9" rx="4.5"/><text class="cls-5" transform="translate(215.63 229.22)"><tspan xml:space="preserve">BUY   </tspan><tspan class="cls-10" x="11.07" y="0">$</tspan><tspan class="cls-11" x="13.55" y="0">9</tspan><tspan class="cls-10" x="15.82" y="0">.</tspan><tspan x="16.97" y="0">99</tspan></text><rect class="cls-1" x="169.86" y="90.14" width="71.43" height="71.43"/><path class="cls-3" d="M203.58,122.52V103.36a21.16,21.16,0,1,0,0,42.31V126.52a21.16,21.16,0,0,0,21.06,19.15V103.36A21.16,21.16,0,0,0,203.58,122.52Z"/><text class="cls-12" transform="translate(266.22 103.96)">T<tspan class="cls-13" x="6.67" y="0">r</tspan><tspan class="cls-14" x="11.28" y="0">a</tspan><tspan class="cls-15" x="17.83" y="0">c</tspan><tspan class="cls-16" x="24.51" y="0">k</tspan><tspan class="cls-17" x="31.32" y="0"> </tspan><tspan class="cls-18" x="34.17" y="0">T</tspan><tspan class="cls-15" x="41.55" y="0">i</tspan><tspan class="cls-19" x="44.62" y="0">t</tspan><tspan class="cls-17" x="48.84" y="0">le</tspan></text><text class="cls-12" transform="translate(266.22 122.62)">T<tspan class="cls-13" x="6.67" y="0">r</tspan><tspan class="cls-14" x="11.28" y="0">a</tspan><tspan class="cls-15" x="17.83" y="0">c</tspan><tspan class="cls-16" x="24.51" y="0">k</tspan><tspan class="cls-17" x="31.32" y="0"> </tspan><tspan class="cls-18" x="34.17" y="0">T</tspan><tspan class="cls-15" x="41.55" y="0">i</tspan><tspan class="cls-19" x="44.62" y="0">t</tspan><tspan class="cls-17" x="48.84" y="0">le</tspan></text><text class="cls-12" transform="translate(266.22 141.29)">T<tspan class="cls-13" x="6.67" y="0">r</tspan><tspan class="cls-14" x="11.28" y="0">a</tspan><tspan class="cls-15" x="17.83" y="0">c</tspan><tspan class="cls-16" x="24.51" y="0">k</tspan><tspan class="cls-17" x="31.32" y="0"> </tspan><tspan class="cls-18" x="34.17" y="0">T</tspan><tspan class="cls-15" x="41.55" y="0">i</tspan><tspan class="cls-19" x="44.62" y="0">t</tspan><tspan class="cls-17" x="48.84" y="0">le</tspan></text><text class="cls-12" transform="translate(266.22 159.96)">T<tspan class="cls-13" x="6.67" y="0">r</tspan><tspan class="cls-14" x="11.28" y="0">a</tspan><tspan class="cls-15" x="17.83" y="0">c</tspan><tspan class="cls-16" x="24.51" y="0">k</tspan><tspan class="cls-17" x="31.32" y="0"> </tspan><tspan class="cls-18" x="34.17" y="0">T</tspan><tspan class="cls-15" x="41.55" y="0">i</tspan><tspan class="cls-19" x="44.62" y="0">t</tspan><tspan class="cls-17" x="48.84" y="0">le</tspan></text><polygon class="cls-20" points="260.29 98.81 254.47 103.54 254.47 94.08 260.29 98.81 260.29 98.81"/><polygon class="cls-20" points="260.1 117.81 254.29 122.54 254.29 113.08 260.1 117.81 260.1 117.81"/><polygon class="cls-20" points="260.1 136.81 254.29 141.54 254.29 132.09 260.1 136.81 260.1 136.81"/><polygon class="cls-20" points="260.1 154.81 254.29 159.54 254.29 150.09 260.1 154.81 260.1 154.81"/></g></g></svg>