<svg xmlns="http://www.w3.org/2000/svg" xmlns:xlink="http://www.w3.org/1999/xlink" viewBox="0 0 490.35 317"><defs><style>.cls-1{fill:none;}.cls-2{fill:#7400df;}.cls-3{opacity:0.1;}.cls-23,.cls-4{fill:#fff;}.cls-5{fill:#151a1e;}.cls-6{fill:#f2f2f2;}.cls-7{clip-path:url(#clip-path);}.cls-8{opacity:0.05;}.cls-9{font-size:13.07px;}.cls-20,.cls-9{fill:#4e5e76;}.cls-20,.cls-23,.cls-9{font-family:CircularStd-Medium, Circular Std;font-weight:500;}.cls-10{letter-spacing:-0.1em;}.cls-11{letter-spacing:-0.03em;}.cls-12{letter-spacing:-0.03em;}.cls-13{letter-spacing:-0.03em;}.cls-14{letter-spacing:-0.04em;}.cls-15{letter-spacing:-0.03em;}.cls-16{letter-spacing:-0.04em;}.cls-17{fill:#ff0080;}.cls-18{opacity:0.1;}.cls-19{clip-path:url(#clip-path-6);}.cls-20{font-size:6px;}.cls-21{letter-spacing:-0.03em;}.cls-22{letter-spacing:-0.03em;}.cls-23{font-size:4.44px;}.cls-24{letter-spacing:-0.03em;}.cls-25{letter-spacing:-0.05em;}.cls-26{letter-spacing:-0.03em;}.cls-27{letter-spacing:-0.06em;}.cls-28{letter-spacing:-0.03em;}.cls-29{letter-spacing:-0.03em;}.cls-30{letter-spacing:-0.04em;}.cls-31{letter-spacing:-0.07em;}.cls-32{letter-spacing:-0.04em;}.cls-33{clip-path:url(#clip-path-9);}.cls-34{clip-path:url(#clip-path-14);}.cls-35{clip-path:url(#clip-path-17);}.cls-36{clip-path:url(#clip-path-22);}.cls-37{clip-path:url(#clip-path-25);}.cls-38{clip-path:url(#clip-path-30);}</style><clipPath id="clip-path"><rect class="cls-1" x="76.16" y="98" width="338" height="37"/></clipPath><clipPath id="clip-path-6"><rect class="cls-1" x="103.02" y="121.83" width="107.44" height="4.9"/></clipPath><clipPath id="clip-path-9"><rect class="cls-1" x="76.16" y="139" width="338" height="37"/></clipPath><clipPath id="clip-path-14"><rect class="cls-1" x="103.02" y="162.83" width="107.44" height="4.9"/></clipPath><clipPath id="clip-path-17"><rect class="cls-1" x="76.16" y="180" width="338" height="37"/></clipPath><clipPath id="clip-path-22"><rect class="cls-1" x="103.02" y="203.83" width="107.44" height="4.9"/></clipPath><clipPath id="clip-path-25"><rect class="cls-1" x="76.16" y="221" width="338" height="37"/></clipPath><clipPath id="clip-path-30"><rect class="cls-1" x="103.02" y="244.83" width="107.44" height="4.9"/></clipPath></defs><g id="Layer_2" data-name="Layer 2"><g id="_ÎÓÈ_1" data-name="—ÎÓÈ_1"><rect class="cls-2" width="490.23" height="317"/><polygon class="cls-3" points="71.56 268.4 200.3 317 490.36 317 490.36 158.9 418.16 48 71.56 268.4"/><rect class="cls-4" x="71.56" y="47.8" width="346.84" height="220.6"/><rect class="cls-5" x="71.56" y="47.8" width="346.84" height="44.12"/><rect class="cls-2" x="81.36" y="57.6" width="24.51" height="24.51"/><path class="cls-6" d="M286.53,69.39v.69h1.55v-.69Zm-3.1.69H285v-.69h-1.55Zm-3.1.17h1.55v-1h-1.55Zm-3.09.17h1.54V69.05h-1.54Zm-3.1.17h1.54V68.88h-1.54Zm-3.1.52h1.55V68.36H271Zm-3.1.86h1.55V67.51h-1.55Zm-3.1,2.23h1.55V65.27h-1.55Zm-3.1-.86h1.55V66.13h-1.55Zm-3.1,1.71h1.55V64.42h-1.55Zm-3.09-2.4h1.54V66.82h-1.54Zm-3.1-2.06H254V68.88h-1.55Zm-3.1.69h1.55V68.19h-1.55Zm-3.1,1h1.55V67.16h-1.55Zm-3.1-.34h1.55V67.51h-1.55Zm-3.1-.52h1.55V68h-1.55ZM237,74.71h1.55V64.76H237Zm-3.09,3.78h1.54V61h-1.54Zm-3.1-.86h1.55V61.84h-1.55ZM227.66,73h1.55V66.48h-1.55Zm-3.1,1.71h1.55V64.76h-1.55Zm-3.1-4.29H223V69.05h-1.55Zm-3.1.52h1.55V68.53h-1.55Zm-3.09.68h1.54V67.85h-1.54Zm-3.1,1h1.54V66.82h-1.54Zm-3.1,2.4h1.55V64.42h-1.55ZM206,76.6h1.55V62.87H206Zm-3.1-1h1.55V63.9h-1.55Zm-3.1,2.06h1.55V61.84h-1.55Zm-3.1,2.06h1.55V59.78h-1.55Zm-3.09,1.2h1.54V58.58h-1.54ZM190.48,79H192V60.47h-1.55Zm-3.1-1.37h1.55V61.84h-1.55Zm-3.1,1.2h1.55V60.64h-1.55Zm-3.1-1.89h1.55V62.53h-1.55Zm-3.1-3.77h1.55V66.3h-1.55Zm-3.1,1.2h1.55V65.1H175Zm-3.09-3.26h1.54V68.36h-1.54Zm-3.1,1.37h1.55V67h-1.55Zm-3.1,3.43h1.55V63.56h-1.55Zm-3.1-.86h1.55V64.42h-1.55Zm-3.1,1.72H161V62.7h-1.55Zm-3.1,1.89h1.55V60.81h-1.55Zm-3.09-5.15h1.54V66H153.3Zm-3.1,2.06h1.54V63.9H150.2Zm-3.1-2.23h1.55V66.13H147.1Zm-9.13-1h1.47V67.12H138Zm-2.95.86h1.47v-7H135Zm-2.94-3.11h1.47v-.75h-1.47Zm-3,.84h1.48V68.52h-1.48Zm-2.94.62h1.47V67.9h-1.47Zm17.81-.8h1.55V68.71H144Zm-20.91,0h1.55V68.71h-1.55Zm17.81.34h1.55V68.36H140.9Z"/><path class="cls-6" d="M387.32,70.42h1.55V69.05h-1.55Zm-3.09.52h1.54V68.53h-1.54Zm-3.1.68h1.55V67.85h-1.55Zm-3.1,1h1.55V66.82H378Zm-3.1,2.4h1.55V64.42h-1.55Zm-3.1,1.55h1.55V62.87h-1.55Zm-3.1-1h1.55V63.9h-1.55Zm-3.1,2.06h1.55V61.84h-1.55Zm-3.09,2.06h1.54V59.78h-1.54Zm-3.1,1.2H361V58.58h-1.55ZM356.34,79h1.55V60.47h-1.55Zm-3.1-1.37h1.55V61.84h-1.55Zm-3.1,1.2h1.55V60.64h-1.55ZM347,76.94h1.55V62.53H347ZM344,73.17h1.54V66.3H344Zm-3.1,1.2h1.54V65.1h-1.54Zm-3.1-3.26h1.55V68.36h-1.55Zm-3.1,1.37h1.55V67h-1.55Zm-3.1,3.43h1.55V63.56h-1.55Zm-3.1-.86H330V64.42h-1.55Zm-3.1,1.72h1.55V62.7h-1.55Zm-3.09,1.89h1.54V60.81h-1.54Zm-3.1-5.15h1.55V66h-1.55Zm-3.1,2.06h1.55V63.9h-1.55ZM313,73.34h1.55V66.13H313Zm-9.13-1h1.47V67.12h-1.47Zm-2.94.86h1.47v-7h-1.47Zm-2.95-3.11h1.47v-.75h-1.47ZM295,71h1.47V68.52H295Zm-2.95.62h1.47V67.9h-1.47Zm17.81-.8h1.55V68.71h-1.55Zm-20.91,0h1.55V68.71H289Zm17.81.34h1.55V68.36h-1.55Z"/><g id="Artwork_1" data-name="Artwork 1"><g class="cls-7"><g class="cls-7"><g class="cls-7"><g class="cls-8"><g class="cls-7"><rect class="cls-5" x="76.16" y="98" width="338" height="37"/></g></g></g><text class="cls-9" transform="translate(101.59 116.6)"><tspan class="cls-10">T</tspan><tspan class="cls-11" x="6.68" y="0">r</tspan><tspan class="cls-12" x="11.31" y="0">a</tspan><tspan x="17.87" y="0">c</tspan></text><text class="cls-9" transform="translate(126.1 116.6)">k</text><text class="cls-9" transform="translate(132.91 116.6)"><tspan class="cls-13"> </tspan><tspan class="cls-14" x="2.86" y="0">T</tspan><tspan class="cls-15" x="10.25" y="0">i</tspan><tspan class="cls-16" x="13.32" y="0">t</tspan><tspan class="cls-13" x="17.56" y="0">l</tspan><tspan x="20.65" y="0">e</tspan></text><polygon class="cls-17" points="94.44 116.66 87.9 121.97 87.9 111.34 94.44 116.66"/><g class="cls-7"><g class="cls-18"><g class="cls-19"><rect x="103.02" y="121.83" width="107.44" height="4.9"/></g></g></g><text class="cls-20" transform="translate(387.02 116.94)"><tspan class="cls-21">0</tspan><tspan class="cls-22" x="3.54" y="0">4</tspan><tspan class="cls-21" x="6.91" y="0">:2</tspan><tspan x="11.59" y="0">7</tspan></text><g class="cls-7"><path class="cls-2" d="M378.66,120h-30a4.5,4.5,0,0,1,0-9h30a4.5,4.5,0,0,1,0,9"/></g><text class="cls-23" transform="translate(350.82 116.87)"><tspan class="cls-24">D</tspan><tspan class="cls-25" x="3.08" y="0">O</tspan><tspan class="cls-26" x="6.43" y="0">WN</tspan><tspan class="cls-27" x="14.08" y="0">LO</tspan><tspan class="cls-28" x="19.61" y="0">A</tspan><tspan x="22.63" y="0">D</tspan></text><g class="cls-7"><path class="cls-2" d="M337.93,120H313a4.5,4.5,0,0,1,0-9h25a4.5,4.5,0,0,1,0,9"/></g><text class="cls-23" transform="translate(314.51 116.87)"><tspan class="cls-29" xml:space="preserve">BUY   </tspan><tspan class="cls-30" x="11.07" y="0">$</tspan><tspan class="cls-31" x="13.55" y="0">9</tspan><tspan class="cls-32" x="15.83" y="0">.</tspan><tspan class="cls-26" x="16.98" y="0">9</tspan><tspan x="19.44" y="0">9</tspan></text></g></g></g><g id="Artwork_1-2" data-name="Artwork 1"><g class="cls-33"><g class="cls-33"><g class="cls-33"><g class="cls-8"><g class="cls-33"><rect class="cls-5" x="76.16" y="139" width="338" height="37"/></g></g></g><text class="cls-9" transform="translate(101.59 157.6)"><tspan class="cls-10">T</tspan><tspan class="cls-11" x="6.68" y="0">r</tspan><tspan class="cls-12" x="11.31" y="0">a</tspan><tspan x="17.87" y="0">c</tspan></text><text class="cls-9" transform="translate(126.1 157.6)">k</text><text class="cls-9" transform="translate(132.91 157.6)"><tspan class="cls-13"> </tspan><tspan class="cls-14" x="2.86" y="0">T</tspan><tspan class="cls-15" x="10.25" y="0">i</tspan><tspan class="cls-16" x="13.32" y="0">t</tspan><tspan class="cls-13" x="17.56" y="0">l</tspan><tspan x="20.65" y="0">e</tspan></text><polygon class="cls-17" points="94.44 157.66 87.9 162.97 87.9 152.34 94.44 157.66"/><g class="cls-33"><g class="cls-18"><g class="cls-34"><rect x="103.02" y="162.83" width="107.44" height="4.9"/></g></g></g><text class="cls-20" transform="translate(387.02 157.94)"><tspan class="cls-21">0</tspan><tspan class="cls-22" x="3.54" y="0">4</tspan><tspan class="cls-21" x="6.91" y="0">:2</tspan><tspan x="11.59" y="0">7</tspan></text><g class="cls-33"><path class="cls-2" d="M378.66,161h-30a4.5,4.5,0,0,1,0-9h30a4.5,4.5,0,1,1,0,9"/></g><text class="cls-23" transform="translate(350.82 157.87)"><tspan class="cls-24">D</tspan><tspan class="cls-25" x="3.08" y="0">O</tspan><tspan class="cls-26" x="6.43" y="0">WN</tspan><tspan class="cls-27" x="14.08" y="0">LO</tspan><tspan class="cls-28" x="19.61" y="0">A</tspan><tspan x="22.63" y="0">D</tspan></text><g class="cls-33"><path class="cls-2" d="M337.93,161H313a4.5,4.5,0,0,1,0-9h25a4.5,4.5,0,0,1,0,9"/></g><text class="cls-23" transform="translate(314.51 157.87)"><tspan class="cls-29" xml:space="preserve">BUY   </tspan><tspan class="cls-30" x="11.07" y="0">$</tspan><tspan class="cls-31" x="13.55" y="0">9</tspan><tspan class="cls-32" x="15.83" y="0">.</tspan><tspan class="cls-26" x="16.98" y="0">9</tspan><tspan x="19.44" y="0">9</tspan></text></g></g></g><g id="Artwork_1-3" data-name="Artwork 1"><g class="cls-35"><g class="cls-35"><g class="cls-35"><g class="cls-8"><g class="cls-35"><rect class="cls-5" x="76.16" y="180" width="338" height="37"/></g></g></g><text class="cls-9" transform="translate(101.59 198.6)"><tspan class="cls-10">T</tspan><tspan class="cls-11" x="6.68" y="0">r</tspan><tspan class="cls-12" x="11.31" y="0">a</tspan><tspan x="17.87" y="0">c</tspan></text><text class="cls-9" transform="translate(126.1 198.6)">k</text><text class="cls-9" transform="translate(132.91 198.6)"><tspan class="cls-13"> </tspan><tspan class="cls-14" x="2.86" y="0">T</tspan><tspan class="cls-15" x="10.25" y="0">i</tspan><tspan class="cls-16" x="13.32" y="0">t</tspan><tspan class="cls-13" x="17.56" y="0">l</tspan><tspan x="20.65" y="0">e</tspan></text><polygon class="cls-17" points="94.44 198.66 87.9 203.97 87.9 193.34 94.44 198.66"/><g class="cls-35"><g class="cls-18"><g class="cls-36"><rect x="103.02" y="203.83" width="107.44" height="4.9"/></g></g></g><text class="cls-20" transform="translate(387.02 198.94)"><tspan class="cls-21">0</tspan><tspan class="cls-22" x="3.54" y="0">4</tspan><tspan class="cls-21" x="6.91" y="0">:2</tspan><tspan x="11.59" y="0">7</tspan></text><g class="cls-35"><path class="cls-2" d="M378.66,202h-30a4.5,4.5,0,0,1,0-9h30a4.5,4.5,0,1,1,0,9"/></g><text class="cls-23" transform="translate(350.82 198.87)"><tspan class="cls-24">D</tspan><tspan class="cls-25" x="3.08" y="0">O</tspan><tspan class="cls-26" x="6.43" y="0">WN</tspan><tspan class="cls-27" x="14.08" y="0">LO</tspan><tspan class="cls-28" x="19.61" y="0">A</tspan><tspan x="22.63" y="0">D</tspan></text><g class="cls-35"><path class="cls-2" d="M337.93,202H313a4.5,4.5,0,0,1,0-9h25a4.5,4.5,0,1,1,0,9"/></g><text class="cls-23" transform="translate(314.51 198.87)"><tspan class="cls-29" xml:space="preserve">BUY   </tspan><tspan class="cls-30" x="11.07" y="0">$</tspan><tspan class="cls-31" x="13.55" y="0">9</tspan><tspan class="cls-32" x="15.83" y="0">.</tspan><tspan class="cls-26" x="16.98" y="0">9</tspan><tspan x="19.44" y="0">9</tspan></text></g></g></g><g id="Artwork_1-4" data-name="Artwork 1"><g class="cls-37"><g class="cls-37"><g class="cls-37"><g class="cls-8"><g class="cls-37"><rect class="cls-5" x="76.16" y="221" width="338" height="37"/></g></g></g><text class="cls-9" transform="translate(101.59 239.6)"><tspan class="cls-10">T</tspan><tspan class="cls-11" x="6.68" y="0">r</tspan><tspan class="cls-12" x="11.31" y="0">a</tspan><tspan x="17.87" y="0">c</tspan></text><text class="cls-9" transform="translate(126.1 239.6)">k</text><text class="cls-9" transform="translate(132.91 239.6)"><tspan class="cls-13"> </tspan><tspan class="cls-14" x="2.86" y="0">T</tspan><tspan class="cls-15" x="10.25" y="0">i</tspan><tspan class="cls-16" x="13.32" y="0">t</tspan><tspan class="cls-13" x="17.56" y="0">l</tspan><tspan x="20.65" y="0">e</tspan></text><polygon class="cls-17" points="94.44 239.66 87.9 244.97 87.9 234.34 94.44 239.66"/><g class="cls-37"><g class="cls-18"><g class="cls-38"><rect x="103.02" y="244.83" width="107.44" height="4.9"/></g></g></g><text class="cls-20" transform="translate(387.02 239.94)"><tspan class="cls-21">0</tspan><tspan class="cls-22" x="3.54" y="0">4</tspan><tspan class="cls-21" x="6.91" y="0">:2</tspan><tspan x="11.59" y="0">7</tspan></text><g class="cls-37"><path class="cls-2" d="M378.66,243h-30a4.5,4.5,0,0,1,0-9h30a4.5,4.5,0,1,1,0,9"/></g><text class="cls-23" transform="translate(350.82 239.87)"><tspan class="cls-24">D</tspan><tspan class="cls-25" x="3.08" y="0">O</tspan><tspan class="cls-26" x="6.43" y="0">WN</tspan><tspan class="cls-27" x="14.08" y="0">LO</tspan><tspan class="cls-28" x="19.61" y="0">A</tspan><tspan x="22.63" y="0">D</tspan></text><g class="cls-37"><path class="cls-2" d="M337.93,243H313a4.5,4.5,0,0,1,0-9h25a4.5,4.5,0,1,1,0,9"/></g><text class="cls-23" transform="translate(314.51 239.87)"><tspan class="cls-29" xml:space="preserve">BUY   </tspan><tspan class="cls-30" x="11.07" y="0">$</tspan><tspan class="cls-31" x="13.55" y="0">9</tspan><tspan class="cls-32" x="15.83" y="0">.</tspan><tspan class="cls-26" x="16.98" y="0">9</tspan><tspan x="19.44" y="0">9</tspan></text></g></g></g><path class="cls-4" d="M92.94,68.71V62.14a7.26,7.26,0,0,0,0,14.52V70.09a7.26,7.26,0,0,0,7.22,6.57V62.14A7.25,7.25,0,0,0,92.94,68.71Z"/></g></g></svg>