<?xml version="1.0" encoding="utf-8"?>
<!-- Generator: Adobe Illustrator 27.4.0, SVG Export Plug-In . SVG Version: 6.00 Build 0)  -->
<svg version="1.1" id="Layer_2_00000088111822156373389100000017577035230749028010_"
	 xmlns="http://www.w3.org/2000/svg" xmlns:xlink="http://www.w3.org/1999/xlink" x="0px" y="0px" viewBox="0 0 121.9 46.4"
	 style="enable-background:new 0 0 121.9 46.4;" xml:space="preserve">
<g id="Layer_1-2">
	<path d="M119.6,23.6c-1.2,0-2.2,1.1-2.2,2.4s1.1,2.2,2.3,2.2c1.2,0,2.2-1.1,2.2-2.4S120.8,23.6,119.6,23.6z M119.7,27.6
		c-1,0-1.8-0.7-1.8-1.7c0-1,0.7-1.8,1.7-1.8c1,0,1.8,0.7,1.8,1.7C121.4,26.8,120.7,27.6,119.7,27.6z"/>
	<path d="M120.4,25.5c0-0.4-0.2-0.6-0.7-0.6l-0.9,0l0.1,1.9l0.5,0l0-1l0.8,1l0.5,0l-0.6-0.7C120.3,26,120.4,25.8,120.4,25.5
		L120.4,25.5z M119.9,25.7l-0.5,0v-0.4l0.5,0c0.1,0,0.1,0,0.1,0.1v0.2C120,25.7,119.9,25.7,119.9,25.7L119.9,25.7z"/>
	<path d="M59.3,9.7c-1.3,0-2-0.8-2.1-1.7l-2.6,0.6c0.1,1.3,1.3,3.5,4.7,3.5c3,0,4.4-1.9,4.4-3.7c0-1.7-1.1-3-3.4-3.5l-1.6-0.3
		c-0.6-0.1-1-0.5-1-1c0-0.7,0.7-1.1,1.5-1.1c1.3,0,1.8,0.8,1.9,1.5l2.6-0.6C63.5,2.1,62.4,0,59.2,0c-2.5,0-4.2,1.7-4.2,3.7
		c0,1.6,1,2.9,3.2,3.4l1.5,0.3c0.9,0.2,1.2,0.6,1.2,1.1C60.8,9.2,60.3,9.7,59.3,9.7L59.3,9.7z"/>
	<path d="M70.6,0c-3.4,0-6,2.5-6,6s2.6,6,6,6s6-2.5,6-6S74,0,70.6,0z M70.6,9.3c-1.5,0-2.9-1.1-2.9-3.2s1.4-3.2,2.9-3.2
		s2.9,1.1,2.9,3.2S72.1,9.3,70.6,9.3z"/>
	<path d="M80.7,5.2c0-1.3,0.8-2.3,2.1-2.3c1.5,0,2.1,1,2.1,2.3v6.6H88V4.6c0-2.5-1.3-4.5-4.1-4.5c-1.2,0-2.6,0.5-3.3,1.7V0.3h-3
		v11.4h3.1L80.7,5.2L80.7,5.2z"/>
	<path d="M120,3.4V0.3c-0.2,0-0.5-0.1-0.7-0.1c-1,0-2.5,0.3-3.2,1.8V0.3h-3v11.4h3.1V6.5c0-2.5,1.4-3.2,2.9-3.2
		C119.3,3.3,119.6,3.3,120,3.4L120,3.4z"/>
	<path d="M68.7,16.3c-1.5,0-2.7,0.5-3.6,1.9c-0.6-1.2-1.8-1.9-3.4-1.9c-1.2,0-2.7,0.6-3.3,1.7v-1.4h-2.9v11.4h3.1v-6.6
		c0-1.2,0.8-2.2,2.1-2.2s2,0.9,2,2.1v6.7h3v-6.6c0-1.2,0.8-2.2,2.1-2.2c1.4,0,2,0.9,2,2.1v6.7h3v-7.4C72.8,17.5,70.8,16.3,68.7,16.3
		L68.7,16.3z"/>
	<path d="M85.4,16.6h-3.1v6.6c0,1.3-0.8,2.2-2.2,2.2c-1.4,0-2.1-1-2.1-2.3v-6.6h-3.1v7.2c0,2.5,1.6,4.5,4.3,4.5
		c1.2,0,2.5-0.5,3.1-1.5c0,0.5,0.1,1,0.1,1.2h2.9c-0.1-0.4-0.1-1.2-0.1-2L85.4,16.6L85.4,16.6z"/>
	<path d="M93.3,21.1l-1.6-0.4c-0.6-0.1-1-0.5-1-1c0-0.6,0.7-1.1,1.4-1.1c1.3,0,1.8,0.9,1.9,1.5l2.6-0.6c-0.1-1.2-1.2-3.3-4.5-3.3
		c-2.4,0-4.2,1.7-4.2,3.7c0,1.6,1,2.9,3.2,3.4l1.5,0.4c0.9,0.2,1.2,0.6,1.2,1.1c0,0.6-0.5,1.1-1.5,1.1c-1.3,0-2-0.8-2.1-1.7
		l-2.6,0.6c0.1,1.3,1.3,3.5,4.7,3.5c3,0,4.4-1.9,4.4-3.7C96.6,22.9,95.5,21.5,93.3,21.1L93.3,21.1z"/>
	<rect x="98.8" y="16.6" width="3.1" height="11.4"/>
	<path d="M109.8,25.5c-1.6,0-2.9-1.1-2.9-3.2s1.3-3.2,2.9-3.2s2.2,1,2.5,1.9l2.8-0.9c-0.5-1.9-2.2-3.8-5.3-3.8c-3.3,0-5.9,2.5-5.9,6
		s2.6,6,6,6c3,0,4.8-1.9,5.3-3.8l-2.7-0.9C112.1,24.4,111.4,25.5,109.8,25.5L109.8,25.5z"/>
	<path d="M23.1,21.1V0.2C10.4,0.2,0,10.5,0,23.3s10.4,23.1,23.1,23.1V25.5c1.1,11.7,11,20.9,23,20.9V0.2
		C34.1,0.2,24.2,9.4,23.1,21.1z"/>
	<path d="M99.5,9.9V4.3C99.5,2,98.1,0,94.5,0c-3,0-4.6,1.9-4.9,3.7h2.9c0.3-0.7,1-1.2,2-1.2c1.3,0,1.9,0.7,1.9,1.5
		c0,0.4-0.2,0.7-0.8,0.8l-2.8,0.4c-1.9,0.3-3.4,1.4-3.4,3.4c0,1.8,1.5,3.4,3.9,3.4c1.7,0,2.8-0.8,3.3-1.7c0,0.4,0.1,1.1,0.1,1.4h2.8
		C99.5,11.3,99.5,10.5,99.5,9.9L99.5,9.9z M96.5,7.1c0,2-1.2,2.6-2.5,2.6c-1,0-1.5-0.6-1.5-1.3c0-0.9,0.6-1.3,1.4-1.4l2.6-0.4
		C96.5,6.6,96.5,7.1,96.5,7.1z"/>
	<path d="M108.3,10.3c0,0.4,0.1,1.1,0.1,1.4h2.8c-0.1-0.4-0.1-1.2-0.1-1.8V4.3c0-2.3-1.3-4.3-4.9-4.3c-3,0-4.6,1.9-4.9,3.7h2.9
		c0.3-0.7,1-1.2,2-1.2c1.3,0,1.9,0.7,1.9,1.5c0,0.4-0.2,0.7-0.8,0.8l-2.8,0.4c-1.9,0.3-3.4,1.4-3.4,3.4c0,1.8,1.5,3.4,3.9,3.4
		C106.7,12,107.8,11.2,108.3,10.3L108.3,10.3z M104.1,8.4c0-0.9,0.6-1.3,1.4-1.4l2.6-0.4v0.5c0,2-1.2,2.6-2.5,2.6
		C104.6,9.7,104.1,9.1,104.1,8.4z"/>
</g>
</svg>
