<svg xmlns="http://www.w3.org/2000/svg" viewBox="0 0 359.95 103.73" role="img" aria-hidden="true" focusable="false"><defs><style>.cls-1{fill:#a4286a}</style></defs><g id="Layer_2" data-name="Layer 2"><g id="Yoast"><path class="cls-1" d="M37.6 5.27l-2 11-6.74 29.31 5.9.92-.34 3.25H17.64l.36-3.24 5.15-.93 10-40.89-5.09-.73.44-3.7H43l5.38 34.16.36 4.31c1.92-4.84 3.6-8.89 5-12l7.83-17.87L65.25.25H79L78.62 4l-5.23.73-.79 40.86 4.92 1-.33 3.24H59.86l.34-3.25 5.59-.89 1.14-29 .86-11.22L64 15.2 48.84 49.83l-3.9.53z"/><path class="cls-1" d="M78.74.5l-.35 3.23-5.25.74-.8 41.29 4.9 1-.29 2.79H60.13l.29-2.79 5.61-.9 1.15-29.18 1-12.91-4.39 11.34L48.67 49.6l-3.52.48L37.62 3.8l-2.27 12.4-6.79 29.6 5.93.93-.29 2.79H17.92l.32-2.79 5.12-.93L33.52 4.47l-5.12-.74.38-3.23h14l5.35 34 .45 5.35q3.14-7.94 5.38-13L61.8 9 65.42.5h13.32m.56-.5H65.09L65 .3l-3.66 8.46-7.84 17.83c-1.3 2.93-2.84 6.64-4.6 11l-.27-3.23L43.27.42 43.2 0H28.33l-.05.44-.38 3.24-.06.48.48.07 4.58.66L23 45.36l-4.81.87-.37.07v.37l-.32 2.79-.06.56h17.2v-.45l.36-2.8v-.47l-.47-.07-5.4-.85 6.67-29.07 1.76-9.57 7.06 43.43.08.48.48-.07 3.52-.48h.28l.11-.26 15.12-34.5 3.17-8.21-.73 9.51-1.11 28.75-5.2.83-.38.06v.38l-.29 2.79-.06.55H77.4v-.45l.29-2.79v-.45l-.45-.09-4.49-.88.78-40.44 4.83-.68.39-.05v-.39l.49-3.23.06-.55z"/><path class="cls-1" d="M75.13 67.18v-4.81h2.27c6.07 0 10.27-3.26 12.84-10C90 50.83 85.4 23 84.61 19.27c-.55-2.6-.77-2.6-1-2.6h-.16s-.46 0-2.07 1.52l-.6.56-1.22-2.5.15-.28a8.53 8.53 0 0 1 6.6-4 4.31 4.31 0 0 1 1.75.35c2.12.93 2.2 1.64 4.33 19.76.45 3.87 1 8.54 1.68 14.18 2.79-5.44 10.13-20.2 10.8-26.55a4.38 4.38 0 0 0-.39-2.5 6 6 0 0 1-.54-2.44 2.7 2.7 0 0 1 .79-1.93 3 3 0 0 1 2.14-.84c2.6 0 3.92 2 3.92 6 0 8.22-11.62 29.46-15.44 36.44v.09c-4.85 8.87-8.41 12.58-17.86 12.58z"/><path class="cls-1" d="M86.28 12.26a4.06 4.06 0 0 1 1.65.33c2 .88 2.07 1.58 4.18 19.58.47 4 1.05 9 1.78 15 2.2-4.25 10.48-20.6 11.2-27.36a4.64 4.64 0 0 0-.41-2.62 5.74 5.74 0 0 1-.53-2.34 2.45 2.45 0 0 1 .71-1.75 2.74 2.74 0 0 1 2-.77c2.44 0 3.67 1.94 3.67 5.78 0 8.15-11.6 29.35-15.41 36.32v.09c-4.8 8.78-8.31 12.45-17.64 12.45h-2v-4.35h2c6.2 0 10.49-3.34 13.1-10.2-.3-1.85-4.85-29.42-5.65-33.2-.59-2.8-.85-2.8-1.27-2.8h-.16c-.16 0-.7.15-2.24 1.59l-.35.33-1-2.08.09-.16a8.24 8.24 0 0 1 6.38-3.84m0-.5a8.67 8.67 0 0 0-6.82 4.1l-.09.16-.13.23.11.23 1 2.08.3.61.49-.46.35-.33c1.46-1.36 1.9-1.45 1.92-1.46h.23a8.48 8.48 0 0 1 .68 2.4c.79 3.71 5.26 30.89 5.62 33-2.53 6.56-6.65 9.75-12.58 9.75h-2.58v5.31h2.52c9.58 0 13.18-3.75 18.08-12.71v-.09c3.83-7 15.47-28.28 15.47-36.56 0-5.19-2.27-6.28-4.17-6.28a3.23 3.23 0 0 0-2.32.91 3 3 0 0 0-.86 2.11 6.24 6.24 0 0 0 .56 2.53 4.17 4.17 0 0 1 .38 2.38c-.65 6.08-7.7 20.42-10.4 25.73-.63-5.28-1.15-9.68-1.58-13.35-2.19-18.63-2.23-19-4.48-20a4.56 4.56 0 0 0-1.85-.37zM.25 62.37h66.1v4.81H.25z"/><path class="cls-1" d="M66.1 62.62v4.31H.5v-4.31h65.6m.5-.5H0v5.31h66.6v-5.31zM350 64.28V38.22h9.32V26.9H350V13.24h-14.37V26.9h-7.3v11.32h7.3V62.8c0 14 9.74 22.28 20 24L360 75.23a10.87 10.87 0 0 1-10-10.95zm-72.59-4.12v-19.6a19.61 19.61 0 0 0-.11-2c-1.25-15.83-23.73-15.8-41.14-9.72l5 10.13c11.34-5.38 18.12-4 20.5-1.34l.18.21c1.21 1.63.92 4.21.92 6.23-14.82 0-30.58 2-30.58 18.22 0 12.35 15.48 20.3 31.65 8.53l2.4 5.79h13.86c-1.19-6.82-2.68-12.61-2.68-16.45zM262.92 60c-11.4 12.75-21.84.75-11.15-4.49 3.15-1.07 7.42-1.12 11.15-1.12zm36.61-20.49c0-4.83 7.73-7.08 19.91-1.52l4.22-10.24c-16.4-5-38.8-5.4-38.95 11.75-.07 8.22 5.21 12.65 12.8 15.47 5.26 2 12.85 3 12.83 7.16 0 5.47-11.8 6.31-22.52-1l-4.33 11.1c14.61 7.27 41.79 7.48 41.65-10.75-.14-18.07-25.61-14.98-25.61-21.97zM172.83.5L152 58.45l-10-31.3h-14.88l16.64 42.73a15.58 15.58 0 0 1 0 11.31c-1.86 4.77-5 8.85-12.5 9.86v12.67c14.69 0 22.62-9 29.71-28.81L188.73.5zm31.22 24.69c-18 0-25.14 12.71-25.14 26.16 0 14 7 25.42 25.14 25.42s25.19-12.83 25.16-25.42c-.04-15.35-7.84-26.16-25.16-26.16zm0 40.56c-7.29 0-10.88-5.44-10.88-14.4S197 36 204.05 36s10.79 6.37 10.79 15.33-3.5 14.42-10.79 14.42z"/></g></g></svg>