<svg xmlns="http://www.w3.org/2000/svg" id="Layer_1" viewBox="0 0 128 128" role="img" aria-hidden="true" focusable="false"><defs><radialGradient id="radial-gradient" cx="-230.8" cy="484.4" r="1.1" fx="-230.8" fy="484.4" gradientTransform="scale(181.019 -181.019) rotate(-45 -700.077 -36.271)" gradientUnits="userSpaceOnUse"><stop offset="0" stop-color="#0ecad4"/><stop offset="1" stop-color="#006bd6"/></radialGradient><style>.st1{fill:#fff}.st2{fill:#002447;isolation:isolate;opacity:0}</style></defs><path d="M0 0v128h128V0z" fill="url(#radial-gradient)"/><path d="M90.6 82.6h-9.3V45.3H106V54H90.6v6.7h14.5v8.5H90.6v13.5z" class="st1"/><path d="M78.9 67h9.2c-1.4 9.5-9.3 15.8-19 15.8s-19.2-7.9-19.2-18.6c0-2.5.5-4.9 1.4-7.2 1-2.3 2.4-4.4 4.1-6.1 3.7-3.5 8.6-5.5 13.6-5.4 9.6 0 17.8 6.3 18.9 15.7h-9.2c-2.8-10.6-20-9.5-20 3.1s17.4 13.6 20 2.9z" class="st2"/><path d="M77 67c-1.6 5.3-7.2 8.5-12.7 7.2s-9-6.7-7.8-12.1c1.1-5.4 6.5-9 12.1-8.1 2.3.3 4.4 1.4 6 3.1 1.1 1.1 1.9 2.5 2.4 4h8.9c-1.2-9.4-9.4-15.7-18.9-15.7-5.1 0-10 1.9-13.6 5.4-1.8 1.7-3.2 3.8-4.1 6.1-1 2.3-1.4 4.8-1.4 7.2 0 10.7 8.6 18.6 19.2 18.6s17.6-6.3 19-15.8h-8.9z" class="st1"/><path d="M49.3 77.2H36.4l-2.1 5.4h-9.9l15.1-37.3h6.6l15.7 37.3H51.4zm-9.2-9.3l-.3.8h6.3l-.2-.6-2.9-8-2.8 7.8z" class="st2"/><path d="M46.9 77.2H34l-2.1 5.4H22l15.1-37.3h6.6l15.7 37.3H49zm-9.3-9.3l-.3.8h6.3l-.2-.6-2.9-8-2.8 7.8z" class="st1"/></svg>