<svg xmlns="http://www.w3.org/2000/svg" viewBox="0 0 1200.3 584"><defs><style>.cls-1{fill:#ff0080;}.cls-2{opacity:0.1;}.cls-3{fill:#fff;}.cls-4{fill:#151a1e;}.cls-5{font-size:45.84px;fill:#4e5e76;font-family:CircularStd-Medium, Circular Std;font-weight:500;letter-spacing:-0.1em;}.cls-6{letter-spacing:-0.03em;}.cls-7{letter-spacing:-0.03em;}.cls-8{letter-spacing:-0.03em;}.cls-9{letter-spacing:-0.02em;}.cls-10{letter-spacing:-0.03em;}.cls-11{letter-spacing:-0.05em;}.cls-12{letter-spacing:-0.03em;}.cls-13{letter-spacing:-0.04em;}.cls-14{letter-spacing:-0.03em;}.cls-15{letter-spacing:-0.05em;}.cls-16{letter-spacing:-0.03em;}.cls-17{letter-spacing:-0.03em;}.cls-18{letter-spacing:-0.03em;}.cls-19{letter-spacing:-0.03em;}.cls-20{fill:#7400df;}.cls-21{fill:#f2f2f2;}</style></defs><g id="Layer_2" data-name="Layer 2"><g id="_ÎÓÈ_1" data-name="—ÎÓÈ_1"><rect class="cls-1" width="1200" height="584"/><polygon class="cls-2" points="175.16 465.04 490.3 584 1200.3 584 1200.3 197 1024.16 75.04 175.16 465.04"/><rect class="cls-3" x="175.16" y="75.04" width="849" height="390"/><rect class="cls-4" x="175.16" y="75.04" width="849" height="108"/><text class="cls-5" transform="translate(248.68 275.7)">T<tspan class="cls-6" x="23.38" y="0">r</tspan><tspan class="cls-7" x="39.56" y="0">a</tspan><tspan class="cls-8" x="62.52" y="0">c</tspan><tspan class="cls-9" x="85.94" y="0">k</tspan><tspan class="cls-10" x="109.82" y="0"> </tspan><tspan class="cls-11" x="119.82" y="0">b</tspan><tspan class="cls-8" x="145.12" y="0">y </tspan><tspan class="cls-12" x="178.62" y="0">L</tspan><tspan class="cls-8" x="202.6" y="0">ed </tspan><tspan class="cls-13" x="262.55" y="0">Z</tspan><tspan class="cls-14" x="290" y="0">eplin</tspan><tspan x="0" y="70">T</tspan><tspan class="cls-6" x="23.38" y="70">r</tspan><tspan class="cls-7" x="39.56" y="70">a</tspan><tspan class="cls-8" x="62.52" y="70">ck </tspan><tspan class="cls-15" x="119.49" y="70">b</tspan><tspan class="cls-8" x="144.8" y="70">y </tspan><tspan class="cls-16" x="178.3" y="70">A</tspan><tspan class="cls-17" x="209.38" y="70">r</tspan><tspan class="cls-10" x="225.51" y="70">iana G</tspan><tspan class="cls-6" x="351.33" y="70">r</tspan><tspan class="cls-14" x="367.51" y="70">ande</tspan><tspan x="0" y="140">T</tspan><tspan class="cls-6" x="23.38" y="140">r</tspan><tspan class="cls-7" x="39.56" y="140">a</tspan><tspan class="cls-8" x="62.52" y="140">ck </tspan><tspan class="cls-15" x="119.49" y="140">b</tspan><tspan class="cls-8" x="144.8" y="140">y D</tspan><tspan class="cls-18" x="210.02" y="140">a</tspan><tspan class="cls-8" x="232.8" y="140">vid </tspan><tspan class="cls-16" x="302.47" y="140">Gu</tspan><tspan class="cls-14" x="361.37" y="140">et</tspan><tspan class="cls-19" x="400.47" y="140">t</tspan><tspan class="cls-8" x="415.96" y="140">a</tspan></text><rect class="cls-20" x="199.16" y="99.04" width="60" height="60"/><polygon class="cls-1" points="231.16 261.04 215.16 274.04 215.16 248.04 231.16 261.04 231.16 261.04"/><polygon class="cls-1" points="231.16 329.04 215.16 342.04 215.16 316.04 231.16 329.04 231.16 329.04"/><polygon class="cls-1" points="231.16 398.04 215.16 411.04 215.16 385.04 231.16 398.04 231.16 398.04"/><path class="cls-21" d="M701.37,127.9v1.68h3.79V127.9Zm-7.58,1.68h3.79V127.9h-3.79Zm-7.59.42H690v-2.52H686.2Zm-7.58.42h3.79v-3.36h-3.79Zm-7.58.42h3.78v-4.2H671Zm-7.59,1.26h3.79v-6.72h-3.79Zm-7.58,2.1h3.79V123.28h-3.79Zm-7.59,5.46h3.79V117.82h-3.79Zm-7.58-2.1h3.79V119.92H640.7Zm-7.59,4.2h3.79v-26h-3.79Zm-7.58-5.88h3.79V121.6h-3.79Zm-7.59-5h3.79v-4.2h-3.79Zm-7.58,1.68h3.79V125h-3.79ZM602.77,135h3.79v-12.6h-3.79Zm-7.58-.84H599V123.28h-3.79Zm-7.58-1.26h3.78v-8.4h-3.78Zm-7.59,8h3.79V116.56H580Zm-7.58,9.24h3.79V107.32h-3.79Zm-7.59-2.1h3.79V109.42h-3.79Zm-7.58-11.34h3.79v-16h-3.79Zm-7.59,4.2h3.79V116.56h-3.79Zm-7.58-10.5h3.79v-3.36H542.1Zm-7.59,1.26h3.79V125.8h-3.79Zm-7.58,1.68h3.79v-9.24h-3.79Zm-7.59,2.52h3.79V121.6h-3.79Zm-7.58,5.88h3.79v-26h-3.79Zm-7.58,3.78H508v-33.6h-3.78ZM496.59,143h3.79V114.46h-3.79Zm-7.58,5h3.79V109.42H489Zm-7.59,5h3.79V104.38h-3.79ZM473.84,156h3.79v-54.6h-3.79Zm-7.59-4.62H470V106.06h-3.79Zm-7.58-3.36h3.79V109.42h-3.79ZM451.08,151h3.79V106.48h-3.79Zm-7.58-4.62h3.79V111.1H443.5Zm-7.59-9.24h3.79v-16.8h-3.79Zm-7.58,2.94h3.79V117.4h-3.79Zm-7.58-8h3.78v-6.72h-3.78Zm-7.59,3.36H417V122h-3.79Zm-7.58,8.4h3.79V113.62h-3.79Zm-7.59-2.1h3.79v-26H398Zm-7.58,4.2h3.79V111.52h-3.79Zm-7.59,4.62h3.79V106.9h-3.79ZM375.24,138H379V119.5h-3.79Zm-7.59,5h3.79V114.46h-3.79Zm-7.58-5.46h3.79V119.92h-3.79Zm-22.35-2.4h3.6V122.33h-3.6Zm-7.21,2.1h3.6v-17h-3.6Zm-7.2-7.6h3.6v-1.83h-3.6Zm-7.21,2.06h3.6v-6h-3.6Zm-7.21,1.51h3.6v-9h-3.6Zm43.59-2h3.79v-5h-3.79Zm-51.17,0h3.79v-5h-3.79Zm43.59.84h3.79v-6.72H344.9Z"/><path class="cls-21" d="M948.1,130.42h3.79v-3.36H948.1Zm-7.59,1.26h3.79V125.8h-3.79Zm-7.58,1.68h3.79v-9.24h-3.79Zm-7.59,2.52h3.79V121.6h-3.79Zm-7.58,5.88h3.79v-26h-3.79Zm-7.58,3.78H914v-33.6h-3.78ZM902.59,143h3.79V114.46h-3.79Zm-7.58,5h3.79V109.42H895Zm-7.59,5h3.79V104.38h-3.79ZM879.84,156h3.79v-54.6h-3.79Zm-7.59-4.62H876V106.06h-3.79Zm-7.58-3.36h3.79V109.42h-3.79ZM857.08,151h3.79V106.48h-3.79Zm-7.58-4.62h3.79V111.1H849.5Zm-7.59-9.24h3.79v-16.8h-3.79Zm-7.58,2.94h3.79V117.4h-3.79Zm-7.58-8h3.78v-6.72h-3.78Zm-7.59,3.36H823V122h-3.79Zm-7.58,8.4h3.79V113.62h-3.79Zm-7.59-2.1h3.79v-26H804Zm-7.58,4.2h3.79V111.52h-3.79Zm-7.59,4.62h3.79V106.9h-3.79ZM781.24,138H785V119.5h-3.79Zm-7.59,5h3.79V114.46h-3.79Zm-7.58-5.46h3.79V119.92h-3.79Zm-22.35-2.4h3.6V122.33h-3.6Zm-7.21,2.1h3.6v-17h-3.6Zm-7.2-7.6h3.6v-1.83h-3.6Zm-7.21,2.06h3.6v-6h-3.6Zm-7.21,1.51h3.6v-9h-3.6Zm43.59-2h3.79v-5h-3.79Zm-51.17,0h3.79v-5h-3.79Zm43.59.84h3.79v-6.72H750.9Z"/></g></g></svg>