<svg xmlns="http://www.w3.org/2000/svg" viewBox="0 0 491.01 317.02"><defs><style>.cls-1{fill:#7400df;}.cls-2{opacity:0.1;}.cls-3{fill:#151a1e;}.cls-4{fill:#ff0080;}.cls-5{font-size:17.93px;font-family:CircularStd-Medium, Circular Std;font-weight:500;letter-spacing:-0.04em;}.cls-14,.cls-5{fill:#fff;}.cls-6{letter-spacing:-0.03em;}.cls-7{font-size:24px;letter-spacing:-0.03em;}.cls-8{letter-spacing:-0.02em;}.cls-9{letter-spacing:-0.1em;}.cls-10{letter-spacing:-0.03em;}.cls-11{letter-spacing:-0.05em;}.cls-12{letter-spacing:-0.06em;}.cls-13{fill:#f2f2f2;}</style></defs><g id="Layer_2" data-name="Layer 2"><g id="_ÎÓÈ_1" data-name="—ÎÓÈ_1"><rect class="cls-1" x="0.77" width="490.23" height="317"/><polygon class="cls-2" points="86.94 210 200.88 317 490.94 317 490.94 158.9 402.94 43 86.94 210"/><rect class="cls-3" x="87" y="43" width="316" height="167"/><path class="cls-4" d="M198.8,125.22a21.46,21.46,0,0,1-21.05-16.08,22.1,22.1,0,0,1,12-25.53,22.8,22.8,0,0,1,9.82-2.27h.11a22.94,22.94,0,0,1,9.86,2.31,23.32,23.32,0,0,1,7.84,6.07l-.6.58a7.23,7.23,0,0,1-8.75,1,17.09,17.09,0,0,0-8.78-2.55,14.14,14.14,0,0,0-2.77.27,14.63,14.63,0,0,0,1.45,28.93c.45,0,.91.06,1.36.06a18.22,18.22,0,0,0,9.49-2.84c4.77-2.92,9-7.71,12.46-14.24a.44.44,0,0,0,.1-.19,3.13,3.13,0,0,0,.19-.35l.08-.15c2.94-5.62,6.27-12,12.2-15.68a20.49,20.49,0,0,1,10.83-3,21,21,0,0,1,10.83,2.94,21.29,21.29,0,0,1,8,8.41l-.12.17A5.24,5.24,0,0,1,259,95.31a5.61,5.61,0,0,1-4.17-1.9,14,14,0,0,0-3.59-2.89,13.61,13.61,0,0,0-6.7-1.72,13.19,13.19,0,0,0-8,2.62,16.92,16.92,0,0,0-3.3,3.4,34.58,34.58,0,0,0-3.36,5.8c-.27.54-.54,1.1-.81,1.65l-.39.8-.08.17a2.1,2.1,0,0,1-.15.3v0h0c-.39.85-.86,1.77-1.4,2.72a33.56,33.56,0,0,1-2.46,3.85v0c-.32.48-.67,1-1,1.4l-.07.1-.29.38-.31.4a36.54,36.54,0,0,1-9.05,8.3A28.74,28.74,0,0,1,198.8,125.22Z"/><path class="cls-4" d="M290.34,125.22a22.93,22.93,0,0,1-9.86-2.3,23.61,23.61,0,0,1-7.85-6.08l.61-.58a7.23,7.23,0,0,1,8.75-1,17.09,17.09,0,0,0,8.78,2.55,15,15,0,0,0,2.77-.26,14.64,14.64,0,0,0-1.45-28.94c-.45,0-.91-.06-1.36-.06a18.22,18.22,0,0,0-9.49,2.84c-4.77,2.93-9,7.72-12.46,14.24a.47.47,0,0,0-.1.2,2.37,2.37,0,0,0-.19.34s-.05.1-.08.16c-2.94,5.61-6.27,12-12.2,15.67a20.49,20.49,0,0,1-10.83,3,21,21,0,0,1-10.83-2.93,21.32,21.32,0,0,1-8-8.42l.12-.16a5.24,5.24,0,0,1,4.32-2.25,5.64,5.64,0,0,1,4.17,1.89,13.76,13.76,0,0,0,3.59,2.89,13.62,13.62,0,0,0,6.7,1.73,13.2,13.2,0,0,0,8-2.63,16.92,16.92,0,0,0,3.3-3.4,34.58,34.58,0,0,0,3.36-5.8c.27-.54.55-1.1.81-1.65l.39-.8.08-.17c.05-.1.09-.2.15-.3h0c.39-.86.86-1.77,1.4-2.73a35.4,35.4,0,0,1,2.46-3.85h0c.32-.49.67-1,1-1.41l.07-.1.29-.38c.11-.13.21-.27.31-.4a36.54,36.54,0,0,1,9.05-8.3,28.74,28.74,0,0,1,15-4.48,22.35,22.35,0,0,1,7.93,1.41,22,22,0,0,1,13.12,14.67,22.1,22.1,0,0,1-12,25.53,22.8,22.8,0,0,1-9.82,2.27Z"/><text class="cls-5" transform="translate(186.33 155.42)">C<tspan class="cls-6" x="12.91" y="0">ONTINUOUS</tspan><tspan class="cls-7"><tspan x="-1.23" y="19.69">P</tspan><tspan class="cls-8" x="12.45" y="19.69">L</tspan><tspan class="cls-9" x="25.36" y="19.69">A</tspan><tspan class="cls-10" x="39.96" y="19.69">Y</tspan><tspan class="cls-11" x="54.55" y="19.69">B</tspan><tspan class="cls-12" x="67.96" y="19.69">A</tspan><tspan class="cls-10" x="83.59" y="19.69">CK</tspan></tspan></text><rect class="cls-3" y="277.04" width="490.94" height="39.98"/><rect class="cls-4" y="274.73" width="490.94" height="2.31"/><rect class="cls-1" x="8.14" y="286.24" width="22.32" height="22.32"/><path class="cls-13" d="M205,297v.62h1.41V297Zm-2.82.62h1.41V297h-1.41Zm-2.82.16h1.41v-.94h-1.41Zm-2.82.16h1.41v-1.25h-1.41Zm-2.82.15h1.41v-1.56h-1.41Zm-2.82.47h1.41V296h-1.41Zm-2.82.78h1.41v-4.06h-1.41Zm-2.83,2h1.41v-8.12h-1.41Zm-2.82-.78h1.41V294H182.4Zm-2.82,1.56H181v-9.68h-1.41ZM176.76,300h1.41v-5.32h-1.41Zm-2.82-1.88h1.41v-1.56h-1.41Zm-2.82.63h1.41v-2.82h-1.41Zm-2.83.93h1.41V295h-1.41Zm-2.82-.31h1.41v-4.06h-1.41Zm-2.82-.47h1.41v-3.12h-1.41Zm-2.82,3h1.41v-9.06h-1.41ZM157,305.26h1.41V289.32H157Zm-2.82-.78h1.41V290.1h-1.41Zm-2.83-4.22h1.41v-5.94h-1.41Zm-2.82,1.56H150v-9.06h-1.41Zm-2.82-3.9h1.41v-1.25h-1.41Zm-2.82.46h1.41V296.2H142.9Zm-2.82.63h1.41v-3.44h-1.41Zm-2.82.94h1.41v-5.32h-1.41Zm-2.82,2.18h1.41v-9.68h-1.41Zm-2.83,1.41H133V291h-1.41Zm-2.82-.94h1.41V292h-1.41ZM126,304.48h1.41V290.1H126Zm-2.82,1.87h1.41V288.23h-1.41Zm-2.82,1.1h1.41V287.13h-1.41Zm-2.82-1.72h1.41V288.85h-1.41Zm-2.83-1.25h1.41V290.1h-1.41Zm-2.82,1.09h1.41V289h-1.41ZM109,303.85h1.41V290.73H109Zm-2.82-3.43h1.41v-6.25h-1.41Zm-2.82,1.09h1.41v-8.44H103.4Zm-2.82-3H102V296h-1.41Zm-2.82,1.25h1.4v-5h-1.4Zm-2.83,3.13h1.41V291.67H94.93Zm-2.82-.79h1.41v-9.68H92.11Zm-2.82,1.57H90.7V290.88H89.29Zm-2.82,1.71h1.41V289.17H86.47Zm-2.82-4.68h1.41v-6.88H83.65Zm-2.82,1.87h1.41V292H80.83Zm-2.83-2h1.41V294H78Zm-8.31-.89H71V294.9H69.69Zm-2.68.78h1.34v-6.34H67Zm-2.68-2.83h1.34V297H64.33Zm-2.68.77H63v-2.22H61.65ZM59,299H60.3v-3.34H59Zm16.21-.73h1.41v-1.88H75.18Zm-19,0h1.41v-1.88H56.14Zm16.22.31h1.41V296H72.36Z"/><path class="cls-13" d="M449,297v.62h1.41V297Zm-2.82.62h1.41V297h-1.41Zm-2.82.16h1.41v-.94h-1.41Zm-2.82.16h1.41v-1.25h-1.41Zm-2.82.15h1.41v-1.56h-1.41Zm-2.82.47h1.41V296h-1.41Zm-2.82.78h1.41v-4.06h-1.41Zm-2.83,2h1.41v-8.12h-1.41Zm-2.82-.78h1.41V294H426.4Zm-2.82,1.56H425v-9.68h-1.41ZM420.76,300h1.41v-5.32h-1.41Zm-2.82-1.88h1.41v-1.56h-1.41Zm-2.82.63h1.41v-2.82h-1.41Zm-2.83.93h1.41V295h-1.41Zm-2.82-.31h1.41v-4.06h-1.41Zm-2.82-.47h1.41v-3.12h-1.41Zm-2.82,3h1.41v-9.06h-1.41ZM401,305.26h1.41V289.32H401Zm-2.82-.78h1.41V290.1h-1.41Zm-2.83-4.22h1.41v-5.94h-1.41Zm-2.82,1.56H394v-9.06h-1.41Zm-2.82-3.9h1.41v-1.25h-1.41Zm-2.82.46h1.41V296.2H386.9Zm-2.82.63h1.41v-3.44h-1.41Zm-2.82.94h1.41v-5.32h-1.41Zm-2.82,2.18h1.41v-9.68h-1.41Zm-2.83,1.41H377V291h-1.41Zm-2.82-.94h1.41V292h-1.41ZM370,304.48h1.41V290.1H370Zm-2.82,1.87h1.41V288.23h-1.41Zm-2.82,1.1h1.41V287.13h-1.41Zm-2.82-1.72h1.41V288.85h-1.41Zm-2.83-1.25h1.41V290.1h-1.41Zm-2.82,1.09h1.41V289h-1.41ZM353,303.85h1.41V290.73H353Zm-2.82-3.43h1.41v-6.25h-1.41Zm-2.82,1.09h1.41v-8.44H347.4Zm-2.82-3H346V296h-1.41Zm-2.82,1.25h1.4v-5h-1.4Zm-2.83,3.13h1.41V291.67h-1.41Zm-2.82-.79h1.41v-9.68h-1.41Zm-2.82,1.57h1.41V290.88h-1.41Zm-2.82,1.71h1.41V289.17h-1.41Zm-2.82-4.68h1.41v-6.88h-1.41Zm-2.82,1.87h1.41V292h-1.41Zm-2.83-2h1.41V294H322Zm-8.31-.89H315V294.9h-1.34Zm-2.68.78h1.34v-6.34H311Zm-2.68-2.83h1.34V297h-1.34Zm-2.68.77H307v-2.22h-1.34ZM303,299h1.33v-3.34H303Zm16.21-.73h1.41v-1.88h-1.41Zm-19,0h1.41v-1.88h-1.41Zm16.22.31h1.41V296h-1.41Z"/><path class="cls-13" d="M296.76,297.92h1.41v-1.25h-1.41Zm-2.82.46h1.41V296.2h-1.41Zm-2.82.63h1.41v-3.44h-1.41Zm-2.82.94h1.4v-5.32h-1.4Zm-2.83,2.18h1.41v-9.68h-1.41Zm-2.82,1.41h1.41V291h-1.41Zm-2.82-.94h1.41V292h-1.41ZM277,304.48h1.41V290.1H277Zm-2.82,1.87h1.41V288.23h-1.41Zm-2.82,1.1h1.41V287.13h-1.41Zm-2.83-1.72H270V288.85h-1.41Zm-2.82-1.25h1.41V290.1h-1.41Zm-2.82,1.09h1.41V289H262.9Zm-2.82-1.72h1.41V290.73h-1.41Zm-2.82-3.43h1.41v-6.25h-1.41Zm-2.82,1.09h1.41v-8.44h-1.41Zm-2.83-3H253V296h-1.41Zm-2.82,1.25h1.41v-5h-1.41ZM246,302.92h1.41V291.67H246Zm-2.82-.79h1.41v-9.68h-1.41Zm-2.82,1.57h1.41V290.88h-1.41Zm-2.82,1.71h1.41V289.17h-1.41Zm-2.82-4.68h1.41v-6.88h-1.41Zm-2.83,1.87h1.41V292h-1.41Zm-2.82-2h1.41V294H229Zm-8.31-.89h1.34V294.9h-1.34Zm-2.68.78h1.34v-6.34h-1.34Zm-2.68-2.83h1.34V297h-1.34Zm-2.69.77H214v-2.22h-1.34ZM210,299h1.34v-3.34H210Zm16.22-.73h1.41v-1.88h-1.41Zm-19,0h1.41v-1.88h-1.41Zm16.22.31h1.41V296H223.4Z"/><path class="cls-14" d="M18.68,296.36v-6a6.61,6.61,0,0,0,0,13.22v-6a6.61,6.61,0,0,0,6.58,6V290.37A6.62,6.62,0,0,0,18.68,296.36Z"/></g></g></svg>