<svg xmlns="http://www.w3.org/2000/svg" viewBox="0 0 490.35 317"><defs><style>.cls-1{fill:#7400df;}.cls-2{opacity:0.1;}.cls-3{fill:#151a1e;}.cls-4{fill:#fff;}.cls-5,.cls-6{fill:#ff0080;}.cls-6{opacity:0.3;}</style></defs><g id="Layer_2" data-name="Layer 2"><g id="_ÎÓÈ_1" data-name="—ÎÓÈ_1"><rect class="cls-1" width="490.23" height="317"/><polygon class="cls-2" points="71.16 214 200.3 317 490.36 317 490.36 158.9 418.16 98 71.16 214"/><rect class="cls-3" x="71.56" y="97.8" width="346.84" height="116.2"/><rect class="cls-1" x="81.36" y="107.6" width="97.8" height="97.8"/><path class="cls-4" d="M127.54,151.93V125.7a29,29,0,1,0,0,57.93V157.41a29,29,0,0,0,28.83,26.22V125.7A29,29,0,0,0,127.54,151.93Z"/><path class="cls-5" d="M216.4,155.69l26.35-18.95a.35.35,0,0,1,.39,0,.42.42,0,0,1,.2.36V175a.4.4,0,0,1-.59.37l-26.35-19a.41.41,0,0,1-.19-.36A.43.43,0,0,1,216.4,155.69Z"/><rect class="cls-5" x="212.91" y="136.52" width="4.17" height="38.95"/><path class="cls-5" d="M380.67,155.69l-26.35-18.95a.35.35,0,0,0-.39,0,.42.42,0,0,0-.2.36V175a.4.4,0,0,0,.59.37l26.35-19a.41.41,0,0,0,.19-.36A.43.43,0,0,0,380.67,155.69Z"/><rect class="cls-5" x="379.99" y="136.52" width="4.17" height="38.95" transform="translate(764.15 312) rotate(-180)"/><path class="cls-6" d="M323.72,155.66l-42.59-24.59a.59.59,0,0,0-.55,0,.55.55,0,0,0-.27.48v49.18a.53.53,0,0,0,.54.54.55.55,0,0,0,.28-.07l42.59-24.59a.55.55,0,0,0,0-1Z"/></g></g></svg>