<svg xmlns="http://www.w3.org/2000/svg" viewBox="0 0 490.35 317"><defs><style>.cls-1{fill:#7400df;}.cls-2{opacity:0.1;}.cls-3{fill:#151a1e;}.cls-4{fill:#fff;}.cls-5{fill:#ff0080;}</style></defs><g id="Layer_2" data-name="Layer 2"><g id="_ÎÓÈ_1" data-name="—ÎÓÈ_1"><rect class="cls-1" width="490.23" height="317"/><polygon class="cls-2" points="71.16 214 200.3 317 490.36 317 490.36 158.9 418.16 98 71.16 214"/><rect class="cls-3" x="71.56" y="97.8" width="346.84" height="116.2"/><rect class="cls-1" x="81.36" y="107.6" width="97.8" height="97.8"/><path class="cls-4" d="M127.54,151.93V125.7a29,29,0,1,0,0,57.93V157.41a29,29,0,0,0,28.83,26.22V125.7A29,29,0,0,0,127.54,151.93Z"/><path class="cls-5" d="M309.79,178.68H295.57c-8.34,0-16.16-6.67-25.33-16.68a2.37,2.37,0,1,1,3.5-3.2c7.2,7.86,14.83,15.14,21.83,15.14h14.22a2.37,2.37,0,0,1,0,4.74Z"/><path class="cls-5" d="M262.33,152a2.38,2.38,0,0,1-1.75-.77c-7.23-7.91-14.89-15.23-21.9-15.23H229.2a2.37,2.37,0,1,1,0-4.74h9.48c9.29,0,18,8.66,25.4,16.77a2.37,2.37,0,0,1-1.75,4Z"/><path class="cls-5" d="M297.94,190.53a2.37,2.37,0,0,1-1.67-4l10.17-10.18-10.18-10.17a2.38,2.38,0,1,1,3.36-3.36l11.85,11.86a2.38,2.38,0,0,1,0,3.35l-11.85,11.85A2.37,2.37,0,0,1,297.94,190.53Z"/><path class="cls-5" d="M297.94,147.87a2.38,2.38,0,0,1-1.67-4.05l10.17-10.18-10.18-10.17a2.37,2.37,0,0,1,3.36-3.35L311.47,132a2.38,2.38,0,0,1,0,3.35l-11.85,11.85A2.38,2.38,0,0,1,297.94,147.87Z"/><path class="cls-5" d="M238.68,178.68H229.2a2.37,2.37,0,1,1,0-4.74h9.48c8.42,0,17.7-10.44,26.67-20.54,9.67-10.88,19.67-22.13,30.22-22.13h14.22a2.37,2.37,0,1,1,0,4.74H295.57c-8.42,0-17.7,10.45-26.67,20.54C259.23,167.43,249.23,178.68,238.68,178.68Z"/><path class="cls-4" d="M417,134c-27.18-21-25.35-19.65-26-19.76a1.38,1.38,0,0,0-1.38.58c-.39.5,0-.54-5,18l10,.49a7.73,7.73,0,0,1,7.11,5.88l6.34,26.4c11.08-29.55,10.38-27.43,10.39-28.33A4.18,4.18,0,0,0,417,134Zm-6.26,8.51c-1.39,1.35-3.55.61-4.83-1.43-2.12-3.38-.61-7.63,2.35-6.9S413,140.27,410.72,142.46Zm35-14c-.1-.37-.43-.43-.8-.3-23.42,8-21.66,7.35-22.32,7.84a6.8,6.8,0,0,0-2.18,2.85c-11.71,30.66-11.08,28.84-11.07,29.32s.2.64.61.63-1,.62,21.62-10.42a6.32,6.32,0,0,0,2.42-2.72C446.15,128.52,446,129.23,445.77,128.49Zm-15.91,20c-2.53,3.85-6,4.45-4.54.85a9.88,9.88,0,0,1,1.8-2.76C430.22,143.14,432.43,144.56,429.86,148.49Zm14.67-23.62c-.39-.44,1.19.69-24.58-16.88a5.59,5.59,0,0,0-3.53-.95c-24.71,4.49-23.22,4.16-23.58,4.43-.6.44-.18,1.11.45,1.59,26.93,20.53,25.68,19.83,27.45,20.26a4.06,4.06,0,0,0,2.13,0c23.05-7.61,21.79-7.11,22-7.43S444.79,125.16,444.53,124.87Zm-36-7.4c-2.17.49-5.9-.84-7-2.48-1.29-1.94,2.08-2.72,5.57-1.15C409.88,115.09,410.61,117,408.5,117.47Zm6.5-6.66c.94-.89,4.21-.34,6.28,1.09,3.16,2.17.15,3.7-3.93,1.88C415.52,113,414.16,111.59,415,110.81Zm8.31,17.6c-2.6.79-7.56-1.49-7.69-3.55s4.4-1.81,7.29.29C424.74,126.48,424.88,127.93,423.31,128.41Zm9.92-4c-2.22-.57-4.28-2-4.49-3.16-.31-1.79,3.77-1.62,6.57.33S436.86,125.37,433.23,124.43Zm-93.49,40c-1.41-3.82,1.08-5.12,3.93-2a9.93,9.93,0,0,1,2,3.26c1.35,3.78-1.14,5-4,1.94a9.7,9.7,0,0,1-1.94-3.16Zm7,19c-1.3-3.53,1.21-4.45,4-1.4s3,7,.35,6.18c-1.63-.5-3.55-2.65-4.34-4.78Zm2-17.15c-.46-1.3-.66-3.13.5-3.72,1.4-.72,3.72,1,5.11,3.24,1.92,3.13,1.48,6.09-.89,5.56-1.78-.4-3.87-2.66-4.72-5.08Zm7,19.75c-1.05-3,.62-4.28,3.1-2.56,3.19,2.2,4.79,7,2.63,7.63-1.77.49-4.73-2.23-5.73-5.07Zm2.91-17.71a4.34,4.34,0,0,1-.07-3.07c.82-1.7,3.17-1,5,1,3.27,3.45,3.23,8.14.05,7.43-1.94-.44-4.16-2.81-5-5.33Zm6.87,20.54c-.44-1.32-.47-3,.8-3.35,2.39-.72,6.6,3.77,6.48,7a2,2,0,0,1-.33,1.13c-1.36,2-5.7-1-6.95-4.77Zm11.74,9.93-11.59-36.56c-.56-1.78-2.14-3.48-3.53-3.7-28.2-4.51-26.36-4.31-26.75-4.06-.67.43-.48,1.65-.17,2.47l12,32.34a5.63,5.63,0,0,0,2.83,3.14c27.7,9.06,26,8.59,26.53,8.48s1.09-.77.66-2.11ZM362.9,138.19c2.84-1.68,7.57-2.3,7.59-1,0,.55-.85,1.14-1.31,1.42-2.88,1.74-7.78,2.36-7.66,1,0-.55.9-1.13,1.38-1.41Zm-15.72,9.29a12,12,0,0,1,1.61-.78c4.89-2,8.31-.77,4.55,1.51-3.21,1.94-8.19,2.48-7.81.88.15-.63,1.09-1.27,1.65-1.61Zm15.36-4.09c3.7-2.25,9.58-2.4,7.7-.23s-9.33,3.68-9.17,1.8c.05-.62.94-1.25,1.47-1.57Zm15.56-4.15a12.9,12.9,0,0,1,3.3-1.36c5.39-1.43,7,.72,2.3,2.66-4.86,2-9.15.93-5.6-1.3Zm-16,10a14,14,0,0,1,5.41-1.83c5.12-.58,3.63,2.74-2,4.21-4.52,1.19-6.69-.32-3.41-2.38Zm5.81,5.53c29.67-19.53,28-18.35,28.26-18.74.43-.61-.26-.9-1.07-.94-28.68-1.4-27.68-1.63-30.06-.68a7,7,0,0,0-.95.45c-29,16.87-27.2,15.8-27.64,16.21-.6.56-.53,1,.26,1.14,28.57,4.24,26.37,4,27.31,3.89a9.25,9.25,0,0,0,3.89-1.33ZM401,177a6.69,6.69,0,0,0,2-4.73c.16-4.3-3.2-5.78-5.27-2.39s-.81,8.31,2,7.74A3,3,0,0,0,401,177Zm-14.43,11.93a6.39,6.39,0,0,0,1.93-3.13c1.28-4.4-1.54-7.8-4.45-5.51s-3.09,8.34-.18,9.31a2.81,2.81,0,0,0,2.7-.67ZM395.87,157c1.75-1.29,2.56-4.31,2-6.71-1-4.06-4.94-3.68-6.2.59s1.45,8.18,4.24,6.12ZM380.54,168.3a6,6,0,0,0,2-3.14c1.35-4.54-1.7-8.39-4.79-6.24s-3.29,8.53-.15,9.85a2.92,2.92,0,0,0,2.89-.47Zm-10.82-11.68c29.7-19.86,27.76-18.68,28.4-18.7,1,0,1.68.94,1.93,2,8.91,37.06,8.39,34.56,8.35,35.45a4.41,4.41,0,0,1-1.3,3.07c-26.28,22.41-24.6,21.1-25.3,21.29a1.78,1.78,0,0,1-2.18-1.43l-11.43-36.65a4.67,4.67,0,0,1,1.53-5Z"/></g></g></svg>