<svg xmlns="http://www.w3.org/2000/svg" viewBox="0 0 490.35 317"><defs><style>.cls-1{fill:#7400df;}.cls-2{opacity:0.1;}.cls-3{fill:#151a1e;}.cls-4{fill:#fff;}.cls-5{fill:#ff0080;}</style></defs><g id="Layer_2" data-name="Layer 2"><g id="_ÎÓÈ_1" data-name="—ÎÓÈ_1"><rect class="cls-1" width="490.23" height="317"/><polygon class="cls-2" points="71.16 214 200.3 317 490.36 317 490.36 158.9 418.16 98 71.16 214"/><rect class="cls-3" x="71.56" y="97.8" width="346.84" height="116.2"/><rect class="cls-1" x="81.36" y="107.6" width="97.8" height="97.8"/><path class="cls-4" d="M127.54,151.93V125.7a29,29,0,1,0,0,57.93V157.41a29,29,0,0,0,28.83,26.22V125.7A29,29,0,0,0,127.54,151.93Z"/><path class="cls-5" d="M267.13,133.44a1.44,1.44,0,0,0,.3-.9,1.49,1.49,0,0,0-.6-1.2,31.79,31.79,0,0,0-36.74-1l-5-3.75h0a2.83,2.83,0,0,0-4.56,2.38h0l.08,12.37h0a2.68,2.68,0,0,0,1.06,2.09,2.65,2.65,0,0,0,2.31.42h0l11.65-3.35h0a2.92,2.92,0,0,0,2.19-2.07,3.18,3.18,0,0,0,.09-.74,2.86,2.86,0,0,0-1.14-2.29h0l-4.17-3.16A28.7,28.7,0,0,1,265,133.75,1.49,1.49,0,0,0,267.13,133.44Zm-43.55-4.22,5.44,4.12a1.37,1.37,0,0,0,.24.18l5.51,4.17-11.11,3.19Z"/><path class="cls-5" d="M275.79,150.15l-.3-1.26-.65-2-.76-1.93-.9-1.84-1.05-1.78-1.18-1.7-1.28-1.59-1.44-1.56a1.5,1.5,0,0,1,2.21-2l1.47,1.59.07.08,1.35,1.67.07.09,1.23,1.8.06.08,1.11,1.87.06.11.95,1.95a.54.54,0,0,1,.05.11l.8,2,0,.08.68,2.07,0,.12.32,1.31a1.47,1.47,0,0,1,0,.36,1.51,1.51,0,0,1-3,.35Z"/><path class="cls-5" d="M269.37,175.9l1.35-1.62,1.17-1.66,1.06-1.78.95-1.85.8-1.9.68-1.93.52-2,.38-2,.23-2,.07-2.05,0-1.46a1.51,1.51,0,1,1,3-.08l0,1.51v0a.13.13,0,0,1,0,.06l-.08,2.15v.11l-.24,2.15s0,.07,0,.1l-.4,2.15a.36.36,0,0,1,0,.11l-.56,2.12a.76.76,0,0,1,0,.11l-.71,2a.2.2,0,0,1,0,.08l-.83,2a.93.93,0,0,1,0,.1l-1,2a.56.56,0,0,0-.05.08l-1.11,1.87a.61.61,0,0,1-.07.1l-1.23,1.75-.07.1-1.4,1.67a1.51,1.51,0,0,1-2.31-1.93Z"/><path class="cls-5" d="M247.39,188.64l-2.19-.12h-.08l-.72-.08a1.51,1.51,0,1,1,.34-3l.67.08,2.08.11,2-.07,2.05-.19,2-.34,2-.5,2-.6,1.88-.79,1.87-.91,1.78-1,1.74-1.17.51-.4a1.51,1.51,0,0,1,2.12.25,1.48,1.48,0,0,1,.32.93,1.53,1.53,0,0,1-.57,1.19l-.56.43-.09.07-1.83,1.23-.09.06-1.87,1.07-.09,0-1.95,1-.08,0-2,.84-.14,0-2.07.64-.09,0-2.11.52-.11,0-2.15.36h-.11l-2.15.2h-.08l-2.15.08Z"/><path class="cls-5" d="M222.61,170.8l.74,1.24,1.18,1.75,1.25,1.59,1.4,1.55,1.47,1.4,1.59,1.32,1.7,1.21,1.74,1.06,1.82,1,1.93.83,1.93.66a1.5,1.5,0,0,1,1,1.42,1.67,1.67,0,0,1-.08.49,1.51,1.51,0,0,1-1.91.94l-2-.68-.11,0-2-.88-.1-.05-1.91-1-.09,0-1.83-1.11-.09-.06-1.79-1.28-.09-.07-1.67-1.39-.08-.06-1.55-1.48A.6.6,0,0,1,225,179l-1.47-1.63-.07-.08-1.31-1.67-.07-.09-1.23-1.83-.05-.08-.75-1.27a1.5,1.5,0,0,1,2.58-1.54Z"/><path class="cls-5" d="M331,133.75a28.69,28.69,0,0,1,32.38-1.45l-4.16,3.16h0a2.87,2.87,0,0,0-1.15,2.29,2.74,2.74,0,0,0,.1.74,2.89,2.89,0,0,0,2.19,2.07h0L372,143.91h0a2.64,2.64,0,0,0,3.37-2.51h0l.08-12.37h0a2.83,2.83,0,0,0-4.56-2.38h0l-5,3.75a31.78,31.78,0,0,0-36.74,1,1.47,1.47,0,0,0-.61,1.2,1.51,1.51,0,0,0,2.41,1.21Zm41.37,7.13-11.11-3.19,5.5-4.17a1.44,1.44,0,0,0,.25-.18l5.43-4.12Z"/><path class="cls-5" d="M318.44,151.26a1.51,1.51,0,0,1-1.16-1.46,1.49,1.49,0,0,1,.05-.36l.32-1.31,0-.12.68-2.07a.31.31,0,0,1,0-.08l.8-2,.05-.11.95-1.95.06-.11,1.12-1.87a.22.22,0,0,1,.05-.08l1.23-1.8.07-.09,1.36-1.67.06-.08,1.48-1.59a1.5,1.5,0,0,1,2.21,2l-1.44,1.56-1.29,1.59-1.17,1.7-1.06,1.78L322,145l-.76,1.93-.64,2-.3,1.26A1.51,1.51,0,0,1,318.44,151.26Z"/><path class="cls-5" d="M326.48,178a1.51,1.51,0,0,1-2.12-.19L323,176.16a.61.61,0,0,1-.07-.1l-1.24-1.75-.06-.1-1.12-1.87a.59.59,0,0,0,0-.08l-1-2a1,1,0,0,1,0-.1l-.84-2,0-.08-.72-2s0-.08,0-.11l-.55-2.12,0-.11-.4-2.15s0-.07,0-.1l-.24-2.15s0-.08,0-.11l-.08-2.15V157l0-1.51a1.51,1.51,0,1,1,3,.08l0,1.46.08,2.05.22,2,.38,2,.53,2,.68,1.93.8,1.9.94,1.85,1.07,1.78,1.16,1.66,1.36,1.62A1.51,1.51,0,0,1,326.48,178Z"/><path class="cls-5" d="M348.52,188.65l-2.15-.08h-.09l-2.15-.2H344l-2.15-.36-.12,0-2.11-.52-.08,0-2.07-.64-.14,0-2-.84-.08,0-2-1-.09,0-1.87-1.07-.09-.06-1.83-1.23-.09-.07-.56-.43a1.51,1.51,0,0,1-.58-1.19,1.51,1.51,0,0,1,2.44-1.18l.51.4,1.75,1.17,1.78,1,1.86.91,1.89.79,2,.6,2,.5,2,.34,2.06.19,2,.07,2.08-.11.67-.08a1.51,1.51,0,0,1,.33,3l-.72.08h-.08l-2.19.12Z"/><path class="cls-5" d="M375.49,170.28a1.5,1.5,0,0,1,.53,2.06l-.76,1.27s0,0,0,.08L374,175.52l-.06.09-1.31,1.67-.07.08L371.07,179l-.09.08-1.55,1.48-.07.06L367.69,182l-.09.07-1.79,1.28-.09.06-1.84,1.11-.08,0-1.91,1-.1.05-2,.88-.12,0-2,.68a1.51,1.51,0,0,1-1.91-.94,1.66,1.66,0,0,1-.07-.49,1.5,1.5,0,0,1,1-1.42l1.93-.66,1.92-.83,1.82-1,1.74-1.06,1.71-1.21,1.59-1.32,1.47-1.4,1.4-1.55,1.25-1.59L372.7,172l.73-1.24A1.5,1.5,0,0,1,375.49,170.28Z"/><path class="cls-5" d="M244.47,167h-3.65V153.22H236v-2.54a5.89,5.89,0,0,0,3.53-1.1,4.45,4.45,0,0,0,1.77-2.68h3.22Z"/><path class="cls-5" d="M247,161.44l3.51-.9a3.91,3.91,0,0,0,4.06,3.75,3.87,3.87,0,0,0,2.71-1,3.43,3.43,0,0,0,1.1-2.66,3.46,3.46,0,0,0-1.11-2.74,4.07,4.07,0,0,0-2.76-1,4.26,4.26,0,0,0-3.35,1.4l-3.5-1.27,2.48-10.14h11v3.25H252.6l-1.24,5.09a5.07,5.07,0,0,1,3.84-1.4,7,7,0,0,1,5,1.8,6.41,6.41,0,0,1,1.9,4.9,6.62,6.62,0,0,1-2.07,4.93,7.54,7.54,0,0,1-5.49,2,7.86,7.86,0,0,1-5.27-1.79A6.06,6.06,0,0,1,247,161.44Z"/><path class="cls-5" d="M336.07,157.88l-1.71-2.76,5.55-5h-9.15V146.9h14V150l-5.46,4.77a6.34,6.34,0,0,1,4.22,1.71,5.7,5.7,0,0,1,1.79,4.4,6.15,6.15,0,0,1-2,4.65,7.68,7.68,0,0,1-5.49,1.93,7.81,7.81,0,0,1-5.41-1.85,6.46,6.46,0,0,1-2.25-4.51l3.63-.74a4,4,0,0,0,1.19,2.82,3.92,3.92,0,0,0,2.81,1.08,3.84,3.84,0,0,0,2.79-1,3.25,3.25,0,0,0,1-2.42,3,3,0,0,0-1.07-2.46,3.86,3.86,0,0,0-2.49-.86A4.22,4.22,0,0,0,336.07,157.88Z"/><path class="cls-5" d="M346.76,156.94a12.84,12.84,0,0,1,1.8-7.22,7.87,7.87,0,0,1,12.8,0,15.4,15.4,0,0,1,0,14.45,7.87,7.87,0,0,1-12.8,0A12.86,12.86,0,0,1,346.76,156.94Zm3.69,0q0,3.92,1.43,5.74a3.65,3.65,0,0,0,3.1,1.49,3.78,3.78,0,0,0,3.1-1.49q1.4-1.8,1.39-5.74t-1.39-5.73a3.78,3.78,0,0,0-3.1-1.49,3.65,3.65,0,0,0-3.1,1.49Q350.46,153,350.45,156.94Z"/></g></g></svg>