<svg xmlns="http://www.w3.org/2000/svg" viewBox="0 0 490.35 317"><defs><style>.cls-1{fill:#7400df;}.cls-2{opacity:0.1;}.cls-3,.cls-5{fill:#151a1e;}.cls-4{fill:#fff;}.cls-5{font-size:34.78px;font-family:CircularStd-Medium, Circular Std;font-weight:500;letter-spacing:-0.03em;}.cls-6{fill:#ff0080;}</style></defs><g id="Layer_2" data-name="Layer 2"><g id="_ÎÓÈ_1" data-name="—ÎÓÈ_1"><rect class="cls-1" width="490.23" height="317"/><polygon class="cls-2" points="71.16 214 200.3 317 490.36 317 490.36 158.9 418.16 98 71.16 214"/><rect class="cls-3" x="71.56" y="97.8" width="346.84" height="116.2"/><rect class="cls-1" x="81.36" y="107.6" width="97.8" height="97.8"/><path class="cls-4" d="M127.54,151.93V125.7a29,29,0,1,0,0,57.93V157.41a29,29,0,0,0,28.83,26.22V125.7A29,29,0,0,0,127.54,151.93Z"/><rect class="cls-4" x="281.1" y="133.25" width="89.06" height="47.5" rx="6"/><path class="cls-3" d="M345.23,145.52l-7.73,11.62,7.69,11.59h-4.71l-5.4-8.48-5.46,8.48H325l7.76-11.62-7.69-11.59h4.71l5.4,8.51,5.43-8.51Z"/><text class="cls-5" transform="translate(303.65 167.78)">2</text><rect class="cls-6" x="249.74" y="149.14" width="10.57" height="2" transform="translate(-31.47 224.3) rotate(-45)"/><path class="cls-6" d="M249.16,160a4,4,0,1,1,4-4A4,4,0,0,1,249.16,160Zm0-6a2,2,0,1,0,2,2A2,2,0,0,0,249.16,154Z"/><path class="cls-6" d="M249.16,176a20.08,20.08,0,0,1-17.41-10.15l1.75-1a18,18,0,1,0,0-17.76l-1.73-1A20,20,0,1,1,249.16,176Z"/><rect class="cls-6" x="225.16" y="161" width="13" height="2"/><rect class="cls-6" x="221.16" y="155" width="13" height="2"/><rect class="cls-6" x="225.16" y="149" width="13" height="2"/></g></g></svg>