<svg xmlns="http://www.w3.org/2000/svg" viewBox="0 0 490.23 317"><defs><style>.cls-1{fill:#7400df;}.cls-2{opacity:0.1;}.cls-3{fill:#4e5e76;}.cls-4{fill:#fff;}.cls-5{fill:#ff0080;}.cls-6{fill:#fccc00;}.cls-7{fill:#1ed760;}.cls-8{fill:#ccc;}.cls-9{fill:#e6e6e6;}.cls-10{fill:#f2f2f2;}.cls-11{fill:#151a1e;}</style></defs><g id="Layer_2" data-name="Layer 2"><g id="_ÎÓÈ_1" data-name="—ÎÓÈ_1"><rect class="cls-1" width="490.23" height="317"/><polygon class="cls-2" points="99.16 265 198.72 317 490.16 317 490.16 158.18 394.16 36 99.16 265"/><path class="cls-3" d="M396.16,52V41a6,6,0,0,0-6-6h-285a6,6,0,0,0-6,6V52Z"/><rect class="cls-4" x="99.16" y="52" width="297" height="213"/><circle class="cls-5" cx="112.72" cy="43.69" r="3.5" transform="translate(-8.15 46.18) rotate(-22.36)"/><circle class="cls-6" cx="122.26" cy="43.69" r="3.5" transform="translate(-7.43 49.81) rotate(-22.36)"/><circle class="cls-7" cx="131.81" cy="43.69" r="3.5" transform="translate(-6.71 53.44) rotate(-22.36)"/><rect class="cls-8" x="330.42" y="68.75" width="35.27" height="3.31"/><rect class="cls-8" x="115.47" y="211.6" width="77.16" height="47.03"/><rect class="cls-8" x="209.16" y="211.6" width="77.16" height="47.03"/><rect class="cls-8" x="302.86" y="211.6" width="77.16" height="47.03"/><rect class="cls-9" x="115.47" y="191.39" width="85.98" height="6.25"/><rect class="cls-10" x="115.47" y="200.21" width="46.3" height="2.94"/><rect class="cls-8" x="124.28" y="106.28" width="112.44" height="68.53"/><rect class="cls-9" x="124.28" y="88.28" width="85.98" height="6.25"/><rect class="cls-10" x="124.28" y="97.09" width="46.3" height="2.94"/><rect class="cls-10" x="261.71" y="111.06" width="109.5" height="2.94"/><rect class="cls-10" x="261.71" y="118.04" width="109.5" height="2.94"/><rect class="cls-10" x="261.71" y="125.02" width="109.5" height="2.94"/><rect class="cls-10" x="261.71" y="132" width="109.5" height="2.94"/><rect class="cls-10" x="261.71" y="138.98" width="109.5" height="2.94"/><rect class="cls-10" x="261.71" y="145.96" width="109.5" height="2.94"/><rect class="cls-10" x="261.71" y="152.95" width="109.5" height="2.94"/><rect class="cls-10" x="261.71" y="159.93" width="109.5" height="2.94"/><rect class="cls-10" x="261.71" y="166.91" width="109.5" height="2.94"/><rect class="cls-9" x="115.47" y="65.44" width="10.29" height="1.5"/><rect class="cls-9" x="115.47" y="68.19" width="10.29" height="1.5"/><rect class="cls-9" x="115.47" y="70.93" width="10.29" height="1.5"/><rect class="cls-11" x="99.16" y="227.18" width="297" height="37.82"/><rect class="cls-5" x="99.16" y="225" width="297" height="2.18"/><rect class="cls-5" x="106.87" y="235.88" width="21.11" height="21.11"/><path class="cls-10" d="M283.58,246v.59h1.34V246Zm-2.67.59h1.34V246h-1.34Zm-2.67.15h1.34v-.89h-1.34Zm-2.66.15h1.33v-1.19h-1.33Zm-2.67.14h1.33V245.6h-1.33Zm-2.67.45h1.33v-2.37h-1.33Zm-2.67.74h1.33v-3.85h-1.33Zm-2.67,1.92h1.33v-7.69H264.9Zm-2.67-.74h1.33v-6.21h-1.33Zm-2.67,1.48h1.34v-9.17h-1.34Zm-2.67-2.07h1.34v-5h-1.34Zm-2.66-1.78h1.33V245.6h-1.33Zm-2.67.6h1.33V245h-1.33Zm-2.67.88h1.33v-4.43h-1.33Zm-2.67-.29h1.33v-3.85h-1.33Zm-2.67-.45h1.33v-2.95h-1.33Zm-2.67,2.81h1.33v-8.57h-1.33Zm-2.67,3.25h1.34V238.8h-1.34Zm-2.67-.74h1.34V239.54h-1.34Zm-2.67-4h1.34v-5.61h-1.34Zm-2.66,1.48h1.33v-8.57h-1.33Zm-2.67-3.69h1.33v-1.19h-1.33Zm-2.67.44h1.33V245.3h-1.33Zm-2.67.59h1.33v-3.25H222.2Zm-2.67.89h1.33v-5h-1.33Zm-2.67,2.07h1.34v-9.17h-1.34Zm-2.67,1.33h1.34V240.42h-1.34Zm-2.67-.89h1.34V241.31h-1.34Zm-2.66,1.77h1.33V239.54h-1.33Zm-2.67,1.78h1.33V237.76h-1.33Zm-2.67,1h1.33V236.73h-1.33Zm-2.67-1.62h1.33v-16h-1.33Zm-2.67-1.19h1.33V239.54h-1.33Zm-2.67,1h1.33V238.5h-1.33Zm-2.67-1.63h1.34V240.13h-1.34Zm-2.67-3.25h1.34v-5.91h-1.34Zm-2.67,1h1.34v-8H187.5Zm-2.66-2.81h1.33v-2.37h-1.33Zm-2.67,1.18h1.33V244h-1.33Zm-2.67,3h1.33V241H179.5Zm-2.67-.74h1.33v-9.17h-1.33Zm-2.67,1.47h1.33V240.28h-1.33ZM171.49,254h1.34V238.65h-1.34Zm-2.67-4.43h1.34v-6.51h-1.34Zm-2.67,1.77h1.34V241.31h-1.34Zm-2.66-1.92h1.33v-6.21h-1.33Zm-7.87-.85h1.27v-4.51h-1.27Zm-2.53.74h1.26v-6h-1.26Zm-2.54-2.67h1.27V246h-1.27Zm-2.54.72h1.27v-2.09H148Zm-2.53.54h1.26v-3.16h-1.26Zm15.34-.7h1.33v-1.77h-1.33Zm-18,0h1.33v-1.77h-1.33Zm15.34.3h1.33v-2.37h-1.33Z"/><path class="cls-10" d="M370.4,246.93h1.33v-1.19H370.4Zm-2.67.44h1.33V245.3h-1.33Zm-2.67.59h1.33v-3.25h-1.33Zm-2.67.89h1.33v-5h-1.33Zm-2.67,2.07h1.34v-9.17h-1.34Zm-2.67,1.33h1.34V240.42h-1.34Zm-2.66-.89h1.33V241.31h-1.33Zm-2.67,1.77h1.33V239.54h-1.33Zm-2.67,1.78h1.33V237.76h-1.33Zm-2.67,1h1.33V236.73h-1.33Zm-2.67-1.62H345v-16h-1.33ZM341,253.13h1.33V239.54H341Zm-2.67,1h1.34V238.5h-1.34Zm-2.67-1.63H337V240.13H335.7ZM333,249.29h1.34v-5.91H333Zm-2.66,1h1.33v-8h-1.33Zm-2.67-2.81H329v-2.37H327.7ZM325,248.7h1.33V244H325Zm-2.67,3h1.33V241h-1.33Zm-2.67-.74H321v-9.17h-1.33ZM317,252.39h1.34V240.28H317ZM314.35,254h1.34V238.65h-1.34Zm-2.67-4.43H313v-6.51h-1.34ZM309,251.36h1.33V241.31H309Zm-2.67-1.92h1.33v-6.21h-1.33Zm-7.87-.85h1.27v-4.51h-1.27Zm-2.53.74h1.26v-6H296Zm-2.54-2.67h1.27V246h-1.27Zm-2.54.72h1.27v-2.09h-1.27Zm-2.53.54h1.27v-3.16h-1.27Zm15.34-.7H305v-1.77h-1.33Zm-18,0H287v-1.77h-1.33Zm15.34.3h1.33v-2.37H301Z"/><path class="cls-4" d="M116.83,245.45v-5.66a6.26,6.26,0,0,0,0,12.51v-5.66a6.27,6.27,0,0,0,6.23,5.66V239.79A6.27,6.27,0,0,0,116.83,245.45Z"/></g></g></svg>