<svg xmlns="http://www.w3.org/2000/svg" viewBox="0 0 490.35 317"><defs><style>.cls-1{fill:#7400df;}.cls-2{opacity:0.1;}.cls-3,.cls-7{fill:#151a1e;}.cls-4{fill:#f2f2f2;}.cls-5{opacity:0.5;}.cls-6{fill:#ff0080;}.cls-7{font-size:19.12px;font-family:CircularStd-Medium, Circular Std;font-weight:500;letter-spacing:0.06em;}.cls-8{letter-spacing:0.07em;}.cls-9{letter-spacing:-0.01em;}.cls-10{letter-spacing:0.06em;}</style></defs><g id="Layer_2" data-name="Layer 2"><g id="_ÎÓÈ_1" data-name="—ÎÓÈ_1"><rect class="cls-1" width="490.23" height="317"/><polygon class="cls-2" points="71.16 274 200.3 317 490.36 317 490.36 204 418.16 37 72.16 36 71.16 274"/><rect class="cls-3" x="71.56" y="157.8" width="346.84" height="116.2"/><path class="cls-4" d="M389.4,215.06v.78h1.76v-.78Zm-3.54.78h1.76v-.78h-1.76Zm-3.54.2h1.77v-1.18h-1.77Zm-3.54.19h1.77v-1.56h-1.77Zm-3.54.2H377v-2h-1.77Zm-3.54.59h1.77v-3.14H371.7Zm-3.54,1h1.77v-5.1h-1.77Zm-3.54,2.55h1.77V210.36h-1.77Zm-3.54-1h1.77v-8.23h-1.77Zm-3.54,2h1.77V209.38h-1.77ZM354,218.78h1.76v-6.66H354Zm-3.54-2.35h1.77v-2h-1.77Zm-3.54.78h1.77v-3.52h-1.77Zm-3.54,1.18h1.77v-5.88h-1.77Zm-3.54-.39h1.77v-5.1h-1.77Zm-3.54-.59h1.77v-3.92h-1.77Zm-3.54,3.72h1.77V209.77h-1.77Zm-3.54,4.31H331v-20h-1.77Zm-3.54-1h1.77v-18h-1.77Zm-3.53-5.29h1.76v-7.44h-1.76Zm-3.54,2h1.77V209.77h-1.77Zm-3.54-4.9h1.77v-1.56h-1.77Zm-3.54.59h1.77v-2.74h-1.77Zm-3.54.79h1.77v-4.32H308Zm-3.54,1.17h1.77v-6.66h-1.77Zm-3.54,2.75h1.77V209.38h-1.77Zm-3.54,1.76h1.77V207.61h-1.77Zm-3.54-1.18h1.77V208.79h-1.77Zm-3.53,2.35h1.76v-18h-1.76Zm-3.54,2.36h1.77V204.08h-1.77Zm-3.54,1.37H285V202.71h-1.77ZM279.69,226h1.77V204.87h-1.77Zm-3.54-1.57h1.77v-18h-1.77Zm-3.54,1.38h1.77V205.06h-1.77Zm-3.54-2.16h1.77V207.22h-1.77Zm-3.54-4.31h1.77v-7.84h-1.77ZM262,220.74h1.77V210.16H262ZM258.46,217h1.76v-3.14h-1.76Zm-3.54,1.57h1.76v-6.28h-1.76Zm-3.54,3.91h1.77V208.4h-1.77Zm-3.54-1h1.77V209.38h-1.77Zm-3.54,1.95h1.77V207.42H244.3Zm-3.54,2.16h1.77V205.26h-1.77Zm-3.54-5.88H239v-8.62h-1.77Zm-3.54,2.35h1.77V208.79h-1.77Zm-3.54-2.54h1.77v-8.23h-1.77Zm-10.42-1.13h1.68v-6h-1.68Zm-3.37,1H218v-8h-1.68ZM213,215.88h1.68V215H213Zm-3.36,1h1.68v-2.78h-1.68Zm-3.36.71H208v-4.19h-1.68Zm20.34-.92h1.76v-2.36h-1.76Zm-23.88,0h1.76v-2.36h-1.76Zm20.34.39h1.76v-3.14h-1.76Z"/><rect class="cls-3" x="71.56" y="36.8" width="346.84" height="116.2"/><g class="cls-5"><path class="cls-6" d="M143.73,125.23a31.46,31.46,0,1,1,31.46-31.46A31.49,31.49,0,0,1,143.73,125.23Zm0-57.85a26.39,26.39,0,1,0,26.4,26.39A26.42,26.42,0,0,0,143.73,67.38Z"/><path class="cls-6" d="M160,93.51,136.62,80a.34.34,0,0,0-.31,0,.3.3,0,0,0-.15.26v27a.32.32,0,0,0,.3.31.3.3,0,0,0,.16,0L160,94a.3.3,0,0,0,0-.52Z"/></g><path class="cls-4" d="M389.4,94.42v.78h1.76v-.78Zm-3.54.78h1.76v-.78h-1.76Zm-3.54.2h1.77V94.22h-1.77Zm-3.54.2h1.77V94h-1.77Zm-3.54.19H377v-2h-1.77Zm-3.54.59h1.77V93.24H371.7Zm-3.54,1h1.77v-5.1h-1.77Zm-3.54,2.55h1.77V89.72h-1.77Zm-3.54-1h1.77V90.7h-1.77Zm-3.54,2h1.77V88.74h-1.77ZM354,98.14h1.76V91.48H354Zm-3.54-2.35h1.77v-2h-1.77Zm-3.54.79h1.77V93.05h-1.77Zm-3.54,1.17h1.77V91.87h-1.77Zm-3.54-.39h1.77v-5.1h-1.77Zm-3.54-.59h1.77V92.85h-1.77Zm-3.54,3.73h1.77V89.13h-1.77Zm-3.54,4.31H331v-20h-1.77Zm-3.54-1h1.77v-18h-1.77Zm-3.53-5.29h1.76V91.09h-1.76Zm-3.54,2h1.77V89.13h-1.77Zm-3.54-4.9h1.77V94h-1.77Zm-3.54.58h1.77V93.44h-1.77ZM308,97h1.77V92.66H308Zm-3.54,1.17h1.77V91.48h-1.77Zm-3.54,2.75h1.77V88.74h-1.77Zm-3.54,1.76h1.77V87h-1.77Zm-3.54-1.17h1.77V88.15h-1.77Zm-3.53,2.35h1.76v-18h-1.76Zm-3.54,2.35h1.77V83.45h-1.77Zm-3.54,1.37H285V82.07h-1.77Zm-3.54-2.16h1.77V84.23h-1.77Zm-3.54-1.56h1.77v-18h-1.77Zm-3.54,1.37h1.77V84.43h-1.77ZM269.07,103h1.77V86.58h-1.77Zm-3.54-4.31h1.77V90.89h-1.77ZM262,100.1h1.77V89.52H262Zm-3.53-3.72h1.76V93.24h-1.76ZM254.92,98h1.76V91.68h-1.76Zm-3.54,3.92h1.77V87.76h-1.77Zm-3.54-1h1.77V88.74h-1.77Zm-3.54,2h1.77V86.78H244.3ZM240.76,105h1.77V84.62h-1.77Zm-3.54-5.88H239V90.5h-1.77Zm-3.54,2.36h1.77V88.15h-1.77Zm-3.54-2.55h1.77V90.7h-1.77Zm-10.42-1.12h1.68v-6h-1.68Zm-3.37,1H218v-8h-1.68ZM213,95.24h1.68v-.85H213Zm-3.36,1h1.68V93.42h-1.68Zm-3.36.71H208V92.72h-1.68ZM226.61,96h1.76V93.64h-1.76Zm-23.88,0h1.76V93.64h-1.76Zm20.34.39h1.76V93.24h-1.76Z"/><rect class="cls-6" x="100.17" y="199.24" width="87.4" height="32.42" rx="16.21"/><text class="cls-7" transform="translate(120.21 222.34)">P<tspan class="cls-8" x="12.62" y="0">L</tspan><tspan class="cls-9" x="24.63" y="0">A</tspan><tspan class="cls-10" x="37.98" y="0">Y</tspan></text></g></g></svg>