<svg xmlns="http://www.w3.org/2000/svg" viewBox="0 0 490.35 317"><defs><style>.cls-1{fill:#7400df;}.cls-2{opacity:0.1;}.cls-3{fill:#151a1e;}.cls-4{fill:#1ed760;}.cls-5{fill:#ff0080;}.cls-6{font-size:19.12px;fill:#fff;font-family:CircularStd-Medium, Circular Std;font-weight:500;letter-spacing:-0.03em;}.cls-7{letter-spacing:-0.05em;}.cls-8{letter-spacing:-0.02em;}</style></defs><g id="Layer_2" data-name="Layer 2"><g id="_ÎÓÈ_1" data-name="—ÎÓÈ_1"><rect class="cls-1" width="490.23" height="317"/><polygon class="cls-2" points="71.16 214 200.3 317 490.36 317 490.36 158.9 418.16 98 71.16 214"/><rect class="cls-3" x="71.56" y="97.8" width="346.84" height="116.2"/><rect class="cls-1" x="228.79" y="136.09" width="136.38" height="38.75" rx="4.5"/><path class="cls-4" d="M142.36,139.17a16.29,16.29,0,1,0,16.29,16.29,16.29,16.29,0,0,0-16.29-16.29Zm7.47,23.5a1,1,0,0,1-1.4.33c-3.83-2.33-8.64-2.86-14.31-1.57a1,1,0,1,1-.45-2c6.2-1.42,11.53-.81,15.82,1.82a1,1,0,0,1,.34,1.4Zm2-4.44a1.27,1.27,0,0,1-1.75.42,21.39,21.39,0,0,0-16.23-1.9,1.29,1.29,0,0,1-1.59-.85,1.27,1.27,0,0,1,.85-1.58,23.74,23.74,0,0,1,18.3,2.16,1.27,1.27,0,0,1,.42,1.75Zm.17-4.62c-5.25-3.12-13.91-3.4-18.93-1.88a1.52,1.52,0,0,1-.88-2.92c5.75-1.75,15.32-1.41,21.37,2.18a1.52,1.52,0,0,1-1.56,2.62Z"/><path class="cls-5" d="M180.23,156.17a1,1,0,0,1,.71-1.71h24a1,1,0,0,1,0,2h-24A1,1,0,0,1,180.23,156.17Z"/><path class="cls-5" d="M197.2,164.65a1,1,0,0,1,0-1.41l7.78-7.78-7.78-7.78a1,1,0,0,1,0-1.41,1,1,0,0,1,1.42,0l7.78,7.78a2,2,0,0,1,0,2.82l-7.78,7.78A1,1,0,0,1,197.2,164.65Z"/><text class="cls-6" transform="translate(272.17 162.14)">SP<tspan class="cls-7" x="21.82" y="0">O</tspan><tspan x="36.22" y="0">TI</tspan><tspan class="cls-8" x="52.26" y="0">F</tspan><tspan x="62.43" y="0">Y</tspan></text><path class="cls-4" d="M255.36,145.86a9.81,9.81,0,1,0,9.8,9.8,9.81,9.81,0,0,0-9.8-9.8ZM259.85,160a.6.6,0,0,1-.84.2c-2.3-1.4-5.2-1.72-8.61-.94a.62.62,0,0,1-.74-.46.61.61,0,0,1,.46-.73c3.74-.86,6.95-.49,9.53,1.09a.61.61,0,0,1,.2.84Zm1.2-2.67a.76.76,0,0,1-1.05.25,12.85,12.85,0,0,0-9.77-1.14.78.78,0,0,1-1-.51.77.77,0,0,1,.51-1,14.32,14.32,0,0,1,11,1.3.76.76,0,0,1,.25,1.05Zm.11-2.78c-3.16-1.88-8.38-2.05-11.4-1.13a.92.92,0,0,1-1.14-.62.91.91,0,0,1,.61-1.14c3.46-1,9.22-.85,12.86,1.31a.92.92,0,0,1-.93,1.58Z"/></g></g></svg>