<svg xmlns="http://www.w3.org/2000/svg" viewBox="0 0 490.35 317"><defs><style>.cls-1{fill:#7400df;}.cls-2{opacity:0.1;}.cls-3{fill:#151a1e;}.cls-4,.cls-5{fill:#fff;}.cls-5{opacity:0.2;font-size:27.32px;letter-spacing:-0.04em;}.cls-13,.cls-5{font-family:CircularStd-Medium, Circular Std;font-weight:500;}.cls-6{letter-spacing:-0.03em;}.cls-7{letter-spacing:-0.04em;}.cls-8{letter-spacing:-0.03em;}.cls-9{letter-spacing:-0.04em;}.cls-10{letter-spacing:-0.03em;}.cls-11{letter-spacing:-0.04em;}.cls-12{letter-spacing:-0.03em;}.cls-13{font-size:16.95px;letter-spacing:-0.03em;}.cls-13,.cls-17{fill:#ff0080;}.cls-14{letter-spacing:-0.03em;}.cls-15{letter-spacing:-0.03em;}.cls-16{letter-spacing:-0.04em;}</style></defs><g id="Layer_2" data-name="Layer 2"><g id="_ÎÓÈ_1" data-name="—ÎÓÈ_1"><rect class="cls-1" width="490.23" height="317"/><polygon class="cls-2" points="71.16 214 200.3 317 490.36 317 490.36 158.9 418.16 98 71.16 214"/><rect class="cls-3" x="71.56" y="97.8" width="346.84" height="116.2"/><rect class="cls-1" x="81.36" y="107.6" width="97.8" height="97.8"/><path class="cls-4" d="M127.54,151.93V125.7a29,29,0,1,0,0,57.93V157.41a29,29,0,0,0,28.83,26.22V125.7A29,29,0,0,0,127.54,151.93Z"/><text class="cls-5" transform="translate(194.84 149.01)">P<tspan class="cls-6" x="15.41" y="0">l</tspan><tspan class="cls-7" x="21.8" y="0">a</tspan><tspan class="cls-8" x="35.18" y="0">ylist </tspan><tspan class="cls-9" x="88.83" y="0">T</tspan><tspan class="cls-10" x="104.24" y="0">i</tspan><tspan class="cls-11" x="110.66" y="0">t</tspan><tspan class="cls-12" x="119.48" y="0">le</tspan></text><text class="cls-13" transform="translate(217.84 175.48)">1 h<tspan class="cls-14" x="18.78" y="0">o</tspan><tspan class="cls-15" x="28.03" y="0">ur 34 mi</tspan><tspan class="cls-16" x="87.16" y="0">n</tspan><tspan class="cls-15" x="96.26" y="0">u</tspan><tspan class="cls-14" x="105.53" y="0">t</tspan><tspan x="111.15" y="0">es</tspan></text><path class="cls-17" d="M204.16,163a7,7,0,1,0,7,7A7,7,0,0,0,204.16,163Zm2.31,10.29-3-3V165.8h1.4v3.91l2.6,2.6Z"/></g></g></svg>