<svg xmlns="http://www.w3.org/2000/svg" viewBox="0 0 490.35 317"><defs><style>.cls-1{fill:#7400df;}.cls-2{opacity:0.1;}.cls-3{fill:#fff;}.cls-4,.cls-6{fill:#151a1e;}.cls-5{fill:#f2f2f2;}.cls-6{opacity:0.05;}.cls-14,.cls-15,.cls-7{opacity:0.5;}.cls-7{font-size:13.07px;letter-spacing:-0.04em;}.cls-15,.cls-17,.cls-22,.cls-7{font-family:CircularStd-Medium, Circular Std;font-weight:500;}.cls-8{letter-spacing:-0.03em;}.cls-9{letter-spacing:-0.03em;}.cls-10{letter-spacing:-0.04em;}.cls-11{letter-spacing:-0.03em;}.cls-12{letter-spacing:-0.04em;}.cls-13{letter-spacing:-0.03em;}.cls-15{font-size:6px;fill:#4e5e76;letter-spacing:-0.03em;}.cls-16{letter-spacing:-0.03em;}.cls-17,.cls-22{font-size:10px;fill:#ff0080;}.cls-17{letter-spacing:-0.03em;}.cls-18{letter-spacing:-0.03em;}.cls-19{letter-spacing:-0.03em;}.cls-20{letter-spacing:-0.03em;}.cls-21{letter-spacing:-0.04em;}.cls-22{letter-spacing:-0.04em;}.cls-23{letter-spacing:-0.03em;}</style></defs><g id="Layer_2" data-name="Layer 2"><g id="_ÎÓÈ_1" data-name="—ÎÓÈ_1"><rect class="cls-1" width="490.23" height="317"/><polygon class="cls-2" points="71.56 268.4 200.3 317 490.36 317 490.36 158.9 418.16 48 71.56 268.4"/><rect class="cls-3" x="71.56" y="47.8" width="346.84" height="220.6"/><rect class="cls-4" x="71.56" y="47.8" width="346.84" height="44.12"/><rect class="cls-1" x="81.36" y="57.6" width="24.51" height="24.51"/><path class="cls-5" d="M286.53,69.39v.69h1.55v-.69Zm-3.1.69H285v-.69h-1.55Zm-3.1.17h1.55v-1h-1.55Zm-3.09.17h1.54V69.05h-1.54Zm-3.1.17h1.54V68.88h-1.54Zm-3.1.52h1.55V68.36H271Zm-3.1.86h1.55V67.51h-1.55Zm-3.1,2.23h1.55V65.27h-1.55Zm-3.1-.86h1.55V66.13h-1.55Zm-3.1,1.71h1.55V64.42h-1.55Zm-3.09-2.4h1.54V66.82h-1.54Zm-3.1-2.06H254V68.88h-1.55Zm-3.1.69h1.55V68.19h-1.55Zm-3.1,1h1.55V67.16h-1.55Zm-3.1-.34h1.55V67.51h-1.55Zm-3.1-.52h1.55V68h-1.55ZM237,74.71h1.55V64.76H237Zm-3.09,3.78h1.54V61h-1.54Zm-3.1-.86h1.55V61.84h-1.55ZM227.66,73h1.55V66.48h-1.55Zm-3.1,1.71h1.55V64.76h-1.55Zm-3.1-4.29H223V69.05h-1.55Zm-3.1.52h1.55V68.53h-1.55Zm-3.09.68h1.54V67.85h-1.54Zm-3.1,1h1.54V66.82h-1.54Zm-3.1,2.4h1.55V64.42h-1.55ZM206,76.6h1.55V62.87H206Zm-3.1-1h1.55V63.9h-1.55Zm-3.1,2.06h1.55V61.84h-1.55Zm-3.1,2.06h1.55V59.78h-1.55Zm-3.09,1.2h1.54V58.58h-1.54ZM190.48,79H192V60.47h-1.55Zm-3.1-1.37h1.55V61.84h-1.55Zm-3.1,1.2h1.55V60.64h-1.55Zm-3.1-1.89h1.55V62.53h-1.55Zm-3.1-3.77h1.55V66.3h-1.55Zm-3.1,1.2h1.55V65.1H175Zm-3.09-3.26h1.54V68.36h-1.54Zm-3.1,1.37h1.55V67h-1.55Zm-3.1,3.43h1.55V63.56h-1.55Zm-3.1-.86h1.55V64.42h-1.55Zm-3.1,1.72H161V62.7h-1.55Zm-3.1,1.89h1.55V60.81h-1.55Zm-3.09-5.15h1.54V66H153.3Zm-3.1,2.06h1.54V63.9H150.2Zm-3.1-2.23h1.55V66.13H147.1Zm-9.13-1h1.47V67.12H138Zm-2.95.86h1.47v-7H135Zm-2.94-3.11h1.47v-.75h-1.47Zm-3,.84h1.48V68.52h-1.48Zm-2.94.62h1.47V67.9h-1.47Zm17.81-.8h1.55V68.71H144Zm-20.91,0h1.55V68.71h-1.55Zm17.81.34h1.55V68.36H140.9Z"/><path class="cls-5" d="M387.32,70.42h1.55V69.05h-1.55Zm-3.09.52h1.54V68.53h-1.54Zm-3.1.68h1.55V67.85h-1.55Zm-3.1,1h1.55V66.82H378Zm-3.1,2.4h1.55V64.42h-1.55Zm-3.1,1.55h1.55V62.87h-1.55Zm-3.1-1h1.55V63.9h-1.55Zm-3.1,2.06h1.55V61.84h-1.55Zm-3.09,2.06h1.54V59.78h-1.54Zm-3.1,1.2H361V58.58h-1.55ZM356.34,79h1.55V60.47h-1.55Zm-3.1-1.37h1.55V61.84h-1.55Zm-3.1,1.2h1.55V60.64h-1.55ZM347,76.94h1.55V62.53H347ZM344,73.17h1.54V66.3H344Zm-3.1,1.2h1.54V65.1h-1.54Zm-3.1-3.26h1.55V68.36h-1.55Zm-3.1,1.37h1.55V67h-1.55Zm-3.1,3.43h1.55V63.56h-1.55Zm-3.1-.86H330V64.42h-1.55Zm-3.1,1.72h1.55V62.7h-1.55Zm-3.09,1.89h1.54V60.81h-1.54Zm-3.1-5.15h1.55V66h-1.55Zm-3.1,2.06h1.55V63.9h-1.55ZM313,73.34h1.55V66.13H313Zm-9.13-1h1.47V67.12h-1.47Zm-2.94.86h1.47v-7h-1.47Zm-2.95-3.11h1.47v-.75h-1.47ZM295,71h1.47V68.52H295Zm-2.95.62h1.47V67.9h-1.47Zm17.81-.8h1.55V68.71h-1.55Zm-20.91,0h1.55V68.71H289Zm17.81.34h1.55V68.36h-1.55Z"/><path class="cls-3" d="M92.94,68.71V62.14a7.26,7.26,0,0,0,0,14.52V70.09a7.26,7.26,0,0,0,7.22,6.57V62.14A7.25,7.25,0,0,0,92.94,68.71Z"/><rect class="cls-6" x="75.99" y="95.95" width="338" height="37"/><text class="cls-7" transform="translate(101.3 114.91)">E<tspan class="cls-8" x="7.09" y="0">pi</tspan><tspan class="cls-9" x="17.66" y="0">s</tspan><tspan class="cls-8" x="23.2" y="0">ode </tspan><tspan class="cls-10" x="47.48" y="0">T</tspan><tspan class="cls-11" x="54.85" y="0">i</tspan><tspan class="cls-12" x="57.93" y="0">t</tspan><tspan class="cls-13" x="62.15" y="0">le</tspan></text><polygon class="cls-14" points="94.32 114.97 87.79 120.28 87.79 109.65 94.32 114.97 94.32 114.97"/><rect class="cls-2" x="102.94" y="121.47" width="107" height="5"/><text class="cls-15" transform="translate(386.73 115.25)">0<tspan class="cls-16" x="3.53" y="0">4</tspan><tspan x="6.89" y="0">:27</tspan></text><text class="cls-17" transform="translate(328.06 116.7)">O<tspan class="cls-18" x="7.77" y="0">c</tspan><tspan class="cls-19" x="12.88" y="0">t</tspan><tspan class="cls-20" x="16.2" y="0">ober 14</tspan></text><rect class="cls-6" x="75.99" y="139.62" width="338" height="37"/><text class="cls-7" transform="translate(101.3 158.58)">E<tspan class="cls-8" x="7.09" y="0">pi</tspan><tspan class="cls-9" x="17.66" y="0">s</tspan><tspan class="cls-8" x="23.2" y="0">ode </tspan><tspan class="cls-10" x="47.48" y="0">T</tspan><tspan class="cls-11" x="54.85" y="0">i</tspan><tspan class="cls-12" x="57.93" y="0">t</tspan><tspan class="cls-13" x="62.15" y="0">le</tspan></text><polygon class="cls-14" points="94.32 158.63 87.79 163.94 87.79 153.32 94.32 158.63 94.32 158.63"/><rect class="cls-2" x="102.94" y="165.14" width="107" height="5"/><text class="cls-15" transform="translate(386.73 158.92)">0<tspan class="cls-16" x="3.53" y="0">4</tspan><tspan x="6.89" y="0">:27</tspan></text><text class="cls-17" transform="translate(326.46 160.36)">O<tspan class="cls-18" x="7.77" y="0">c</tspan><tspan class="cls-19" x="12.88" y="0">t</tspan><tspan class="cls-20" x="16.2" y="0">ober 07</tspan></text><rect class="cls-6" x="75.99" y="183.29" width="338" height="37"/><text class="cls-7" transform="translate(101.3 202.25)">E<tspan class="cls-8" x="7.09" y="0">pi</tspan><tspan class="cls-9" x="17.66" y="0">s</tspan><tspan class="cls-8" x="23.2" y="0">ode </tspan><tspan class="cls-10" x="47.48" y="0">T</tspan><tspan class="cls-11" x="54.85" y="0">i</tspan><tspan class="cls-12" x="57.93" y="0">t</tspan><tspan class="cls-13" x="62.15" y="0">le</tspan></text><polygon class="cls-14" points="94.32 202.3 87.79 207.61 87.79 196.99 94.32 202.3 94.32 202.3"/><rect class="cls-2" x="102.94" y="208.81" width="107" height="5"/><text class="cls-15" transform="translate(386.73 202.59)">0<tspan class="cls-16" x="3.53" y="0">4</tspan><tspan x="6.89" y="0">:27</tspan></text><text class="cls-17" transform="translate(327.97 204.03)">O<tspan class="cls-18" x="7.77" y="0">c</tspan><tspan class="cls-19" x="12.88" y="0">t</tspan><tspan class="cls-20" x="16.2" y="0">ober </tspan><tspan class="cls-21" x="38.29" y="0">0</tspan><tspan class="cls-20" x="44.1" y="0">1</tspan></text><rect class="cls-6" x="75.99" y="226.95" width="338" height="37"/><text class="cls-7" transform="translate(101.3 245.91)">E<tspan class="cls-8" x="7.09" y="0">pi</tspan><tspan class="cls-9" x="17.66" y="0">s</tspan><tspan class="cls-8" x="23.2" y="0">ode </tspan><tspan class="cls-10" x="47.48" y="0">T</tspan><tspan class="cls-11" x="54.85" y="0">i</tspan><tspan class="cls-12" x="57.93" y="0">t</tspan><tspan class="cls-13" x="62.15" y="0">le</tspan></text><polygon class="cls-14" points="94.32 245.97 87.79 251.28 87.79 240.65 94.32 245.97 94.32 245.97"/><rect class="cls-2" x="102.94" y="252.47" width="107" height="5"/><text class="cls-15" transform="translate(386.73 246.25)">0<tspan class="cls-16" x="3.53" y="0">4</tspan><tspan x="6.89" y="0">:27</tspan></text><text class="cls-22" transform="translate(315.35 247.7)">S<tspan class="cls-18" x="5.62" y="0">e</tspan><tspan class="cls-23" x="10.8" y="0">pt</tspan><tspan class="cls-18" x="19.83" y="0">ember 22</tspan></text></g></g></svg>