<svg xmlns="http://www.w3.org/2000/svg" viewBox="0 0 490.35 318"><defs><style>.cls-1{fill:#7400df;}.cls-2{opacity:0.1;}.cls-3{fill:#151a1e;}.cls-14,.cls-15,.cls-4,.cls-6{fill:#fff;}.cls-5{fill:#ff0080;}.cls-6{font-size:13.07px;letter-spacing:-0.1em;}.cls-15,.cls-6{font-family:CircularStd-Medium, Circular Std;font-weight:500;}.cls-7{letter-spacing:-0.03em;}.cls-8{letter-spacing:-0.03em;}.cls-9{letter-spacing:-0.03em;}.cls-10{letter-spacing:-0.04em;}.cls-11{letter-spacing:-0.03em;}.cls-12{letter-spacing:-0.04em;}.cls-13{letter-spacing:-0.03em;}.cls-14{opacity:0.2;}.cls-15{font-size:6px;letter-spacing:-0.03em;}.cls-16{letter-spacing:-0.03em;}</style></defs><g id="Layer_2" data-name="Layer 2"><g id="_ÎÓÈ_1" data-name="—ÎÓÈ_1"><rect class="cls-1" y="1" width="490.23" height="317"/><polygon class="cls-2" points="71.16 265 200.3 318 490.36 318 490.36 159.9 408.16 1 71.16 265"/><rect class="cls-3" x="71.56" y="148.8" width="346.84" height="116.2"/><rect class="cls-3" x="71.56" width="346.84" height="146"/><rect class="cls-1" x="81.36" y="158.6" width="97.8" height="97.8"/><path class="cls-4" d="M127.54,202.93V176.7a29,29,0,1,0,0,57.93V208.41a29,29,0,0,0,28.83,26.22V176.7A29,29,0,0,0,127.54,202.93Z"/><rect class="cls-5" x="323.51" y="178" width="58.72" height="7"/><rect class="cls-5" x="323.51" y="194.33" width="58.72" height="7"/><rect class="cls-5" x="323.51" y="210.67" width="58.72" height="7"/><rect class="cls-5" x="323.51" y="227" width="37.19" height="7"/><text class="cls-6" transform="translate(130.69 44.68)">T<tspan class="cls-7" x="6.67" y="0">r</tspan><tspan class="cls-8" x="11.28" y="0">a</tspan><tspan class="cls-9" x="17.83" y="0">ck </tspan><tspan class="cls-10" x="34.08" y="0">T</tspan><tspan class="cls-11" x="41.45" y="0">i</tspan><tspan class="cls-12" x="44.53" y="0">t</tspan><tspan class="cls-13" x="48.75" y="0">le</tspan></text><polygon class="cls-5" points="123.71 40.65 117.17 45.97 117.17 35.34 123.71 40.65 123.71 40.65"/><rect class="cls-14" x="222.16" y="38.15" width="107" height="5"/><text class="cls-15" transform="translate(346.12 42.5)">0<tspan class="cls-16" x="3.53" y="0">4</tspan><tspan x="6.89" y="0">:27</tspan></text><text class="cls-6" transform="translate(130.69 74.18)">T<tspan class="cls-7" x="6.67" y="0">r</tspan><tspan class="cls-8" x="11.28" y="0">a</tspan><tspan class="cls-9" x="17.83" y="0">ck </tspan><tspan class="cls-10" x="34.08" y="0">T</tspan><tspan class="cls-11" x="41.45" y="0">i</tspan><tspan class="cls-12" x="44.53" y="0">t</tspan><tspan class="cls-13" x="48.75" y="0">le</tspan></text><polygon class="cls-5" points="123.71 70.15 117.17 75.47 117.17 64.84 123.71 70.15 123.71 70.15"/><rect class="cls-14" x="222.16" y="67.65" width="107" height="5"/><text class="cls-15" transform="translate(346.12 72)">0<tspan class="cls-16" x="3.53" y="0">4</tspan><tspan x="6.89" y="0">:27</tspan></text><text class="cls-6" transform="translate(130.69 103.68)">T<tspan class="cls-7" x="6.67" y="0">r</tspan><tspan class="cls-8" x="11.28" y="0">a</tspan><tspan class="cls-9" x="17.83" y="0">ck </tspan><tspan class="cls-10" x="34.08" y="0">T</tspan><tspan class="cls-11" x="41.45" y="0">i</tspan><tspan class="cls-12" x="44.53" y="0">t</tspan><tspan class="cls-13" x="48.75" y="0">le</tspan></text><polygon class="cls-5" points="123.71 99.65 117.17 104.97 117.17 94.34 123.71 99.65 123.71 99.65"/><rect class="cls-14" x="222.16" y="97.15" width="107" height="5"/><text class="cls-15" transform="translate(346.12 101.5)">0<tspan class="cls-16" x="3.53" y="0">4</tspan><tspan x="6.89" y="0">:27</tspan></text></g></g></svg>