<svg xmlns="http://www.w3.org/2000/svg" viewBox="0 0 490.35 317"><defs><style>.cls-1{fill:#7400df;}.cls-2{opacity:0.1;}.cls-3{fill:#151a1e;}.cls-4{fill:#fff;}.cls-5{fill:#ff0080;}</style></defs><g id="Layer_2" data-name="Layer 2"><g id="_ÎÓÈ_1" data-name="—ÎÓÈ_1"><rect class="cls-1" width="490.23" height="317"/><polygon class="cls-2" points="71.16 214 200.3 317 490.36 317 490.36 158.9 418.16 98 71.16 214"/><rect class="cls-3" x="71.56" y="97.8" width="346.84" height="116.2"/><rect class="cls-1" x="81.36" y="107.6" width="97.8" height="97.8"/><path class="cls-4" d="M127.54,151.93V125.7a29,29,0,1,0,0,57.93V157.41a29,29,0,0,0,28.83,26.22V125.7A29,29,0,0,0,127.54,151.93Z"/><path class="cls-5" d="M228,151.27v12.17H222a2.52,2.52,0,0,1-2.48-2.53v-9.64a2.52,2.52,0,0,1,2.48-2.53H228Z"/><path class="cls-5" d="M245.38,177.15c0,2.62-1.47,3.23-3.27,1.36L227.29,163.3V148.88l14.78-14.82c1.82-1.85,3.31-1.22,3.31,1.4Z"/><path class="cls-5" d="M252.24,146.73a.8.8,0,0,0-.58-.26.78.78,0,0,0-.59.23l-1.83,1.86a.8.8,0,0,0,0,1.09,8.69,8.69,0,0,1,0,11.33.79.79,0,0,0,0,1.08l1.83,1.86a.8.8,0,0,0,.57.24h0a.79.79,0,0,0,.57-.27,13,13,0,0,0,0-17.16Z"/><path class="cls-5" d="M258.08,140.78a.76.76,0,0,0-.57-.25.79.79,0,0,0-.58.23l-1.83,1.85a.79.79,0,0,0,0,1.1,17.23,17.23,0,0,1,0,23.2.79.79,0,0,0,0,1.1l1.83,1.86a.79.79,0,0,0,.57.23h0a.76.76,0,0,0,.57-.25,21.47,21.47,0,0,0,0-29.07Z"/><rect class="cls-4" x="277.16" y="152" width="99" height="8" rx="4"/><rect class="cls-5" x="277.16" y="152" width="64.28" height="8" rx="4"/></g></g></svg>