<svg xmlns="http://www.w3.org/2000/svg" viewBox="0 0 1200 584"><defs><style>.cls-1{fill:#151a1e;}.cls-2{fill:#f2f2f2;}</style></defs><g id="Layer_2" data-name="Layer 2"><g id="_ÎÓÈ_1" data-name="—ÎÓÈ_1"><rect class="cls-1" width="1200" height="584"/><path class="cls-2" d="M969.27,277.74v7.93h6.64v-7.93ZM956,285.67h6.64v-7.93H956Zm-13.3,2h6.65V275.75h-6.65Zm-13.29,2H936V273.77h-6.64Zm-13.29,2h6.64V271.79H916.1Zm-13.29,5.95h6.64V265.84h-6.64Zm-13.3,9.92h6.64V255.92h-6.64Zm-13.29,25.79h6.64V230.13h-6.64Zm-13.29-9.92h6.64V240.05h-6.64Zm-13.3,19.84h6.64v-123h-6.64Zm-13.29-27.77H843V248h-6.64Zm-13.29-23.81h6.64V271.79h-6.64Zm-13.3,7.94h6.64V263.85h-6.64Zm-13.29,11.9h6.64V252h-6.64Zm-13.29-4h6.64V255.92h-6.64Zm-13.3-5.95h6.65V261.87h-6.65Zm-13.29,37.69h6.64v-115h-6.64Zm-13.29,43.64h6.64V180.54h-6.64ZM730,373h6.65V190.46H730ZM716.7,319.39h6.64V244H716.7Zm-13.29,19.84h6.64v-115h-6.64Zm-13.29-49.59h6.64V273.77h-6.64Zm-13.3,5.95h6.64V267.82h-6.64Zm-13.29,7.93h6.64V259.89h-6.64Zm-13.29,11.91h6.64V248h-6.64Zm-13.3,27.77h6.64v-123h-6.64Zm-13.29,17.85h6.64V202.36h-6.64Zm-13.29-11.9H617V214.26h-6.64ZM597.06,373h6.65V190.46h-6.65Zm-13.29,23.8h6.64V166.65h-6.64Zm-13.29,13.89h6.64V152.77h-6.64Zm-13.3-21.82h6.65V174.59h-6.65ZM543.89,373h6.64V190.46h-6.64ZM530.6,386.84h6.64V176.57H530.6ZM517.3,365H524V198.39H517.3ZM504,321.38h6.64V242H504Zm-13.29,13.88h6.64V228.15h-6.64Zm-13.29-37.69h6.64V265.84h-6.64Zm-13.3,15.87h6.64V250h-6.64Zm-13.29,39.67h6.64V210.3h-6.64Zm-13.29-9.91h6.64v-123h-6.64ZM424.25,363h6.64V200.37h-6.64ZM411,384.85h6.64V178.56H411Zm-13.29-59.51h6.64V238.07h-6.64Zm-13.3,23.81H391V214.26h-6.65Zm-13.29-25.79h6.64V240.05h-6.64ZM331.91,312h6.31V251.41h-6.31ZM319.28,322h6.31V241.46h-6.31ZM306.65,286H313v-8.63h-6.31ZM294,295.77h6.31V267.64H294Zm-12.64,7.14h6.31V260.5h-6.31Zm76.41-9.3h6.64V269.8h-6.64Zm-89.7,0h6.64V269.8h-6.64Zm76.4,4h6.65V265.84h-6.65Z"/></g></g></svg>