<svg xmlns="http://www.w3.org/2000/svg" xmlns:xlink="http://www.w3.org/1999/xlink" viewBox="0 0 490.35 317"><defs><style>.cls-1{fill:none;}.cls-2{fill:#7400df;}.cls-3{opacity:0.1;}.cls-4{clip-path:url(#clip-path);}.cls-5{fill:#fff;}.cls-6{fill:#151a1e;}.cls-7{font-size:13.07px;fill:#4e5e76;font-family:CircularStd-Medium, Circular Std;font-weight:500;}.cls-8{letter-spacing:-0.04em;}.cls-9{letter-spacing:-0.03em;}.cls-10{letter-spacing:-0.03em;}.cls-11{letter-spacing:-0.03em;}.cls-12{letter-spacing:-0.04em;}.cls-13{letter-spacing:-0.03em;}.cls-14{letter-spacing:-0.04em;}.cls-15{letter-spacing:-0.03em;}.cls-16{opacity:0.1;}.cls-17{clip-path:url(#clip-path-4);}.cls-18{clip-path:url(#clip-path-5);}.cls-19{fill:#ff0080;}.cls-20{clip-path:url(#clip-path-6);}.cls-21{clip-path:url(#clip-path-9);}.cls-22{clip-path:url(#clip-path-10);}.cls-23{clip-path:url(#clip-path-11);}.cls-24{clip-path:url(#clip-path-14);}.cls-25{clip-path:url(#clip-path-15);}</style><clipPath id="clip-path"><rect class="cls-1" x="192.5" y="63.11" width="105.94" height="169.31"/></clipPath><clipPath id="clip-path-4"><rect class="cls-1" x="197.13" y="203.42" width="88" height="5"/></clipPath><clipPath id="clip-path-5"><rect class="cls-1" x="197.13" y="213.42" width="34" height="5"/></clipPath><clipPath id="clip-path-6"><rect class="cls-1" x="313.5" y="63.11" width="105.94" height="169.31"/></clipPath><clipPath id="clip-path-9"><rect class="cls-1" x="318.13" y="203.42" width="88" height="5"/></clipPath><clipPath id="clip-path-10"><rect class="cls-1" x="318.13" y="213.42" width="34" height="5"/></clipPath><clipPath id="clip-path-11"><rect class="cls-1" x="71.5" y="63.11" width="105.94" height="169.31"/></clipPath><clipPath id="clip-path-14"><rect class="cls-1" x="76.13" y="203.42" width="88" height="5"/></clipPath><clipPath id="clip-path-15"><rect class="cls-1" x="76.13" y="213.42" width="34" height="5"/></clipPath></defs><g id="Layer_2" data-name="Layer 2"><g id="_ÎÓÈ_1" data-name="—ÎÓÈ_1"><rect class="cls-2" width="490.23" height="317"/><polygon class="cls-3" points="71.5 232.11 200.3 317 490.36 317 490.36 158.9 419.5 63.11 71.5 63.11 71.5 232.11"/><g id="wc"><g class="cls-4"><g class="cls-4"><rect class="cls-5" x="192.5" y="63.11" width="105.94" height="169.31"/><rect class="cls-6" x="196.8" y="66.64" width="97.8" height="97.8"/><text class="cls-7" transform="translate(197.13 197.13)"><tspan class="cls-8">P</tspan><tspan class="cls-9" x="7.32" y="0">r</tspan><tspan class="cls-10" x="11.87" y="0">o</tspan><tspan class="cls-9" x="19.06" y="0">d</tspan><tspan class="cls-11" x="26.51" y="0">u</tspan><tspan class="cls-10" x="33.62" y="0">ct </tspan><tspan class="cls-12" x="47.57" y="0">T</tspan><tspan class="cls-13" x="54.94" y="0">i</tspan><tspan class="cls-14" x="58.02" y="0">t</tspan><tspan class="cls-15" x="62.25" y="0">l</tspan><tspan x="65.35" y="0">e</tspan></text><g class="cls-4"><g class="cls-16"><g class="cls-17"><rect x="197.13" y="203.42" width="88" height="5"/></g></g><g class="cls-16"><g class="cls-18"><rect x="197.13" y="213.42" width="34" height="5"/></g></g><path class="cls-19" d="M245.7,142.28a26.74,26.74,0,1,1,26.74-26.74,26.76,26.76,0,0,1-26.74,26.74m0-49.17a22.44,22.44,0,1,0,22.43,22.43A22.46,22.46,0,0,0,245.7,93.11"/><path class="cls-19" d="M259.51,115.32l-19.86-11.47a.3.3,0,0,0-.26,0,.26.26,0,0,0-.13.22V127a.25.25,0,0,0,.13.22.23.23,0,0,0,.26,0l19.86-11.46a.28.28,0,0,0,.13-.23.26.26,0,0,0-.13-.22"/><path class="cls-19" d="M285.09,175.75h.77v-.35h-.77Zm-1.56,0h.78v-.35h-.78Zm-1.55.08h.78v-.51H282Zm-1.55.09h.78v-.69h-.78Zm-1.55.09h.78v-.86h-.78Zm-1.55.25h.78v-1.37h-.78Zm-1.55.43h.77v-2.23h-.77Zm-1.55,1.12H275v-4.47h-.77Zm-1.55-.43h.77v-3.61h-.77Zm-1.55.86h.77v-5.33h-.77Zm-1.55-1.2h.77v-2.92h-.77ZM268,176h.78v-.86H268Zm-1.55.34h.78V174.8h-.78Zm-1.55.52h.78v-2.58h-.78Zm-1.55-.18h.78v-2.23h-.78Zm-1.55-.25h.77v-1.72h-.77Zm-1.55,1.63H261v-5h-.77ZM258.72,180h.77V171.2h-.77Zm-1.55-.43h.77v-7.9h-.77Zm-1.55-2.32h.77v-3.27h-.77Zm-1.56.86h.78v-5h-.78Zm-1.55-2.15h.78v-.69h-.78Zm-1.55.26h.78V175H251Zm-1.55.34h.78v-1.89h-.78Zm-1.55.52h.78v-2.92h-.78Zm-1.55,1.2h.77v-5.33h-.77Zm-1.55.77h.77v-6.87h-.77Zm-1.55-.51H244v-5.84h-.77Zm-1.55,1h.77v-7.9h-.77Zm-1.56,1h.78v-10h-.78Zm-1.55.6h.78V170h-.78Zm-1.55-.95h.78v-9.27H237Zm-1.55-.68h.78v-7.9h-.78Zm-1.55.6h.78V171h-.78Zm-1.55-.95h.77V172h-.77Zm-1.55-1.89h.77v-3.43h-.77Zm-1.55.61H230v-4.64h-.77Zm-1.55-1.64h.77v-1.37h-.77Zm-1.56.69h.78V174.2h-.78Zm-1.55,1.72h.78v-6.19h-.78Zm-1.55-.43h.78v-5.33H223Zm-1.55.86h.78v-7h-.78Zm-1.55.94h.78v-8.93h-.78Zm-1.55-2.57h.77v-3.78h-.77Zm-1.55,1h.77v-5.84h-.77Zm-1.55-1.12h.77v-3.61h-.77Zm-4.57-.49h.73v-2.62h-.73Zm-1.48.43H210v-3.49h-.74Zm-1.47-1.56h.74v-.37h-.74Zm-1.47.43H207V175h-.73Zm-1.48.31h.74v-1.84h-.74Zm8.92-.41h.77v-1h-.77Zm-10.47,0h.78v-1h-.78Zm8.92.17H213v-1.37h-.77Z"/></g></g></g></g><g id="wc-2" data-name="wc"><g class="cls-20"><g class="cls-20"><rect class="cls-5" x="313.5" y="63.11" width="105.94" height="169.31"/><rect class="cls-6" x="317.8" y="66.64" width="97.8" height="97.8"/><text class="cls-7" transform="translate(318.13 197.13)"><tspan class="cls-8">P</tspan><tspan class="cls-9" x="7.32" y="0">r</tspan><tspan class="cls-10" x="11.87" y="0">o</tspan><tspan class="cls-9" x="19.06" y="0">d</tspan><tspan class="cls-11" x="26.51" y="0">u</tspan><tspan class="cls-10" x="33.62" y="0">ct </tspan><tspan class="cls-12" x="47.57" y="0">T</tspan><tspan class="cls-13" x="54.94" y="0">i</tspan><tspan class="cls-14" x="58.02" y="0">t</tspan><tspan class="cls-15" x="62.25" y="0">l</tspan><tspan x="65.35" y="0">e</tspan></text><g class="cls-20"><g class="cls-16"><g class="cls-21"><rect x="318.13" y="203.42" width="88" height="5"/></g></g><g class="cls-16"><g class="cls-22"><rect x="318.13" y="213.42" width="34" height="5"/></g></g><path class="cls-19" d="M366.7,142.28a26.74,26.74,0,1,1,26.74-26.74,26.76,26.76,0,0,1-26.74,26.74m0-49.17a22.44,22.44,0,1,0,22.43,22.43A22.46,22.46,0,0,0,366.7,93.11"/><path class="cls-19" d="M380.51,115.32l-19.86-11.47a.3.3,0,0,0-.26,0,.26.26,0,0,0-.13.22V127a.25.25,0,0,0,.13.22.23.23,0,0,0,.26,0l19.86-11.46a.28.28,0,0,0,.13-.23.26.26,0,0,0-.13-.22"/><path class="cls-19" d="M406.09,175.75h.77v-.35h-.77Zm-1.56,0h.78v-.35h-.78Zm-1.55.08h.78v-.51H403Zm-1.55.09h.78v-.69h-.78Zm-1.55.09h.78v-.86h-.78Zm-1.55.25h.78v-1.37h-.78Zm-1.55.43h.77v-2.23h-.77Zm-1.55,1.12H396v-4.47h-.77Zm-1.55-.43h.77v-3.61h-.77Zm-1.55.86h.77v-5.33h-.77Zm-1.55-1.2h.77v-2.92h-.77ZM389,176h.78v-.86H389Zm-1.55.34h.78V174.8h-.78Zm-1.55.52h.78v-2.58h-.78Zm-1.55-.18h.78v-2.23h-.78Zm-1.55-.25h.77v-1.72h-.77Zm-1.55,1.63H382v-5h-.77ZM379.72,180h.77V171.2h-.77Zm-1.55-.43h.77v-7.9h-.77Zm-1.55-2.32h.77v-3.27h-.77Zm-1.56.86h.78v-5h-.78Zm-1.55-2.15h.78v-.69h-.78Zm-1.55.26h.78V175H372Zm-1.55.34h.78v-1.89h-.78Zm-1.55.52h.78v-2.92h-.78Zm-1.55,1.2h.77v-5.33h-.77Zm-1.55.77h.77v-6.87h-.77Zm-1.55-.51H365v-5.84h-.77Zm-1.55,1h.77v-7.9h-.77Zm-1.56,1h.78v-10h-.78Zm-1.55.6h.78V170h-.78Zm-1.55-.95h.78v-9.27H358Zm-1.55-.68h.78v-7.9h-.78Zm-1.55.6h.78V171h-.78Zm-1.55-.95h.77V172h-.77Zm-1.55-1.89h.77v-3.43h-.77Zm-1.55.61H351v-4.64h-.77Zm-1.55-1.64h.77v-1.37h-.77Zm-1.56.69h.78V174.2h-.78Zm-1.55,1.72h.78v-6.19h-.78Zm-1.55-.43h.78v-5.33H344Zm-1.55.86h.78v-7h-.78Zm-1.55.94h.78v-8.93h-.78Zm-1.55-2.57h.77v-3.78h-.77Zm-1.55,1h.77v-5.84h-.77Zm-1.55-1.12h.77v-3.61h-.77Zm-4.57-.49h.73v-2.62h-.73Zm-1.48.43H331v-3.49h-.74Zm-1.47-1.56h.74v-.37h-.74Zm-1.47.43H328V175h-.73Zm-1.48.31h.74v-1.84h-.74Zm8.92-.41h.77v-1h-.77Zm-10.47,0h.78v-1h-.78Zm8.92.17H334v-1.37h-.77Z"/></g></g></g></g><g id="wc-3" data-name="wc"><g class="cls-23"><g class="cls-23"><rect class="cls-5" x="71.5" y="63.11" width="105.94" height="169.31"/><rect class="cls-6" x="75.8" y="66.64" width="97.8" height="97.8"/><text class="cls-7" transform="translate(76.13 197.13)"><tspan class="cls-8">P</tspan><tspan class="cls-9" x="7.32" y="0">r</tspan><tspan class="cls-10" x="11.87" y="0">o</tspan><tspan class="cls-9" x="19.06" y="0">d</tspan><tspan class="cls-11" x="26.51" y="0">u</tspan><tspan class="cls-10" x="33.62" y="0">ct </tspan><tspan class="cls-12" x="47.57" y="0">T</tspan><tspan class="cls-13" x="54.94" y="0">i</tspan><tspan class="cls-14" x="58.02" y="0">t</tspan><tspan class="cls-15" x="62.25" y="0">l</tspan><tspan x="65.35" y="0">e</tspan></text><g class="cls-23"><g class="cls-16"><g class="cls-24"><rect x="76.13" y="203.42" width="88" height="5"/></g></g><g class="cls-16"><g class="cls-25"><rect x="76.13" y="213.42" width="34" height="5"/></g></g><path class="cls-19" d="M124.7,142.28a26.74,26.74,0,1,1,26.74-26.74,26.76,26.76,0,0,1-26.74,26.74m0-49.17a22.44,22.44,0,1,0,22.43,22.43A22.46,22.46,0,0,0,124.7,93.11"/><path class="cls-19" d="M138.51,115.32l-19.86-11.47a.3.3,0,0,0-.26,0,.26.26,0,0,0-.13.22V127a.25.25,0,0,0,.13.22.23.23,0,0,0,.26,0l19.86-11.46a.28.28,0,0,0,.13-.23.26.26,0,0,0-.13-.22"/><path class="cls-19" d="M164.09,175.75h.77v-.35h-.77Zm-1.56,0h.78v-.35h-.78Zm-1.55.08h.78v-.51H161Zm-1.55.09h.78v-.69h-.78Zm-1.55.09h.78v-.86h-.78Zm-1.55.25h.78v-1.37h-.78Zm-1.55.43h.77v-2.23h-.77Zm-1.55,1.12H154v-4.47h-.77Zm-1.55-.43h.77v-3.61h-.77Zm-1.55.86h.77v-5.33h-.77Zm-1.55-1.2h.77v-2.92h-.77ZM147,176h.78v-.86H147Zm-1.55.34h.78V174.8h-.78Zm-1.55.52h.78v-2.58h-.78Zm-1.55-.18h.78v-2.23h-.78Zm-1.55-.25h.77v-1.72h-.77Zm-1.55,1.63H140v-5h-.77ZM137.72,180h.77V171.2h-.77Zm-1.55-.43h.77v-7.9h-.77Zm-1.55-2.32h.77v-3.27h-.77Zm-1.56.86h.78v-5h-.78Zm-1.55-2.15h.78v-.69h-.78Zm-1.55.26h.78V175H130Zm-1.55.34h.78v-1.89h-.78Zm-1.55.52h.78v-2.92h-.78Zm-1.55,1.2h.77v-5.33h-.77Zm-1.55.77h.77v-6.87h-.77Zm-1.55-.51H123v-5.84h-.77Zm-1.55,1h.77v-7.9h-.77Zm-1.56,1h.78v-10h-.78Zm-1.55.6h.78V170h-.78Zm-1.55-.95h.78v-9.27H116Zm-1.55-.68h.78v-7.9h-.78Zm-1.55.6h.78V171h-.78Zm-1.55-.95h.77V172h-.77Zm-1.55-1.89h.77v-3.43h-.77Zm-1.55.61H109v-4.64h-.77Zm-1.55-1.64h.77v-1.37h-.77Zm-1.56.69h.78V174.2h-.78Zm-1.55,1.72h.78v-6.19h-.78Zm-1.55-.43h.78v-5.33H102Zm-1.55.86h.78v-7h-.78Zm-1.55.94h.78v-8.93h-.78Zm-1.55-2.57h.77v-3.78h-.77Zm-1.55,1h.77v-5.84h-.77Zm-1.55-1.12h.77v-3.61h-.77Zm-4.57-.49h.73v-2.62h-.73Zm-1.48.43H89v-3.49h-.74Zm-1.47-1.56h.74v-.37h-.74Zm-1.47.43H86V175H85.3Zm-1.48.31h.74v-1.84h-.74Zm8.92-.41h.77v-1h-.77Zm-10.47,0h.78v-1h-.78Zm8.92.17H92v-1.37h-.77Z"/></g></g></g></g></g></g></svg>