<svg xmlns="http://www.w3.org/2000/svg" viewBox="0 0 490.35 317"><defs><style>.cls-1{fill:#7400df;}.cls-2{opacity:0.1;}.cls-17,.cls-3{fill:#fff;}.cls-4,.cls-6{fill:#151a1e;}.cls-5{fill:#f2f2f2;}.cls-6{opacity:0.05;}.cls-7{font-size:13.07px;letter-spacing:-0.1em;}.cls-15,.cls-7{fill:#4e5e76;}.cls-17,.cls-7{font-family:CircularStd-Medium, Circular Std;font-weight:500;}.cls-8{letter-spacing:-0.03em;}.cls-9{letter-spacing:-0.03em;}.cls-10{letter-spacing:-0.03em;}.cls-11{letter-spacing:-0.02em;}.cls-12{letter-spacing:-0.03em;}.cls-13{letter-spacing:-0.04em;}.cls-14{letter-spacing:-0.04em;}.cls-16{fill:#ff0080;}.cls-17{font-size:8.19px;}.cls-18{letter-spacing:-0.02em;}.cls-19{letter-spacing:0em;}.cls-20{letter-spacing:-0.01em;}.cls-21{letter-spacing:-0.04em;}.cls-22{letter-spacing:-0.01em;}.cls-23{opacity:0.7;}.cls-24{opacity:0.4;}.cls-25{opacity:0.15;}</style></defs><g id="Layer_2" data-name="Layer 2"><g id="_ÎÓÈ_1" data-name="—ÎÓÈ_1"><rect class="cls-1" width="490.23" height="317"/><polygon class="cls-2" points="71.56 268.4 200.3 317 490.36 317 490.36 158.9 418.16 48 71.56 268.4"/><rect class="cls-3" x="71.56" y="47.8" width="346.84" height="220.6"/><rect class="cls-4" x="71.56" y="47.8" width="346.84" height="44.12"/><rect class="cls-1" x="81.36" y="57.6" width="24.51" height="24.51"/><path class="cls-5" d="M286.53,69.39v.69h1.55v-.69Zm-3.1.69H285v-.69h-1.55Zm-3.1.17h1.55v-1h-1.55Zm-3.09.17h1.54V69.05h-1.54Zm-3.1.17h1.54V68.88h-1.54Zm-3.1.52h1.55V68.36H271Zm-3.1.86h1.55V67.51h-1.55Zm-3.1,2.23h1.55V65.27h-1.55Zm-3.1-.86h1.55V66.13h-1.55Zm-3.1,1.71h1.55V64.42h-1.55Zm-3.09-2.4h1.54V66.82h-1.54Zm-3.1-2.06H254V68.88h-1.55Zm-3.1.69h1.55V68.19h-1.55Zm-3.1,1h1.55V67.16h-1.55Zm-3.1-.34h1.55V67.51h-1.55Zm-3.1-.52h1.55V68h-1.55ZM237,74.71h1.55V64.76H237Zm-3.09,3.78h1.54V61h-1.54Zm-3.1-.86h1.55V61.84h-1.55ZM227.66,73h1.55V66.48h-1.55Zm-3.1,1.71h1.55V64.76h-1.55Zm-3.1-4.29H223V69.05h-1.55Zm-3.1.52h1.55V68.53h-1.55Zm-3.09.68h1.54V67.85h-1.54Zm-3.1,1h1.54V66.82h-1.54Zm-3.1,2.4h1.55V64.42h-1.55ZM206,76.6h1.55V62.87H206Zm-3.1-1h1.55V63.9h-1.55Zm-3.1,2.06h1.55V61.84h-1.55Zm-3.1,2.06h1.55V59.78h-1.55Zm-3.09,1.2h1.54V58.58h-1.54ZM190.48,79H192V60.47h-1.55Zm-3.1-1.37h1.55V61.84h-1.55Zm-3.1,1.2h1.55V60.64h-1.55Zm-3.1-1.89h1.55V62.53h-1.55Zm-3.1-3.77h1.55V66.3h-1.55Zm-3.1,1.2h1.55V65.1H175Zm-3.09-3.26h1.54V68.36h-1.54Zm-3.1,1.37h1.55V67h-1.55Zm-3.1,3.43h1.55V63.56h-1.55Zm-3.1-.86h1.55V64.42h-1.55Zm-3.1,1.72H161V62.7h-1.55Zm-3.1,1.89h1.55V60.81h-1.55Zm-3.09-5.15h1.54V66H153.3Zm-3.1,2.06h1.54V63.9H150.2Zm-3.1-2.23h1.55V66.13H147.1Zm-9.13-1h1.47V67.12H138Zm-2.95.86h1.47v-7H135Zm-2.94-3.11h1.47v-.75h-1.47Zm-3,.84h1.48V68.52h-1.48Zm-2.94.62h1.47V67.9h-1.47Zm17.81-.8h1.55V68.71H144Zm-20.91,0h1.55V68.71h-1.55Zm17.81.34h1.55V68.36H140.9Z"/><path class="cls-5" d="M387.32,70.42h1.55V69.05h-1.55Zm-3.09.52h1.54V68.53h-1.54Zm-3.1.68h1.55V67.85h-1.55Zm-3.1,1h1.55V66.82H378Zm-3.1,2.4h1.55V64.42h-1.55Zm-3.1,1.55h1.55V62.87h-1.55Zm-3.1-1h1.55V63.9h-1.55Zm-3.1,2.06h1.55V61.84h-1.55Zm-3.09,2.06h1.54V59.78h-1.54Zm-3.1,1.2H361V58.58h-1.55ZM356.34,79h1.55V60.47h-1.55Zm-3.1-1.37h1.55V61.84h-1.55Zm-3.1,1.2h1.55V60.64h-1.55ZM347,76.94h1.55V62.53H347ZM344,73.17h1.54V66.3H344Zm-3.1,1.2h1.54V65.1h-1.54Zm-3.1-3.26h1.55V68.36h-1.55Zm-3.1,1.37h1.55V67h-1.55Zm-3.1,3.43h1.55V63.56h-1.55Zm-3.1-.86H330V64.42h-1.55Zm-3.1,1.72h1.55V62.7h-1.55Zm-3.09,1.89h1.54V60.81h-1.54Zm-3.1-5.15h1.55V66h-1.55Zm-3.1,2.06h1.55V63.9h-1.55ZM313,73.34h1.55V66.13H313Zm-9.13-1h1.47V67.12h-1.47Zm-2.94.86h1.47v-7h-1.47Zm-2.95-3.11h1.47v-.75h-1.47ZM295,71h1.47V68.52H295Zm-2.95.62h1.47V67.9h-1.47Zm17.81-.8h1.55V68.71h-1.55Zm-20.91,0h1.55V68.71H289Zm17.81.34h1.55V68.36h-1.55Z"/><path class="cls-3" d="M92.94,68.71V62.14a7.26,7.26,0,0,0,0,14.52V70.09a7.26,7.26,0,0,0,7.22,6.57V62.14A7.25,7.25,0,0,0,92.94,68.71Z"/><rect class="cls-6" x="74.97" y="97.42" width="338" height="37"/><text class="cls-7" transform="translate(100.19 118.82)">T<tspan class="cls-8" x="6.67" y="0">r</tspan><tspan class="cls-9" x="11.28" y="0">a</tspan><tspan class="cls-10" x="17.83" y="0">c</tspan><tspan class="cls-11" x="24.51" y="0">k</tspan><tspan class="cls-12" x="31.32" y="0"> </tspan><tspan class="cls-13" x="34.17" y="0">T</tspan><tspan class="cls-10" x="41.55" y="0">i</tspan><tspan class="cls-14" x="44.62" y="0">t</tspan><tspan class="cls-12" x="48.84" y="0">le</tspan></text><polygon class="cls-15" points="93.03 115.87 86.5 121.18 86.5 110.56 93.03 115.87 93.03 115.87"/><rect class="cls-16" x="304.5" y="103.11" width="97.47" height="24.15" rx="4.5"/><text class="cls-17" transform="translate(332.47 117.71)">BUY N<tspan class="cls-18" x="24.08" y="0">O</tspan><tspan class="cls-19" x="30.5" y="0">W </tspan><tspan class="cls-20" x="40.85" y="0">$</tspan><tspan class="cls-21" x="45.67" y="0">9</tspan><tspan class="cls-22" x="50.11" y="0">.</tspan><tspan x="52.47" y="0">99</tspan></text><path class="cls-3" d="M326.56,117.63a.58.58,0,0,0,.55-.42l1.36-4.77a.51.51,0,0,0-.49-.66h-9.29l-.27-1.38h0a.52.52,0,0,0-.52-.48h-2.14a.52.52,0,0,0-.53.52v.65h2.13l1.43,7.52a1.35,1.35,0,0,0-.19.33,1.31,1.31,0,0,0-.11.52,1.35,1.35,0,0,0,.11.52,1.47,1.47,0,0,0,.28.42,1.55,1.55,0,0,0,.43.29,1.3,1.3,0,0,0,.52.1,1.34,1.34,0,0,0,.52-.1,1.37,1.37,0,0,0,.42-.29,1.5,1.5,0,0,0,.29-.42,1.32,1.32,0,0,0,.1-.51h3.74a1.56,1.56,0,0,0,.11.51,1.32,1.32,0,0,0,.29.42,1.37,1.37,0,0,0,.42.29,1.3,1.3,0,0,0,.52.1,1.34,1.34,0,0,0,.52-.1,1.37,1.37,0,0,0,.42-.29,1.32,1.32,0,0,0,.29-.42,1.34,1.34,0,0,0,.1-.52,1.3,1.3,0,0,0-.1-.52,1.26,1.26,0,0,0-.29-.43,1.19,1.19,0,0,0-.42-.28,1.35,1.35,0,0,0-.52-.11,1.31,1.31,0,0,0-.52.11,1.36,1.36,0,0,0-.39.25h-4.59a1.36,1.36,0,0,0-.39-.25,1.48,1.48,0,0,0-.45-.11l-.1-.49Zm-.32,1.32a.51.51,0,0,1,.51.51.51.51,0,0,1-1,0A.51.51,0,0,1,326.24,119Zm-5.9.51a.51.51,0,0,1-1,0,.51.51,0,1,1,1,0Z"/><g class="cls-23"><rect class="cls-6" x="74.97" y="140.75" width="338" height="37"/><text class="cls-7" transform="translate(100.19 162.15)">T<tspan class="cls-8" x="6.67" y="0">r</tspan><tspan class="cls-9" x="11.28" y="0">a</tspan><tspan class="cls-10" x="17.83" y="0">c</tspan><tspan class="cls-11" x="24.51" y="0">k</tspan><tspan class="cls-12" x="31.32" y="0"> </tspan><tspan class="cls-13" x="34.17" y="0">T</tspan><tspan class="cls-10" x="41.55" y="0">i</tspan><tspan class="cls-14" x="44.62" y="0">t</tspan><tspan class="cls-12" x="48.84" y="0">le</tspan></text><polygon class="cls-15" points="93.03 159.2 86.5 164.51 86.5 153.89 93.03 159.2 93.03 159.2"/><rect class="cls-16" x="304.5" y="146.44" width="97.47" height="24.15" rx="4.5"/><text class="cls-17" transform="translate(332.47 161.04)">BUY N<tspan class="cls-18" x="24.08" y="0">O</tspan><tspan class="cls-19" x="30.5" y="0">W </tspan><tspan class="cls-20" x="40.85" y="0">$</tspan><tspan class="cls-21" x="45.67" y="0">9</tspan><tspan class="cls-22" x="50.11" y="0">.</tspan><tspan x="52.47" y="0">99</tspan></text><path class="cls-3" d="M326.56,161a.58.58,0,0,0,.55-.41l1.36-4.78a.51.51,0,0,0-.49-.66h-9.29l-.27-1.38h0a.52.52,0,0,0-.52-.48h-2.14a.53.53,0,0,0-.53.53v.65h2.13l1.43,7.51a1.35,1.35,0,0,0-.19.33,1.31,1.31,0,0,0-.11.52,1.34,1.34,0,0,0,.82,1.23,1.3,1.3,0,0,0,.52.1,1.34,1.34,0,0,0,.52-.1,1.22,1.22,0,0,0,.42-.29,1.37,1.37,0,0,0,.29-.42,1.25,1.25,0,0,0,.1-.51h3.74a1.45,1.45,0,0,0,.11.51,1.42,1.42,0,0,0,.71.71,1.3,1.3,0,0,0,.52.1,1.34,1.34,0,0,0,.52-.1,1.42,1.42,0,0,0,.71-.71,1.34,1.34,0,0,0,.1-.52,1.3,1.3,0,0,0-.1-.52,1.42,1.42,0,0,0-.71-.71,1.35,1.35,0,0,0-.52-.11,1.31,1.31,0,0,0-.52.11,1.36,1.36,0,0,0-.39.25h-4.59a1.36,1.36,0,0,0-.39-.25,1.22,1.22,0,0,0-.45-.1l-.1-.5Zm-.32,1.32a.51.51,0,1,1-.51.51A.51.51,0,0,1,326.24,162.28Zm-5.9.51a.51.51,0,1,1-.51-.51A.51.51,0,0,1,320.34,162.79Z"/></g><g class="cls-24"><rect class="cls-6" x="74.97" y="184.09" width="338" height="37"/><text class="cls-7" transform="translate(100.19 205.49)">T<tspan class="cls-8" x="6.67" y="0">r</tspan><tspan class="cls-9" x="11.28" y="0">a</tspan><tspan class="cls-10" x="17.83" y="0">c</tspan><tspan class="cls-11" x="24.51" y="0">k</tspan><tspan class="cls-12" x="31.32" y="0"> </tspan><tspan class="cls-13" x="34.17" y="0">T</tspan><tspan class="cls-10" x="41.55" y="0">i</tspan><tspan class="cls-14" x="44.62" y="0">t</tspan><tspan class="cls-12" x="48.84" y="0">le</tspan></text><polygon class="cls-15" points="93.03 202.54 86.5 207.85 86.5 197.23 93.03 202.54 93.03 202.54"/><rect class="cls-16" x="304.5" y="189.78" width="97.47" height="24.15" rx="4.5"/><text class="cls-17" transform="translate(332.47 204.38)">BUY N<tspan class="cls-18" x="24.08" y="0">O</tspan><tspan class="cls-19" x="30.5" y="0">W </tspan><tspan class="cls-20" x="40.85" y="0">$</tspan><tspan class="cls-21" x="45.67" y="0">9</tspan><tspan class="cls-22" x="50.11" y="0">.</tspan><tspan x="52.47" y="0">99</tspan></text><path class="cls-3" d="M326.56,204.29a.58.58,0,0,0,.55-.41l1.36-4.78a.51.51,0,0,0-.49-.66h-9.29l-.27-1.38h0a.52.52,0,0,0-.52-.48h-2.14a.53.53,0,0,0-.53.53v.65h2.13l1.43,7.52a1.5,1.5,0,0,0-.19.32,1.35,1.35,0,0,0-.11.52,1.31,1.31,0,0,0,.11.52,1.52,1.52,0,0,0,.28.43,1.33,1.33,0,0,0,.43.28,1.31,1.31,0,0,0,.52.11,1.35,1.35,0,0,0,.52-.11,1.19,1.19,0,0,0,.42-.28,1.55,1.55,0,0,0,.29-.43,1.24,1.24,0,0,0,.1-.5h3.74a1.45,1.45,0,0,0,.11.5,1.36,1.36,0,0,0,.29.43,1.19,1.19,0,0,0,.42.28,1.31,1.31,0,0,0,.52.11,1.35,1.35,0,0,0,.52-.11,1.19,1.19,0,0,0,.42-.28,1.36,1.36,0,0,0,.29-.43,1.3,1.3,0,0,0,.1-.52,1.34,1.34,0,0,0-.1-.52,1.22,1.22,0,0,0-.29-.42,1.37,1.37,0,0,0-.42-.29,1.34,1.34,0,0,0-.52-.1,1.3,1.3,0,0,0-.52.1,1.62,1.62,0,0,0-.39.25h-4.59a1.62,1.62,0,0,0-.39-.25,1.46,1.46,0,0,0-.45-.1l-.1-.5Zm-.32,1.32a.51.51,0,1,1-.51.51A.51.51,0,0,1,326.24,205.61Zm-5.9.51a.51.51,0,1,1-.51-.51A.51.51,0,0,1,320.34,206.12Z"/></g><g class="cls-25"><rect class="cls-6" x="74.97" y="227.42" width="338" height="37"/><text class="cls-7" transform="translate(100.19 248.82)">T<tspan class="cls-8" x="6.67" y="0">r</tspan><tspan class="cls-9" x="11.28" y="0">a</tspan><tspan class="cls-10" x="17.83" y="0">c</tspan><tspan class="cls-11" x="24.51" y="0">k</tspan><tspan class="cls-12" x="31.32" y="0"> </tspan><tspan class="cls-13" x="34.17" y="0">T</tspan><tspan class="cls-10" x="41.55" y="0">i</tspan><tspan class="cls-14" x="44.62" y="0">t</tspan><tspan class="cls-12" x="48.84" y="0">le</tspan></text><polygon class="cls-15" points="93.03 245.87 86.5 251.18 86.5 240.56 93.03 245.87 93.03 245.87"/><rect class="cls-16" x="304.5" y="233.11" width="97.47" height="24.15" rx="4.5"/><text class="cls-17" transform="translate(332.47 247.71)">BUY N<tspan class="cls-18" x="24.08" y="0">O</tspan><tspan class="cls-19" x="30.5" y="0">W </tspan><tspan class="cls-20" x="40.85" y="0">$</tspan><tspan class="cls-21" x="45.67" y="0">9</tspan><tspan class="cls-22" x="50.11" y="0">.</tspan><tspan x="52.47" y="0">99</tspan></text><path class="cls-3" d="M326.56,247.63a.58.58,0,0,0,.55-.42l1.36-4.77a.51.51,0,0,0-.49-.66h-9.29l-.27-1.38h0a.52.52,0,0,0-.52-.48h-2.14a.52.52,0,0,0-.53.52v.65h2.13l1.43,7.52a1.35,1.35,0,0,0-.19.33,1.31,1.31,0,0,0-.11.52,1.35,1.35,0,0,0,.11.52,1.47,1.47,0,0,0,.28.42,1.55,1.55,0,0,0,.43.29,1.3,1.3,0,0,0,.52.1,1.34,1.34,0,0,0,.52-.1,1.37,1.37,0,0,0,.42-.29,1.5,1.5,0,0,0,.29-.42,1.32,1.32,0,0,0,.1-.51h3.74a1.56,1.56,0,0,0,.11.51,1.32,1.32,0,0,0,.29.42,1.37,1.37,0,0,0,.42.29,1.3,1.3,0,0,0,.52.1,1.34,1.34,0,0,0,.52-.1,1.37,1.37,0,0,0,.42-.29,1.32,1.32,0,0,0,.29-.42,1.34,1.34,0,0,0,.1-.52,1.3,1.3,0,0,0-.1-.52,1.26,1.26,0,0,0-.29-.43,1.19,1.19,0,0,0-.42-.28,1.35,1.35,0,0,0-.52-.11,1.31,1.31,0,0,0-.52.11,1.36,1.36,0,0,0-.39.25h-4.59a1.36,1.36,0,0,0-.39-.25,1.48,1.48,0,0,0-.45-.11l-.1-.49Zm-.32,1.32a.51.51,0,0,1,.51.51.51.51,0,0,1-1,0A.51.51,0,0,1,326.24,249Zm-5.9.51a.51.51,0,0,1-1,0,.51.51,0,1,1,1,0Z"/></g></g></g></svg>